<svg width="45" height="45" viewBox="0 0 45 45" fill="none" xmlns="http://www.w3.org/2000/svg">
<g clip-path="url(#clip0_44_234)">
<path d="M4.74093 45H40.3368C42.9016 45 45.0777 42.9016 45.0777 40.2591V4.74093C45.0777 2.17617 42.9793 0 40.3368 0H4.74093C2.09845 0 0 2.09845 0 4.74093V40.3368C0 42.9016 2.09845 45 4.74093 45Z" fill="#EE4823"/>
<path d="M31.0107 13.0569C31.0884 12.9792 31.1661 12.9014 31.1661 12.8237C31.7102 12.0465 32.6428 11.8911 33.42 12.4351C34.1972 12.9792 34.3526 13.9118 33.8086 14.689C32.876 16.0103 32.021 17.2538 31.0884 18.4973C30.933 18.7305 30.8552 18.8859 30.8552 19.1191C30.8552 20.9066 30.8552 22.6165 30.8552 24.404C30.8552 24.4818 30.8552 24.6372 30.8552 24.7926C31.3993 24.6372 31.477 24.9481 31.6324 25.3367C31.7102 25.5698 31.7102 25.8807 32.021 25.9584C32.3319 26.1139 32.6428 26.1139 32.876 25.9584C32.9537 25.8807 33.1091 25.8807 33.2646 25.803C33.4977 25.7253 33.6532 25.7253 33.8086 25.8807C34.0418 26.1139 34.2749 26.4248 34.5858 26.6579C34.7412 26.8134 34.7412 26.9688 34.6635 27.202C34.5858 27.3574 34.5081 27.5128 34.4304 27.6683C34.2749 27.9014 34.2749 28.1346 34.4304 28.3678C34.5081 28.6009 34.6635 28.7564 34.8967 28.8341C35.8293 29.145 35.6739 28.9895 35.6739 29.9222C35.6739 30.9325 35.8293 30.7771 34.819 31.088C34.4304 31.2434 34.1972 31.7097 34.3526 32.0983C34.819 33.031 34.819 32.7978 34.1195 33.575C33.42 34.2745 33.6532 34.1968 32.7982 33.8082C32.3319 33.575 31.8656 33.8082 31.7102 34.2745C31.3993 35.1294 31.5547 35.0517 30.6221 35.0517C25.0262 35.0517 19.4304 35.0517 13.8345 35.0517C13.6791 35.0517 13.5236 35.0517 13.3682 35.0517C12.8241 34.974 12.4355 34.5854 12.4355 34.1191C12.4355 34.0413 12.4355 33.8859 12.4355 33.8082C12.4355 26.347 12.4355 18.8859 12.4355 11.4248C12.4355 11.347 12.4355 11.1916 12.4355 11.1139C12.4355 10.5698 12.9019 10.1812 13.4459 10.1035C13.5236 10.1035 13.6014 10.1035 13.6791 10.1035C19.0418 10.1035 24.4045 10.1035 29.6894 10.1035C30.4666 10.1035 30.933 10.4921 30.933 11.347C30.933 11.7356 30.933 12.1242 30.933 12.5128C30.933 12.5906 30.933 12.8237 31.0107 13.0569C30.933 13.0569 30.933 13.0569 31.0107 13.0569ZM30.2335 19.8963C30.078 19.974 30.0003 20.0517 30.0003 20.1294C28.99 21.6061 27.9019 23.0051 26.8915 24.5595C25.9589 25.9584 25.0262 27.3574 23.4718 28.1346C23.0832 28.4455 22.6946 28.4455 22.3837 28.2123C22.0729 27.9792 21.9951 27.6683 22.0729 27.202C22.2283 26.5802 22.3837 25.9584 22.5392 25.3367C22.6169 25.1035 22.6946 24.8704 22.8501 24.7149C25.2594 21.2175 27.6687 17.7978 30.1558 14.3004C30.2335 14.145 30.3112 13.9895 30.3112 13.8341C30.3112 12.9792 30.3112 12.202 30.3112 11.347C30.3112 10.803 30.1558 10.6476 29.6117 10.6476C24.3267 10.6476 19.0418 10.6476 13.7568 10.6476C13.2127 10.6476 13.0573 10.7253 13.0573 11.347C13.0573 18.8082 13.0573 26.2693 13.0573 33.7305C13.0573 34.2745 13.135 34.3522 13.6791 34.3522C18.8086 34.3522 23.9381 34.3522 29.1454 34.3522C29.2231 34.3522 29.3786 34.3522 29.4563 34.3522C29.3786 33.8082 28.9122 33.4973 28.3682 33.7305C27.4355 34.1968 27.6687 34.1968 26.8915 33.4973C26.192 32.7978 26.2697 33.031 26.6583 32.1761C26.8915 31.7097 26.6583 31.2434 26.192 31.088C25.2594 30.7771 25.4148 30.9325 25.4148 29.9222C25.4148 28.9118 25.3371 29.145 26.192 28.7564C26.6583 28.6009 26.8915 28.1346 26.6583 27.6683C26.2697 26.7356 26.192 26.9688 26.8915 26.2693C27.591 25.5698 27.3578 25.6476 28.2905 26.0362C28.5236 26.1139 28.6791 26.1139 28.8345 26.0362C29.1454 25.9584 29.3008 25.803 29.3786 25.4921C29.3786 25.3367 29.4563 25.1812 29.534 25.0258C29.6117 24.7926 29.6894 24.7149 29.9226 24.7149C30.0003 24.7149 30.078 24.7149 30.1558 24.7149C30.2335 23.0828 30.2335 21.4507 30.2335 19.8963ZM33.42 33.3419C33.4977 33.2641 33.6532 33.1087 33.7309 33.031C33.964 32.8755 34.0418 32.6424 33.8863 32.4092C33.5754 32.0206 33.6532 31.632 33.8086 31.2434C33.964 30.7771 34.1972 30.5439 34.6635 30.4662C34.8967 30.3885 35.0521 30.3108 35.0521 29.9999C35.0521 29.7667 35.0521 29.4558 34.6635 29.3781C34.4304 29.3004 34.1195 29.2227 34.0418 29.0672C33.8086 28.5232 33.3423 27.9792 33.8086 27.3574C33.8863 27.2797 33.964 27.0465 33.964 26.9688C33.8086 26.7356 33.6532 26.5802 33.4977 26.4248C33.42 26.347 33.2646 26.5025 33.1091 26.5025C32.876 26.5802 32.6428 26.7356 32.4096 26.7356C31.7879 26.5802 31.1661 26.4248 31.0107 25.6476C31.0107 25.5698 30.933 25.4144 30.8552 25.4144C30.6221 25.4144 30.3889 25.3367 30.1558 25.4144C30.078 25.4144 30.0003 25.6476 29.9226 25.7253C29.7672 26.0362 29.6894 26.347 29.3008 26.5025C28.7568 26.7356 28.2127 26.8911 27.7464 26.5025C27.6687 26.4248 27.591 26.4248 27.5133 26.5025C27.0469 26.7356 26.9692 27.0465 27.2024 27.5128C27.2801 27.5906 27.2801 27.6683 27.2801 27.746C27.2801 27.9014 27.3578 27.9792 27.2801 28.1346C27.1247 28.7564 26.8915 29.3781 26.1143 29.4558C26.0366 29.4558 25.9589 29.5336 25.9589 29.5336C25.9589 29.7667 25.8811 29.9999 25.9589 30.2331C25.9589 30.3108 26.192 30.3885 26.3475 30.4662C26.7361 30.5439 26.9692 30.7771 27.1247 31.1657C27.3578 31.7097 27.3578 32.0983 27.0469 32.6424C26.9692 32.7201 26.9692 32.8755 27.0469 32.8755C27.2801 33.3419 27.591 33.4196 28.0573 33.1864C28.3682 33.031 28.6013 33.031 28.99 33.1864C29.534 33.3419 29.9226 33.6527 30.0003 34.2745C30.0003 34.4299 30.1558 34.5077 30.3112 34.5077C30.3889 34.5077 30.5444 34.5077 30.6221 34.5077C30.8552 34.5077 30.933 34.4299 30.933 34.2745C31.0107 33.7305 31.3993 33.4196 31.9433 33.2641C32.2542 33.1087 32.5651 33.1087 32.876 33.3419C33.1091 33.1864 33.2646 33.2641 33.42 33.3419ZM29.6894 15.9325C27.591 18.9636 25.4148 21.9947 23.3164 24.9481C23.8604 25.3367 24.4045 25.7253 24.9485 26.1139C27.0469 23.0828 29.1454 20.0517 31.3216 17.0983C30.7775 16.7097 30.2335 16.3211 29.6894 15.9325ZM30.078 15.3885C30.6221 15.7771 31.1661 16.1657 31.7102 16.5543C32.1765 15.8548 32.6428 15.233 33.1091 14.5336C33.1868 14.3781 33.3423 14.2227 33.42 14.0672C33.6532 13.6786 33.4977 13.2123 33.0314 12.9014C32.5651 12.5906 32.0988 12.5906 31.7879 12.9792C31.2438 13.7564 30.6998 14.6113 30.078 15.3885ZM23.0832 25.6476C22.9278 26.2693 22.7723 26.8911 22.6169 27.4351C22.6169 27.5128 22.6169 27.5906 22.6946 27.6683C22.7723 27.746 22.8501 27.746 22.9278 27.6683C23.3941 27.3574 23.9381 26.9688 24.4822 26.6579C24.0159 26.2693 23.5495 25.9584 23.0832 25.6476Z" fill="white"/>
<path d="M18.9644 17.0983C19.6639 17.176 20.2857 17.2538 20.9074 17.2538C21.4515 17.3315 21.9955 17.3315 22.5396 17.4092C22.9282 17.4092 23.0059 17.5646 22.9282 17.9532C22.6173 20.2071 20.8297 21.8393 18.5758 21.917C16.322 21.9947 14.4567 20.4403 14.0681 18.1864C13.524 14.9999 16.4774 12.2797 19.5862 13.0569C19.9748 13.1346 20.0525 13.29 19.8971 13.6009C19.5862 14.689 19.2753 15.6994 18.9644 16.7874C19.0422 16.8652 19.0422 17.0206 18.9644 17.0983ZM15.3893 19.5077C16.0888 20.8289 17.9541 21.5284 19.5862 21.1398C21.0629 20.7512 22.3841 19.1968 22.3064 18.1087C22.2287 18.1087 22.2287 18.1087 22.151 18.1087C21.1406 18.031 20.0525 17.9532 19.0422 17.8755C18.809 17.8755 18.5758 17.9533 18.3427 18.031C17.6432 18.4196 16.9437 18.8082 16.2442 19.1968C15.9334 19.1968 15.6225 19.3522 15.3893 19.5077ZM16.1665 14.3781C14.5344 15.6216 14.3789 17.7978 15.0784 18.8859C16.0888 18.3419 17.0992 17.7978 18.1095 17.2538C17.41 16.3211 16.7883 15.3885 16.1665 14.3781ZM16.7106 14.0672C17.2546 14.9222 17.7986 15.7771 18.4204 16.632C18.7313 15.6216 18.9644 14.6113 19.2753 13.6786C18.6536 13.4455 17.3323 13.6009 16.7106 14.0672Z" fill="white"/>
<path d="M23.7046 16.0104C23.7046 16.4768 23.6269 16.5545 23.1605 16.5545C22.3056 16.4768 21.5284 16.399 20.6735 16.3213C20.2849 16.3213 20.2072 16.1659 20.2849 15.7773C20.5181 14.9224 20.7512 14.1452 20.9844 13.2902C21.0621 12.9016 21.2175 12.8239 21.6061 12.9794C22.8497 13.4457 23.7046 14.6115 23.7046 16.0104ZM23.0828 15.855C23.0828 14.9224 22.3833 13.912 21.5284 13.7566C21.373 14.3783 21.1398 15.0778 20.9844 15.7773C21.6839 15.855 22.3056 15.855 22.9274 15.9327C22.9274 15.855 23.0051 15.855 23.0828 15.855Z" fill="white"/>
<path d="M18.9644 29.7667C17.6432 29.7667 16.2442 29.7667 14.9229 29.7667C14.8452 29.7667 14.7675 29.7667 14.6898 29.7667C14.6121 29.6889 14.3789 29.5335 14.3789 29.4558C14.3789 29.3781 14.5343 29.2226 14.6898 29.1449C14.7675 29.0672 14.8452 29.1449 14.9229 29.1449C17.5654 29.1449 20.2856 29.1449 22.9281 29.1449C23.0058 29.1449 23.1613 29.1449 23.239 29.1449C23.3167 29.2226 23.4722 29.3781 23.4722 29.4558C23.4722 29.5335 23.3167 29.6889 23.239 29.7667C23.1613 29.8444 23.0836 29.7667 23.0058 29.7667C21.6069 29.7667 20.2856 29.7667 18.9644 29.7667Z" fill="white"/>
<path d="M17.0985 24.1706C16.3213 24.1706 15.6219 24.1706 14.8447 24.1706C14.6115 24.1706 14.4561 24.0929 14.4561 23.8597C14.4561 23.6265 14.6115 23.5488 14.8447 23.5488C16.3991 23.5488 17.9535 23.5488 19.4301 23.5488C19.6633 23.5488 19.8187 23.6265 19.8187 23.8597C19.8187 24.1706 19.5856 24.1706 19.3524 24.1706C18.5752 24.1706 17.798 24.1706 17.0985 24.1706Z" fill="white"/>
<path d="M17.0991 25.5703C17.8763 25.5703 18.5758 25.5703 19.353 25.5703C19.5862 25.5703 19.7416 25.648 19.7416 25.8812C19.7416 26.1144 19.5862 26.1921 19.353 26.1921C17.7986 26.1921 16.2442 26.1921 14.7675 26.1921C14.5343 26.1921 14.3789 26.1144 14.3789 25.8812C14.3789 25.648 14.5343 25.5703 14.7675 25.5703C15.5447 25.5703 16.3219 25.5703 17.0991 25.5703Z" fill="white"/>
<path d="M26.4253 14.9997C25.9589 14.9997 25.4926 14.9997 25.0263 14.9997C24.7931 14.9997 24.6377 14.922 24.6377 14.6888C24.6377 14.4556 24.7931 14.3779 25.0263 14.3779C25.9589 14.3779 26.8916 14.3779 27.8242 14.3779C28.0574 14.3779 28.2128 14.4556 28.2128 14.6888C28.2128 14.922 28.0574 14.9997 27.8242 14.9997C27.3579 14.9997 26.8916 14.9997 26.4253 14.9997Z" fill="white"/>
<path d="M30.5443 32.098C29.3008 32.098 28.3682 31.0877 28.3682 29.8441C28.3682 28.6006 29.3785 27.668 30.6221 27.668C31.8656 27.668 32.7982 28.6783 32.7982 29.9219C32.7982 31.1654 31.7879 32.098 30.5443 32.098ZM28.9899 29.9219C28.9899 30.7768 29.6894 31.4763 30.5443 31.4763C31.3993 31.4763 32.0987 30.7768 32.0987 29.9219C32.0987 29.0669 31.3993 28.3675 30.5443 28.3675C29.7671 28.2897 28.9899 28.9892 28.9899 29.9219Z" fill="white"/>
</g>
<defs>
<clipPath id="clip0_44_234">
<rect width="45" height="45" fill="white"/>
</clipPath>
</defs>
</svg>
