<svg width="45" height="45" viewBox="0 0 45 45" fill="none" xmlns="http://www.w3.org/2000/svg">
<g clip-path="url(#clip0_44_205)">
<path d="M4.74093 45H40.3368C42.9016 45 45.0777 42.9016 45.0777 40.2591V4.74093C45.0777 2.17617 42.9793 0 40.3368 0H4.74093C2.09845 0 0 2.09845 0 4.74093V40.3368C0 42.9016 2.09845 45 4.74093 45Z" fill="#EE4823"/>
<path d="M29.378 25.492C31.0101 25.8029 31.0101 25.8029 31.0101 27.5127C31.0101 27.979 30.9324 28.3676 30.9324 28.8339C30.9324 29.2225 31.0101 29.6889 31.0101 30.0775C31.321 30.1552 31.6319 30.3106 31.9428 30.3883C32.2536 29.6889 32.8754 29.6889 33.5749 29.6889C34.663 29.6889 35.751 29.6889 36.7614 29.6889C37.6163 29.6889 37.9272 29.9997 38.0049 30.8547C38.0049 32.9531 38.0049 35.0516 38.0049 37.15C38.0049 37.9272 37.6163 38.3158 36.8391 38.3158C35.5956 38.3158 34.2744 38.3158 33.0308 38.3158C32.72 38.3158 32.3314 38.2381 32.2536 38.0049C31.9428 37.6163 31.6319 37.6163 31.2433 37.6163C30.8547 37.6163 30.4661 37.694 30.0775 37.6163C29.922 37.6163 29.7666 37.3832 29.6111 37.2277C29.7666 37.0723 29.922 36.8391 30.0775 36.8391C30.6992 36.7614 31.2433 36.8391 31.9428 36.8391C31.9428 36.1396 31.9428 35.4402 31.9428 34.8184C31.9428 33.808 31.9428 32.7977 31.9428 31.7873C31.9428 31.3987 31.7873 31.1655 31.4764 31.0878C31.2433 31.0101 31.0101 30.9324 30.7769 30.9324C28.8339 30.9324 26.8909 30.9324 24.9479 30.9324C24.8702 31.7873 25.492 32.5645 26.3469 32.72C26.8132 32.7977 27.3573 32.7977 27.9013 32.7977C28.6008 32.7977 28.7562 33.0308 28.7562 33.8858C28.7562 34.663 28.5231 34.9738 27.9013 34.9738C26.6578 34.9738 25.4143 34.9738 24.1707 34.9738C23.8599 34.9738 23.4712 34.8184 23.2381 34.5852C22.0723 33.4972 20.9842 32.4091 19.8961 31.2433C19.1189 30.4661 18.1086 30.4661 17.1759 31.2433C17.5645 31.5541 17.8754 31.865 18.264 32.1759C19.663 33.5749 21.0619 34.9738 22.4609 36.3728C22.7718 36.6837 23.0826 36.8391 23.549 36.8391C25.0257 36.8391 26.4246 36.8391 27.9013 36.8391C28.2122 36.8391 28.6008 36.8391 28.6008 37.2277C28.6008 37.694 28.2122 37.694 27.9013 37.694C26.3469 37.694 24.8702 37.694 23.3158 37.694C22.7718 37.694 22.3054 37.5386 21.9946 37.15C21.2174 36.1396 20.2847 35.9065 19.0412 35.9065C16.2433 35.9842 13.4453 35.9065 10.6474 35.9065C9.55933 35.9065 9.32617 35.6733 9.32617 34.5852C9.32617 26.5801 9.32617 18.6526 9.32617 10.6474C9.32617 9.55933 9.55933 9.32617 10.5697 9.32617C16.2433 9.32617 21.9168 9.32617 27.5904 9.32617C28.6785 9.32617 28.9117 9.55933 28.9117 10.6474C28.9117 12.8236 28.9117 14.9997 28.9117 17.1759C28.9117 17.4091 29.0671 17.72 29.2225 17.8754C31.5541 19.9738 31.7096 23.0049 29.6111 25.2588C29.4557 25.3365 29.378 25.4143 29.378 25.492ZM22.7718 25.4143C22.694 25.3365 22.5386 25.1811 22.4609 25.1034C22.0723 24.4039 21.6837 23.7044 21.2951 23.0049C21.2174 22.8495 21.3728 22.4609 21.5282 22.3832C21.8391 22.2277 21.9946 22.5386 22.0723 22.7718C22.15 22.9272 22.15 23.0826 22.2277 23.2381C22.8495 24.7925 24.0153 25.5697 25.5697 25.5697C26.1137 25.5697 26.6578 25.5697 27.1241 25.5697C27.2795 25.5697 27.5127 25.5697 27.6681 25.492C29.2225 24.7925 30.2329 23.0049 29.9997 21.2951C29.6889 19.2744 28.2122 17.8754 26.1915 17.72C24.3262 17.5645 22.6163 18.808 21.9946 20.751C21.9168 21.0619 21.7614 21.3728 21.3728 21.2174C20.9842 21.0619 21.0619 20.8288 21.1396 20.5179C21.6837 18.7303 22.8495 17.5645 24.7148 17.0205C25.7251 16.7096 26.8132 16.865 27.8236 17.2536C27.8236 14.922 27.8236 12.6681 27.8236 10.3365C21.8391 10.3365 15.9324 10.3365 9.94793 10.3365C9.94793 18.5749 9.94793 26.8132 9.94793 35.1293C13.1345 35.1293 16.321 35.1293 19.5852 35.1293C19.4298 34.9738 19.2744 34.8184 19.1966 34.663C18.3417 33.7303 17.4091 32.8754 16.5542 31.9427C16.0101 31.3987 16.0878 30.9324 16.6319 30.4661C17.6422 29.6111 19.1966 29.6111 20.2847 30.5438C20.5179 30.7769 20.751 31.0101 21.0619 31.2433C21.0619 29.8443 21.0619 28.6008 21.0619 27.3573C21.0619 25.7251 21.1396 25.6474 22.694 25.492C22.7718 25.492 22.7718 25.492 22.7718 25.4143ZM32.7977 30.5438C32.7977 32.8754 32.7977 35.1293 32.7977 37.3832C32.9531 37.3832 33.1863 37.4609 33.3417 37.4609C34.4298 37.4609 35.5179 37.4609 36.5282 37.4609C36.9946 37.4609 37.15 37.3054 37.15 36.8391C37.15 34.8961 37.15 33.0308 37.15 31.0878C37.15 30.9324 37.15 30.6992 37.0723 30.5438C35.6733 30.5438 34.2744 30.5438 32.7977 30.5438ZM26.036 28.5231C27.2018 28.5231 28.4453 28.5231 29.6111 28.5231C29.9997 28.5231 30.1552 28.3676 30.1552 27.979C30.1552 27.6681 30.1552 27.3573 30.1552 27.0464C30.2329 26.5023 29.9997 26.3469 29.5334 26.3469C27.5127 26.3469 25.5697 26.3469 23.549 26.3469C21.9168 26.3469 21.9168 26.3469 21.9946 27.979C21.9946 28.4453 22.15 28.5231 22.5386 28.5231C23.7044 28.5231 24.8702 28.5231 26.036 28.5231ZM24.093 31.5541C24.0153 30.3106 24.2485 30.0775 25.4143 30.0775C26.8909 30.0775 28.2899 30.0775 29.7666 30.0775C29.922 30.0775 30.0775 29.9997 30.1552 29.922C30.2329 29.8443 30.1552 29.6111 30.1552 29.5334C29.9997 29.4557 29.8443 29.378 29.6111 29.378C27.5904 29.378 25.5697 29.378 23.549 29.378C21.9168 29.378 21.9168 29.378 21.9946 31.0101V31.0878C22.15 31.2433 22.2277 31.3987 22.3832 31.4764C22.9272 31.5541 23.4712 31.5541 24.093 31.5541ZM22.3832 32.4091C22.3832 32.4868 22.3054 32.4868 22.3054 32.5645C22.7718 33.0308 23.2381 33.4972 23.7044 33.8858C23.7821 33.9635 24.0153 34.0412 24.1707 34.0412C25.2588 34.0412 26.4246 34.0412 27.5127 34.0412C27.9013 34.0412 27.979 33.8858 27.8236 33.4972C27.6681 33.4972 27.435 33.4972 27.2795 33.4972C26.1915 33.5749 25.3365 33.3417 24.6371 32.4868C24.5593 32.4091 24.4039 32.3314 24.3262 32.3314C23.6267 32.4091 23.0049 32.4091 22.3832 32.4091Z" fill="white"/>
<path d="M12.9794 19.5849C13.368 19.5849 13.6789 19.5849 14.1453 19.5849C14.1453 18.73 14.1453 17.8751 14.1453 17.0202C14.1453 16.787 14.1453 16.5538 14.1453 16.3207C14.1453 15.6989 14.3784 15.5435 15.0002 15.5435C15.5442 15.5435 16.166 15.5435 16.71 15.5435C17.2541 15.5435 17.4872 15.7766 17.4872 16.3207C17.4872 17.4088 17.4872 18.5746 17.4872 19.6626C17.8758 19.6626 18.2644 19.6626 18.653 19.6626C18.653 19.1963 18.653 18.8077 18.653 18.3414C18.653 17.331 18.653 16.3984 18.653 15.388C18.653 14.9217 18.4976 14.6886 18.1867 14.4554C17.4095 13.9114 16.6323 13.2896 15.8551 12.7455C15.0002 13.3673 14.1453 13.9891 13.2903 14.6108C13.1349 14.6886 13.0572 14.9217 13.0572 15.1549C13.0572 15.5435 13.0572 16.0098 13.0572 16.3984C13.0572 16.5538 12.824 16.7093 12.6686 16.8647C12.5131 16.7093 12.28 16.6316 12.28 16.3984C12.2022 16.1652 12.28 15.8544 12.28 15.6989C11.9691 15.4658 11.6582 15.3103 11.6582 15.2326C11.6582 14.9994 11.8914 14.7663 12.0468 14.6108C13.1349 13.7559 14.3007 12.9787 15.3888 12.1238C15.7774 11.8129 16.0883 11.8129 16.3991 12.1238C17.4872 12.9787 18.653 13.8336 19.8188 14.6886C19.9743 14.844 20.1297 15.0772 20.2074 15.2326C20.2074 15.3103 19.8965 15.4658 19.7411 15.6212C19.5079 15.5435 19.4302 15.6989 19.4302 15.8544C19.4302 17.0979 19.4302 18.2637 19.4302 19.5072C19.4302 20.3621 19.2748 20.4398 18.4976 20.4398C16.6323 20.4398 14.8447 20.4398 12.9794 20.4398C12.28 20.4398 12.1245 20.2844 12.0468 19.5072C12.0468 19.1963 12.0468 18.8854 12.0468 18.5746C12.0468 18.2637 12.0468 17.8751 12.4354 17.8751C12.824 17.8751 12.9017 18.186 12.9017 18.4968C12.9794 18.8854 12.9794 19.1963 12.9794 19.5849ZM15.0779 16.3207C15.0779 17.4088 15.0779 18.4968 15.0779 19.5849C15.6219 19.5849 16.0883 19.5849 16.5546 19.5849C16.5546 18.4968 16.5546 17.4088 16.5546 16.3207C16.0105 16.3207 15.5442 16.3207 15.0779 16.3207Z" fill="white"/>
<path d="M25.5698 19.1192C25.7253 18.9638 25.9584 18.7306 26.1139 18.5752C26.347 18.8084 26.5025 18.9638 26.7356 19.197C27.2797 19.3524 27.8237 19.5856 27.9791 20.285C28.0569 20.5182 27.9014 20.9068 27.746 20.9845C27.4351 21.14 27.2797 20.9068 27.1242 20.5959C27.0465 20.4405 26.8133 20.285 26.5802 20.2073C26.2693 20.1296 25.9584 20.2073 25.6475 20.2073C25.2589 20.2073 25.1035 20.3628 25.1035 20.7514C25.1035 21.14 25.2589 21.2954 25.6475 21.2954C25.9584 21.2954 26.2693 21.2954 26.5802 21.2954C27.3574 21.2954 27.9014 21.7617 27.9014 22.5389C27.9791 23.4716 27.5905 23.9379 26.7356 24.0933C26.6579 24.0933 26.6579 24.0933 26.6579 24.2488C26.4247 24.4819 26.2693 24.7151 26.0361 24.8705C25.8807 24.6374 25.7253 24.4819 25.4921 24.2488C25.5698 24.1711 25.5698 24.1711 25.6475 24.0933C25.0258 24.0156 24.4817 23.8602 24.2486 23.1607C24.1708 22.8498 24.0931 22.5389 24.404 22.3835C24.7926 22.228 24.8703 22.5389 25.0258 22.8498C25.1035 23.0052 25.3367 23.1607 25.4921 23.1607C25.803 23.2384 26.1916 23.1607 26.5025 23.1607C26.8911 23.1607 27.0465 22.9275 27.0465 22.5389C27.0465 22.228 26.8911 21.9949 26.5025 21.9949C26.1916 21.9949 25.8807 21.9949 25.5698 21.9949C24.7149 21.9949 24.2486 21.5286 24.1708 20.8291C24.0931 19.9742 24.4817 19.4301 25.3366 19.2747C25.4144 19.2747 25.4921 19.2747 25.5698 19.197C25.5698 19.2747 25.5698 19.197 25.5698 19.1192Z" fill="white"/>
<path d="M15.7769 22.6938C14.7665 22.6938 13.7561 22.6938 12.7458 22.6938C12.4349 22.6938 12.124 22.6938 12.124 22.3052C12.124 21.9166 12.4349 21.8389 12.7458 21.8389C14.7665 21.8389 16.7872 21.8389 18.8857 21.8389C19.1966 21.8389 19.5074 21.9166 19.5074 22.3052C19.5074 22.6938 19.1966 22.6938 18.8857 22.6938C17.7976 22.6938 16.7872 22.6938 15.7769 22.6938Z" fill="white"/>
<path d="M15.7767 25.958C16.7871 25.958 17.7974 25.958 18.8078 25.958C19.1187 25.958 19.5073 25.958 19.5073 26.3466C19.5073 26.7352 19.1964 26.8129 18.8855 26.8129C16.8648 26.8129 14.9218 26.8129 12.9011 26.8129C12.5902 26.8129 12.2793 26.8129 12.2793 26.3466C12.2793 25.958 12.6679 25.958 12.9788 25.958C13.8337 25.958 14.7663 25.958 15.7767 25.958Z" fill="white"/>
<path d="M14.9997 28.8344C14.2225 28.8344 13.4453 28.8344 12.6681 28.8344C12.4349 28.8344 12.124 28.6013 12.124 28.4458C12.124 28.0572 12.4349 27.9795 12.7458 27.9795C14.3002 27.9795 15.7769 27.9795 17.3313 27.9795C17.6422 27.9795 17.953 27.9795 17.953 28.3681C17.953 28.7567 17.6422 28.7567 17.3313 28.7567C16.5541 28.8344 15.7769 28.8344 14.9997 28.8344Z" fill="white"/>
<path d="M23.8603 13.8334C23.2385 13.8334 22.6168 13.8334 22.0727 13.8334C21.7618 13.8334 21.451 13.7557 21.5287 13.3671C21.5287 13.2117 21.8396 12.9785 22.0727 12.9785C23.3162 12.9785 24.5598 12.9785 25.7256 12.9785C26.0365 12.9785 26.3473 13.0562 26.2696 13.4448C26.2696 13.6003 25.9587 13.8334 25.7256 13.8334C25.1038 13.9112 24.482 13.8334 23.8603 13.8334Z" fill="white"/>
<path d="M23.8595 15.5434C23.2378 15.5434 22.6937 15.5434 22.072 15.5434C21.7611 15.5434 21.4502 15.5434 21.4502 15.1548C21.4502 14.7662 21.7611 14.6885 21.9942 14.6885C23.2378 14.6885 24.4813 14.6885 25.6471 14.6885C25.8802 14.6885 26.1911 14.9216 26.1911 15.0771C26.2688 15.4657 25.958 15.5434 25.6471 15.5434C25.103 15.5434 24.4813 15.5434 23.8595 15.5434Z" fill="white"/>
<path d="M17.02 23.9371C17.6418 23.9371 18.2636 23.9371 18.8853 23.9371C19.1185 23.9371 19.2739 24.1703 19.4294 24.3257C19.2739 24.4811 19.0408 24.7143 18.8853 24.7143C17.6418 24.7143 16.3206 24.7143 15.077 24.7143C14.9216 24.7143 14.6107 24.4811 14.6107 24.3257C14.533 24.0148 14.8439 23.8594 15.1548 23.8594C15.6988 23.9371 16.3983 23.9371 17.02 23.9371Z" fill="white"/>
<path d="M13.523 30.855C13.2121 30.855 12.9012 30.9327 12.5903 30.855C12.4349 30.855 12.2795 30.6219 12.124 30.4664C12.2795 30.311 12.4349 30.0778 12.5126 30.0778C13.2121 30.0001 13.8339 30.0001 14.5333 30.0778C14.6888 30.0778 14.8442 30.311 14.922 30.4664C14.7665 30.6219 14.6888 30.855 14.4556 30.855C14.2225 30.9327 13.8339 30.855 13.523 30.855Z" fill="white"/>
<path d="M13.6011 32.8755C13.2902 32.8755 12.9016 32.9533 12.5908 32.8755C12.4353 32.8755 12.2799 32.6424 12.2021 32.4869C12.3576 32.3315 12.4353 32.0983 12.5908 32.0983C13.2902 32.0206 13.912 32.0206 14.6115 32.0983C14.7669 32.0983 14.9224 32.3315 15.0001 32.4869C14.8446 32.6424 14.7669 32.7978 14.6115 32.8755C14.3006 32.9533 13.912 32.8755 13.6011 32.8755Z" fill="white"/>
<path d="M13.2121 23.9379C13.4453 24.0156 13.9893 23.7824 13.9893 24.3265C13.9893 24.9482 13.4453 24.7151 13.0567 24.7151C12.9012 24.7151 12.6681 24.7928 12.5903 24.7151C12.4349 24.6373 12.2795 24.4819 12.124 24.3265C12.2795 24.171 12.3572 24.0156 12.5903 23.9379C12.7458 23.8601 12.9789 23.9379 13.2121 23.9379Z" fill="white"/>
<path d="M29.6115 21.6064C29.3784 21.9173 29.1452 22.3059 28.9898 22.3059C28.5234 22.3059 28.5234 21.9173 28.5234 21.6064C28.5234 21.2955 28.5234 20.9069 28.9898 20.9847C29.1452 20.9069 29.3006 21.2955 29.6115 21.6064Z" fill="white"/>
<path d="M23.704 21.7611C23.5486 21.9166 23.3931 22.3052 23.2377 22.3052C22.7714 22.3829 22.7714 21.9166 22.8491 21.6057C22.8491 21.3725 23.0045 21.1394 23.0822 20.9062C23.0822 20.8285 23.4708 20.9062 23.5486 20.9839C23.6263 21.1394 23.6263 21.4503 23.704 21.7611Z" fill="white"/>
</g>
<defs>
<clipPath id="clip0_44_205">
<rect width="45" height="45" fill="white"/>
</clipPath>
</defs>
</svg>
