<svg width="46" height="46" viewBox="0 0 46 46" fill="none" xmlns="http://www.w3.org/2000/svg">
<path d="M4.75683 45.3067H40.472C43.0454 45.3067 45.2289 43.1976 45.2289 40.5417V4.76502C45.2289 2.18722 43.1234 0 40.472 0H4.75683C2.18347 0 0 2.10911 0 4.76502V40.5417C0 43.1976 2.10549 45.3067 4.75683 45.3067Z" fill="#EE4823"/>
<path d="M20.275 25.0747C19.8071 24.3717 19.3393 23.6686 18.8714 22.9656C17.7796 21.2471 16.9219 19.4505 16.5319 17.4195C16.142 15.1541 16.454 13.1231 18.0916 11.4046C19.7292 9.68607 21.7566 9.06114 24.0961 9.68606C26.4355 10.311 27.8392 11.8733 28.463 14.2167C29.0089 16.3259 28.541 18.2787 27.6052 20.1535C26.8254 21.7158 25.8896 23.2 24.9539 24.6841C24.8759 24.8404 24.7979 24.9185 24.7199 25.0747C25.1098 25.3091 25.5777 25.3872 25.8896 25.6215C27.4493 26.4808 27.5272 28.1993 25.9676 29.0586C23.7062 30.3084 21.3667 30.2303 19.0273 29.0586C18.2475 28.668 17.7796 28.0431 18.0136 27.1057C18.0916 26.5589 18.4815 26.1683 18.8714 25.8559C19.3393 25.5434 19.8071 25.3872 20.275 25.0747ZM22.4585 26.4808C23.3942 25.3872 25.9676 21.5596 26.5915 20.0754C27.2933 18.435 27.8391 16.7945 27.6052 14.9198C27.2933 12.5763 25.2658 10.6234 22.9264 10.4672C20.5869 10.311 18.4035 11.7952 17.6237 14.0605C17.0778 15.7009 17.3897 17.3413 17.8576 18.9036C18.8714 21.7158 20.7429 24.0592 22.4585 26.4808ZM22.5365 28.9805C22.6924 28.9805 22.7704 28.9805 22.9264 28.9805C23.8621 28.9024 24.7979 28.7461 25.5777 28.1993C26.2795 27.7306 26.2795 27.1057 25.5777 26.7151C25.1878 26.4808 24.7979 26.3246 24.33 26.1683C24.1741 26.0902 23.9401 26.2465 23.7842 26.3246C23.4722 26.7151 23.2383 27.1057 22.9264 27.4963C22.5365 28.0431 22.3025 28.0431 21.9126 27.4963C21.7567 27.2619 21.6007 27.0276 21.4447 26.8714C20.7429 25.934 20.6649 25.934 19.6512 26.4808C19.5732 26.5589 19.4952 26.5589 19.4172 26.637C18.6374 27.1838 18.6374 27.8088 19.4172 28.2774C20.431 28.8242 21.4447 28.9805 22.5365 28.9805Z" fill="white"/>
<path d="M10.2932 31.9493C9.35741 31.9493 8.42163 31.9493 7.40788 31.9493C6.78403 31.9493 6.70605 31.8712 6.70605 31.3244C6.70605 29.3715 6.70605 27.4968 6.70605 25.5439C6.70605 25.0752 6.86201 24.9189 7.32989 24.9189C9.27941 24.9189 11.2289 24.9189 13.1785 24.9189C13.6463 24.9189 13.8023 25.1533 13.8023 25.5439C13.8023 27.4968 13.8023 29.3715 13.8023 31.3244C13.8023 31.7931 13.6463 32.0274 13.1005 31.9493C12.1647 31.9493 11.2289 31.9493 10.2932 31.9493ZM8.73356 25.9345C8.5776 25.9345 8.42164 25.8563 8.34366 25.8563C7.71981 25.7782 7.64181 25.8563 7.64181 26.4812C7.64181 27.1843 7.64181 27.9654 7.64181 28.6685C7.64181 29.4496 7.64181 30.1527 7.64181 30.9338C7.71979 30.9338 7.79778 31.0119 7.79778 31.0119C9.3574 31.0119 10.917 31.0119 12.3986 31.0119C12.7106 31.0119 12.7106 30.8557 12.7106 30.6214C12.7106 29.2153 12.7106 27.7311 12.7106 26.325C12.7106 25.9345 12.5546 25.8563 12.2427 25.9345C11.9308 25.9345 11.6188 25.8563 11.6188 26.325C11.6188 26.8718 11.6188 27.3405 11.6188 27.8873C11.6188 28.2779 11.3849 28.5122 10.995 28.5122C10.4491 28.5122 9.82528 28.5122 9.27941 28.5122C8.73355 28.5122 8.57759 28.356 8.57759 27.8092C8.73355 27.1062 8.73356 26.4813 8.73356 25.9345ZM9.7473 25.8563C9.7473 26.4031 9.7473 26.8718 9.7473 27.4186C10.1372 27.4186 10.3711 27.4186 10.761 27.4186C10.761 26.8718 10.761 26.4031 10.761 25.8563C10.6051 25.8563 10.4491 25.8563 10.2932 25.8563C10.1372 25.8563 9.98124 25.8563 9.7473 25.8563Z" fill="white"/>
<path d="M38.2887 28.4341C38.2887 29.3715 38.2887 30.387 38.2887 31.3244C38.2887 31.715 38.1328 31.9493 37.6649 31.9493C35.7154 31.9493 33.7659 31.9493 31.8163 31.9493C31.3485 31.9493 31.1145 31.715 31.1925 31.3244C31.1925 29.4496 31.1925 27.4968 31.1925 25.622C31.1925 25.0752 31.3485 24.9189 31.8944 24.9189C33.7659 24.9189 35.7154 24.9189 37.5869 24.9189C38.1328 24.9189 38.2108 24.9971 38.2887 25.622C38.2887 26.5594 38.2887 27.4967 38.2887 28.4341ZM33.298 25.9345C32.2063 25.7001 32.2063 25.7782 32.2063 26.7156C32.2063 27.9654 32.2063 29.2153 32.2063 30.4651C32.2063 30.8557 32.2842 31.09 32.7521 31.0119C34.1558 31.0119 35.4814 31.0119 36.8851 31.0119C37.0411 31.0119 37.1971 31.0119 37.353 31.0119C37.353 30.0745 37.353 29.2934 37.353 28.4341C37.353 27.5749 37.353 26.7937 37.353 25.9345C36.9631 25.9345 36.6512 25.9345 36.2613 25.9345C36.2613 26.6375 36.2613 27.2624 36.2613 27.8873C36.2613 28.2779 36.0273 28.5122 35.7154 28.5122C35.0915 28.5122 34.5457 28.5122 33.9218 28.5122C33.5319 28.5122 33.298 28.356 33.298 27.8873C33.298 27.1843 33.298 26.5594 33.298 25.9345ZM34.3117 25.8563C34.3117 26.4031 34.3117 26.8718 34.3117 27.4186C34.7016 27.4186 35.0136 27.4186 35.2475 27.4186C35.2475 26.8718 35.2475 26.4031 35.2475 25.8563C34.9356 25.8563 34.6237 25.8563 34.3117 25.8563Z" fill="white"/>
<path d="M18.9491 34.9956C18.9491 34.0583 18.9491 33.1209 18.9491 32.1054C18.9491 31.6367 19.105 31.4805 19.5729 31.4805C21.5224 31.4805 23.394 31.4805 25.3435 31.4805C25.8114 31.4805 26.0453 31.7148 25.9673 32.1054C25.9673 33.9801 25.9673 35.7768 25.9673 37.6515C25.9673 38.5108 25.8894 38.5889 25.0316 38.5889C23.238 38.5889 21.4445 38.5889 19.5729 38.5889C18.9491 38.5889 18.8711 38.5108 18.8711 37.8859C18.9491 36.9485 19.027 36.0111 18.9491 34.9956C19.027 34.9956 19.027 34.9956 18.9491 34.9956ZM24.0178 32.5741C24.0178 33.199 24.0178 33.8239 24.0178 34.4488C24.0178 34.8394 23.8619 34.9956 23.472 34.9956C22.8481 34.9956 22.2243 34.9956 21.6004 34.9956C21.1325 34.9956 20.9766 34.7613 20.9766 34.3707C20.9766 33.902 20.9766 33.4333 20.9766 32.9646C20.9766 32.5741 20.8206 32.4178 20.4307 32.4178C20.0408 32.4178 19.8068 32.4178 19.8068 32.8865C19.8068 34.2926 19.8068 35.6987 19.8068 37.1047C19.8068 37.4953 19.9628 37.5734 20.2747 37.5734C21.6784 37.5734 23.082 37.5734 24.4857 37.5734C24.8756 37.5734 25.0316 37.4953 25.0316 37.0266C25.0316 35.6987 25.0316 34.4488 25.0316 33.1209C25.0316 32.2616 24.9536 32.1835 24.0958 32.3397C24.1738 32.4959 24.0958 32.5741 24.0178 32.5741ZM21.9903 32.496C21.9903 33.0428 21.9903 33.5114 21.9903 34.0583C22.3022 34.0583 22.6142 34.0583 23.0041 34.0583C23.0041 33.5114 23.0041 33.0428 23.0041 32.496C22.6921 32.496 22.3802 32.496 21.9903 32.496Z" fill="white"/>
<path d="M27.6833 35.9332C27.6053 35.6207 27.6053 35.3864 27.5273 35.0739C29.7888 34.6833 31.9723 33.9803 33.8438 32.7305C33.9218 32.7305 33.9218 32.8086 33.9997 32.8086C34.5456 33.4335 34.4676 33.5116 33.7658 33.9022C31.9722 34.9958 30.0227 35.5426 27.9952 36.0113C27.9952 36.0113 27.8393 35.9332 27.6833 35.9332Z" fill="white"/>
<path d="M10.5273 33.4335C10.6833 33.1211 10.9173 32.9648 11.0732 32.7305C11.775 33.121 12.4769 33.5898 13.2567 33.8241C14.4264 34.2147 15.5961 34.6052 16.7658 34.9177C17.5456 35.152 17.5456 35.0739 17.3896 36.0113C14.8943 35.6207 12.5548 34.8396 10.5273 33.4335Z" fill="white"/>
<path d="M11.4629 23.6685C11.3069 23.4342 11.1509 23.1999 10.917 22.8874C12.6326 21.6376 14.5821 21.0126 16.6876 20.5439C16.7655 20.7002 16.7656 20.8564 16.8435 20.9345C16.8435 21.0908 16.9215 21.247 16.9215 21.4032C15.05 21.8719 13.1784 22.4968 11.4629 23.6685Z" fill="white"/>
<path d="M28.6191 21.4813C28.6971 21.1689 28.7751 20.8564 28.7751 20.5439C30.8026 21.0126 32.7521 21.6376 34.4677 22.8874C34.3897 23.0436 34.3117 23.1999 34.2338 23.278C34.1558 23.4342 34.0778 23.5123 33.9218 23.6685C32.3622 22.5749 30.4907 21.95 28.6191 21.4813Z" fill="white"/>
<path d="M27.8387 10.8582C27.6827 10.702 27.4488 10.4676 27.2148 10.2333C27.6047 9.92083 27.9167 9.60836 28.3066 9.2959C28.4625 9.45213 28.6185 9.60837 28.8524 9.92083C28.6185 10.1552 28.3066 10.4676 27.8387 10.8582Z" fill="white"/>
<path d="M15.2836 15.1543C15.2836 15.4668 15.2836 15.7792 15.2836 16.0917C14.8157 16.0917 14.3478 16.0917 13.8799 16.0917C13.8799 15.7792 13.8799 15.5449 13.8799 15.1543C14.3478 15.1543 14.8157 15.1543 15.2836 15.1543Z" fill="white"/>
<path d="M22.0684 6.95215C22.3803 6.95215 22.6922 6.95215 23.0041 6.95215C23.0041 7.42084 23.0041 7.88954 23.0041 8.35823C22.6922 8.35823 22.3803 8.35823 22.0684 8.35823C22.0684 7.88954 22.0684 7.42084 22.0684 6.95215Z" fill="white"/>
<path d="M31.1136 15.1543C31.1136 15.4668 31.1136 15.7011 31.1136 16.0136C30.6457 16.0136 30.1778 16.0136 29.71 16.0136C29.71 15.7011 29.71 15.4668 29.71 15.1543C30.1778 15.1543 30.6457 15.1543 31.1136 15.1543Z" fill="white"/>
<path d="M17.0774 10.8582C16.7654 10.4676 16.4535 10.1551 16.1416 9.76456C16.2976 9.60833 16.5315 9.45212 16.7654 9.21777C17.0774 9.53023 17.3113 9.9208 17.7012 10.3114C17.5453 10.3895 17.3113 10.6238 17.0774 10.8582Z" fill="white"/>
<path d="M22.5364 19.6845C20.275 19.6845 18.4814 17.8878 18.4814 15.6225C18.4814 13.3572 20.275 11.5605 22.4584 11.5605C24.7979 11.5605 26.5914 13.2791 26.5914 15.6225C26.5914 17.8097 24.7979 19.6845 22.5364 19.6845ZM19.4172 15.6225C19.4172 17.2629 20.8209 18.7471 22.5364 18.7471C24.174 18.7471 25.6557 17.341 25.6557 15.7006C25.6557 13.9821 24.252 12.4979 22.6144 12.4979C20.8209 12.4979 19.4172 13.904 19.4172 15.6225Z" fill="white"/>
<path d="M21.1324 16.9508C21.3663 16.404 21.1324 16.0134 20.6645 15.6228C20.3526 15.3103 20.5865 14.8416 21.0544 14.8416C21.6003 14.8416 21.9122 14.6073 22.0681 14.0605C22.1461 13.9043 22.3801 13.6699 22.536 13.6699C22.692 13.6699 23.0039 13.9043 23.0039 14.0605C23.1599 14.5292 23.4718 14.8416 24.0177 14.8416C24.1736 14.8416 24.4076 14.9979 24.4855 15.1541C24.5635 15.3103 24.4076 15.6228 24.3296 15.7009C23.9397 16.0134 23.7837 16.3258 23.9397 16.8726C24.0177 17.107 23.9397 17.4194 23.7837 17.4976C23.6278 17.5757 23.2379 17.5757 23.0819 17.4195C22.692 17.107 22.3801 17.2632 21.9902 17.4976C21.4443 17.81 21.1324 17.5757 21.1324 16.9508ZM22.2241 16.1696C22.3801 16.1696 22.536 16.1696 22.77 16.1696C22.848 16.0134 22.8479 15.8571 22.9259 15.5447C22.614 15.5447 22.3801 15.5447 22.0681 15.5447C22.1461 15.779 22.2241 15.9353 22.2241 16.1696Z" fill="white"/>
</svg>
