<svg width="46" height="46" viewBox="0 0 46 46" fill="none" xmlns="http://www.w3.org/2000/svg">
<path d="M4.75683 45.3067H40.472C43.0454 45.3067 45.2289 43.1976 45.2289 40.5417V4.765C45.2289 2.1872 43.1234 0 40.472 0H4.75683C2.18347 0 0 2.10909 0 4.765V40.5417C0 43.1976 2.10549 45.3067 4.75683 45.3067Z" fill="#EE4823"/>
<path d="M14.8948 30.4652C13.959 28.8248 13.0232 27.1843 12.0874 25.5439C11.3076 25.8564 10.5278 25.8564 9.74802 25.5439C9.12418 25.3096 8.6563 24.919 8.34438 24.3722C7.64255 23.2786 7.72052 21.8725 8.50033 20.857C9.20215 19.8415 10.6058 19.2947 12.1654 19.8415C13.1012 18.2011 14.037 16.5607 14.9727 14.9203C14.8948 14.8422 14.7388 14.764 14.6608 14.6078C13.725 13.6704 13.4911 12.2644 14.037 11.0926C14.5828 9.92091 15.9085 9.21792 17.1562 9.37415C18.4819 9.53038 19.5736 10.5458 19.8075 11.8738C19.8075 12.03 19.8855 12.1082 20.0415 12.1082C21.7571 12.1082 23.5506 12.1082 25.2662 12.1082C25.4222 12.1082 25.5002 12.1081 25.5002 11.8738C25.8121 10.3896 27.0598 9.37415 28.5414 9.37415C29.7891 9.37415 30.8808 10.1553 31.3487 11.327C31.8166 12.4987 31.4267 13.8267 30.4909 14.686C30.4129 14.7641 30.4129 14.7641 30.3349 14.8422C31.2707 16.4826 32.2065 18.123 33.1423 19.7634C34.7019 19.2947 36.0276 19.6072 36.9633 21.0133C37.6652 22.0287 37.5872 23.4348 36.8853 24.3722C36.4954 24.919 35.9496 25.3096 35.2477 25.5439C34.5459 25.7001 33.922 25.7002 33.2202 25.3877C32.2845 27.0281 31.3487 28.6685 30.4129 30.2308C30.6469 30.4652 30.8808 30.6995 31.0368 30.9339C31.7386 31.9494 31.8166 33.2773 31.1148 34.3709C30.413 35.3864 29.1652 35.9332 27.9955 35.6989C26.7478 35.4645 25.8121 34.5272 25.5781 33.2773C25.5781 33.1211 25.5001 33.043 25.3442 33.043C23.6286 33.043 21.835 33.043 20.1195 33.043C19.9635 33.043 19.8855 33.043 19.8855 33.1992C19.4176 35.5427 16.6883 36.48 14.8948 34.9177C13.4911 33.746 13.4911 31.4807 14.9727 30.309C14.8168 30.5433 14.8168 30.4652 14.8948 30.4652ZM25.4222 32.4962C25.4222 32.4181 25.4222 32.3399 25.4222 32.3399C25.8121 30.4652 27.6836 29.3716 29.4772 29.9965C29.6331 30.0746 29.6331 29.9965 29.7111 29.9184C30.335 28.8248 30.9588 27.8092 31.5826 26.7156C31.8946 26.1688 32.2065 25.7001 32.5184 25.1533C30.8808 23.9816 30.8808 21.4819 32.5184 20.2321V20.154C31.5827 18.5917 30.7249 17.0294 29.7891 15.389C29.7111 15.3108 29.7111 15.3109 29.6331 15.3109C27.7616 15.9358 25.89 14.9203 25.5781 12.9674C25.5781 12.8112 25.5001 12.8112 25.3442 12.8112C23.5506 12.8112 21.8351 12.8112 20.0415 12.8112C19.8855 12.8112 19.8075 12.8893 19.8075 13.0455C19.4956 14.9203 17.5461 16.0139 15.8305 15.389C15.6746 15.3108 15.5966 15.389 15.5186 15.4671C14.8168 16.7169 14.037 17.9668 13.3351 19.2166C13.1792 19.5291 12.9452 19.8415 12.7893 20.154L12.8673 20.2321C14.3489 21.4819 14.3489 23.6692 12.8673 24.9971C12.7893 25.0753 12.7893 25.1534 12.8673 25.2315C13.725 26.7938 14.6608 28.2779 15.5186 29.8402C15.5966 29.9965 15.6746 29.9965 15.7526 29.9184C17.1562 29.3716 18.7158 29.9965 19.4956 31.3244C19.6516 31.6369 19.8075 32.0275 19.8855 32.4181C21.6011 32.4962 23.4726 32.4962 25.4222 32.4962ZM16.6883 35.2302C17.936 35.2302 19.0277 34.2147 19.0277 32.8867C19.0277 31.6369 17.936 30.5433 16.6883 30.5433C15.4406 30.5433 14.3489 31.5588 14.3489 32.8867C14.4269 34.1366 15.4406 35.2302 16.6883 35.2302ZM28.4634 35.2302C29.7111 35.2302 30.8028 34.2147 30.8028 32.8867C30.8028 31.6369 29.7891 30.5433 28.4634 30.5433C27.2157 30.5433 26.124 31.5588 26.124 32.8867C26.124 34.1366 27.1377 35.2302 28.4634 35.2302ZM28.4634 10.1553C27.2157 10.1553 26.124 11.1708 26.124 12.4206C26.124 13.6704 27.1377 14.7641 28.3854 14.7641C29.6331 14.7641 30.7249 13.7486 30.7249 12.4987C30.8029 11.2489 29.7111 10.2334 28.4634 10.1553ZM10.8397 24.9971C12.0874 24.9971 13.1792 23.9817 13.1792 22.6537C13.1792 21.3257 12.1654 20.3102 10.8397 20.3102C9.59206 20.3102 8.50033 21.3257 8.50033 22.6537C8.50033 23.9817 9.59206 24.9971 10.8397 24.9971ZM16.6883 10.1553C15.4406 10.1553 14.3489 11.1708 14.3489 12.4987C14.3489 13.7486 15.3626 14.8422 16.6883 14.8422C17.936 14.8422 19.0277 13.8267 19.0277 12.4987C19.0277 11.2489 18.014 10.1553 16.6883 10.1553ZM34.312 24.9971C35.5597 24.9971 36.6514 23.9817 36.6514 22.6537C36.6514 21.3257 35.6376 20.3102 34.312 20.3102C33.0643 20.3102 31.9725 21.4039 31.9725 22.6537C31.9725 23.9817 33.0643 24.9971 34.312 24.9971Z" fill="white"/>
<path d="M26.0457 19.2166C26.0457 19.1385 25.9677 19.0604 25.9677 18.9823C25.9677 18.8261 26.0457 18.6698 26.2017 18.5917C26.6695 18.3574 27.2154 18.123 27.6833 17.8887C27.9952 17.7324 28.1512 17.8105 28.3071 18.123C28.853 19.2166 29.3988 20.3884 29.8667 21.482C30.0227 21.7944 30.1007 22.0288 30.2566 22.3412C30.4126 22.5756 30.3346 22.8099 30.0227 22.888C29.5548 23.1224 29.0869 23.3567 28.5411 23.591C28.2292 23.7473 28.0732 23.6692 27.9172 23.4349C27.9172 23.4349 27.9172 23.4348 27.8393 23.3567C27.5273 23.5129 27.2934 23.7473 27.1374 24.0598C27.1374 24.0598 27.1374 24.1379 27.2154 24.216C27.4493 24.5285 27.5273 24.8409 27.3714 25.2315C27.2154 25.6221 26.9035 25.7783 26.5916 25.7783C26.4356 25.7783 26.2796 25.7783 26.1237 25.7002C25.8897 26.1689 25.4998 26.4032 24.954 26.3251C24.876 26.4032 24.876 26.4813 24.798 26.5595C24.564 26.8719 24.3301 27.0281 23.9402 27.0281C23.8622 27.0281 23.7842 27.0281 23.7842 27.1062C23.4723 27.5749 22.9264 27.7312 22.4586 27.4187C22.3806 27.3406 22.3026 27.3406 22.2246 27.2625C22.1466 27.3406 22.0687 27.4187 21.9907 27.4187C21.6008 27.653 21.1329 27.653 20.743 27.2625C20.665 27.1843 20.587 27.1844 20.509 27.1844C20.1191 27.3406 19.8072 27.1844 19.4953 26.95C19.4173 26.8719 19.3393 26.8719 19.2614 26.8719C18.6375 27.0281 18.0137 26.6376 18.0137 26.0126C18.0137 25.9345 18.0137 25.8564 17.9357 25.8564C17.3118 25.6221 17.0779 25.0753 17.3118 24.4503C17.3118 24.3722 17.3898 24.3722 17.3898 24.2941C17.3118 24.216 17.1559 24.1379 16.9999 24.216C16.9219 24.2941 16.766 24.2941 16.688 24.216C16.1421 23.9817 15.6742 23.6692 15.1284 23.4349C14.8944 23.3567 14.8944 23.1224 14.9724 22.888C15.3623 22.1069 15.7522 21.4038 16.0642 20.6227C16.3761 19.9978 16.688 19.3729 16.9999 18.748C17.1559 18.4355 17.3118 18.4355 17.6238 18.5136C18.0917 18.7479 18.6375 18.9823 19.1054 19.2166C19.2614 19.2947 19.3393 19.451 19.3393 19.6853C19.3393 19.6853 19.4173 19.7634 19.4173 19.8415C19.6513 19.9197 19.8852 19.9197 20.1191 19.9197C20.1191 19.9197 20.1971 19.9197 20.1971 19.8415C20.509 19.0604 21.2109 18.7479 21.9907 18.6698C22.6925 18.5917 23.4723 18.7479 24.1741 18.8261C24.72 18.9042 25.1879 18.9823 25.7338 19.0604C25.8117 19.2166 25.8897 19.2166 26.0457 19.2166ZM21.8347 21.6382C21.7567 21.7163 21.6788 21.7944 21.6008 21.8726C20.9769 22.6537 20.1971 22.8099 19.3393 22.4193C19.0274 22.2631 18.9494 22.0288 19.1834 21.7944C19.4173 21.482 19.5733 21.1695 19.8072 20.857L19.8852 20.7789C19.5733 20.7008 19.3393 20.6227 19.0274 20.5446C18.5595 21.5601 18.0137 22.5756 17.5458 23.513C17.7797 23.7473 17.7797 23.7473 18.0137 23.591C18.0917 23.591 18.0916 23.513 18.1696 23.513C18.5595 23.3567 18.8715 23.5129 19.1834 23.7473H19.2614C19.8072 23.3567 20.587 23.5911 20.821 24.216C20.821 24.2941 20.8989 24.2941 20.9769 24.2941C21.3668 24.3722 21.6008 24.6066 21.7567 24.919C21.7567 24.9971 21.7567 24.9971 21.8347 25.0753C22.2246 25.0753 22.4586 25.2315 22.6925 25.5439C22.8485 25.8564 22.8485 26.1689 22.6925 26.4813C22.8485 26.5594 22.9265 26.6375 23.0824 26.7156C23.2384 26.7938 23.3164 26.7157 23.3943 26.5595C23.4723 26.4032 23.3163 26.4813 23.2384 26.4032C23.2384 26.4032 23.2384 26.4032 23.1604 26.4032C22.9265 26.247 22.8485 26.0907 23.0044 25.8564C23.0824 25.7002 23.3164 25.6221 23.5503 25.7783C23.7063 25.8564 23.8622 26.0126 24.0962 26.0907C24.2521 26.1689 24.3301 26.1689 24.4081 26.0126C24.4861 25.9345 24.4081 25.7783 24.3301 25.7002C24.2521 25.622 24.1741 25.622 24.0962 25.5439C23.8622 25.3877 23.7843 25.1534 23.9402 24.9972C24.0182 24.8409 24.2521 24.7628 24.4861 24.919C24.72 25.0752 25.0319 25.2315 25.2659 25.3877C25.4218 25.4658 25.5778 25.4658 25.6558 25.3096C25.7338 25.1534 25.6558 25.0752 25.4998 24.919C25.4218 24.8409 25.2659 24.7628 25.1099 24.6847C24.876 24.5284 24.798 24.3722 24.954 24.1379C25.0319 23.9816 25.2659 23.9035 25.4998 24.0598C25.8118 24.2941 26.1237 24.4503 26.5136 24.6847C26.7475 24.8409 26.8255 24.8409 26.9815 24.6847C27.0594 24.5284 26.9815 24.4503 26.8255 24.2941C25.7338 23.5911 24.5641 22.9662 23.4723 22.2631C22.6925 22.185 22.3026 21.8725 21.8347 21.6382ZM19.9632 21.8726C20.1971 21.9507 20.5091 21.9507 20.743 21.7163C20.899 21.5601 21.1329 21.3257 21.2109 21.1695C21.5228 20.6227 21.6788 20.7008 22.0687 20.9352C22.6145 21.2476 23.0824 21.5601 23.6283 21.7944C24.0962 22.0288 24.4081 21.9507 24.72 21.482C24.876 21.3258 25.0319 21.3257 25.1879 21.4038C25.3438 21.482 25.4218 21.7163 25.2659 21.8726C25.1099 22.0288 24.9539 22.185 24.798 22.3412C24.798 22.3412 24.72 22.4193 24.642 22.4193C25.2659 22.8099 25.8117 23.1224 26.3576 23.4349C26.5915 22.9662 26.9815 22.6537 27.3714 22.4193C27.3714 22.3412 27.3714 22.3412 27.3714 22.3412C26.9815 21.5601 26.5916 20.7008 26.2017 19.9197C26.2017 19.8416 26.1237 19.8415 26.0457 19.8415C25.7338 19.8415 25.4218 19.8416 25.1099 19.7634C24.3301 19.6853 23.4723 19.5291 22.6925 19.3729C22.2246 19.2948 21.7567 19.2947 21.3668 19.451C21.0549 19.5291 20.743 19.7634 20.665 20.154C20.587 20.4665 20.4311 20.7789 20.1971 21.0914C20.2751 21.4039 20.1192 21.6382 19.9632 21.8726ZM26.8255 19.1385C27.4493 20.3884 27.9952 21.5601 28.5411 22.8099C28.853 22.6537 29.1649 22.4975 29.4768 22.3412C28.931 21.0914 28.3071 19.9197 27.7613 18.6698C27.3714 18.826 27.1374 18.9823 26.8255 19.1385ZM17.5458 19.3729C16.9219 20.6227 16.3761 21.7944 15.7522 22.9661C16.0642 23.1224 16.3761 23.2786 16.688 23.4349C17.3118 22.185 17.8577 21.0133 18.4816 19.8415C18.0917 19.6853 17.8577 19.5291 17.5458 19.3729ZM19.8852 24.4503C19.8072 24.3722 19.7293 24.2941 19.6513 24.2941C19.4953 24.216 19.4173 24.2941 19.3393 24.4503C19.1054 24.919 18.8714 25.4658 18.5595 25.9345C18.4815 26.0126 18.5595 26.1689 18.6375 26.247C18.7935 26.3251 18.9494 26.3251 19.0274 26.1689C19.2614 25.7002 19.4953 25.2315 19.7292 24.7628C19.8852 24.6065 19.8852 24.6066 19.8852 24.4503ZM20.8989 25.3096C20.821 25.2315 20.821 25.1533 20.743 25.1533C20.587 25.0752 20.5091 25.1534 20.4311 25.3096C20.2751 25.622 20.1192 25.9345 19.9632 26.247C19.8852 26.4032 19.8852 26.5594 20.0412 26.6376C20.1971 26.7157 20.2751 26.6375 20.3531 26.4813C20.5091 26.1689 20.665 25.8564 20.821 25.5439C20.821 25.4658 20.821 25.3877 20.8989 25.3096ZM21.8347 26.0907C21.7567 26.0126 21.7567 25.9345 21.6788 25.9345C21.6008 25.9345 21.4448 25.9345 21.4448 26.0126C21.2889 26.1689 21.2109 26.4032 21.1329 26.5595C21.0549 26.6376 21.1329 26.7938 21.2888 26.8719C21.4448 26.95 21.5228 26.8719 21.6008 26.7938C21.6788 26.6376 21.7567 26.4813 21.8347 26.3251C21.7567 26.247 21.8347 26.1689 21.8347 26.0907ZM18.5595 24.4503C18.4815 24.3722 18.4816 24.2941 18.4036 24.2941C18.3256 24.216 18.1696 24.2941 18.1696 24.3722C18.0916 24.5284 18.0137 24.6847 17.9357 24.8409C17.8577 24.9971 17.9357 25.0752 18.0137 25.1533C18.0917 25.2315 18.2476 25.1534 18.3256 25.0753C18.4036 24.919 18.4815 24.7628 18.5595 24.6066C18.5595 24.5285 18.5595 24.5285 18.5595 24.4503Z" fill="white"/>
</svg>
