<svg width="46" height="46" viewBox="0 0 46 46" fill="none" xmlns="http://www.w3.org/2000/svg">
<path d="M4.75683 45.3067H40.472C43.0454 45.3067 45.2289 43.1976 45.2289 40.5417V4.765C45.2289 2.1872 43.1234 0 40.472 0H4.75683C2.18346 0 0 2.10909 0 4.765V40.5417C0 43.1976 2.10548 45.3067 4.75683 45.3067Z" fill="#EE4823"/>
<path d="M14.6599 24.2935C14.8939 23.5123 15.1278 22.8874 15.5177 22.2625C17.0774 19.7628 19.2608 18.4349 22.2241 18.3568C23.5498 18.2786 24.7974 18.4349 25.9672 18.9817C28.2286 19.9972 29.7102 21.7157 30.4121 24.0591C30.4121 24.1373 30.4121 24.1372 30.49 24.2935C30.568 24.2154 30.568 24.1373 30.646 24.0591C30.9579 23.3561 31.2699 22.7312 31.6598 22.0281C31.7377 21.95 31.7377 21.7938 31.8157 21.7157C32.1276 21.4032 32.5955 21.4814 32.7515 21.8719C33.1414 22.6531 33.5313 23.4342 33.9212 24.1372C34.0772 24.5278 34.3111 24.9184 34.4671 25.309C34.5451 25.3871 34.623 25.4652 34.701 25.4652C35.9487 25.6214 37.1964 25.8558 38.4441 26.012C38.678 26.012 38.912 26.1682 38.99 26.4026C39.0679 26.715 38.99 26.8712 38.756 27.1056C37.8982 27.9649 36.9625 28.8242 36.1047 29.6834C35.9487 29.8397 35.9487 29.9178 35.9487 30.074C36.1826 31.3238 36.3386 32.4955 36.5726 33.7454C36.6505 33.9797 36.5725 34.2141 36.3386 34.3703C36.1047 34.5266 35.8707 34.5266 35.6368 34.3703C34.5451 33.7454 33.3753 33.1986 32.2836 32.5736C32.1276 32.4955 32.0497 32.4955 31.9717 32.5736C30.88 33.1986 29.7882 33.7454 28.6185 34.2922C28.3846 34.4484 28.1506 34.4484 27.9167 34.2922C27.6827 34.136 27.6048 33.9016 27.6827 33.5892C27.7607 33.1205 27.8387 32.6518 27.9167 32.105C27.9167 32.0269 27.9167 32.0269 27.9167 31.8706C27.6048 32.105 27.3708 32.4174 27.1369 32.6518C26.9809 32.808 26.669 32.9643 26.591 33.1986C26.513 33.4329 26.669 33.7454 26.669 33.9798C26.9029 35.1515 27.0589 36.4013 27.2928 37.573C27.3708 37.8855 27.2928 38.1198 27.0589 38.2761C26.825 38.4323 26.591 38.4323 26.3571 38.2761C25.1094 37.6512 23.8617 36.9481 22.614 36.3232C22.536 36.2451 22.38 36.2451 22.3021 36.3232C21.0544 36.9481 19.8847 37.573 18.637 38.2761C18.559 38.3542 18.481 38.3542 18.403 38.4323C17.9351 38.5885 17.5452 38.198 17.6232 37.7293C17.7012 37.1043 17.8572 36.4794 17.9351 35.8545C18.0911 35.0733 18.1691 34.2922 18.325 33.511C18.325 33.4329 18.325 33.3548 18.325 33.2767C17.9351 32.8861 17.4673 32.4956 17.0774 32.0269C17.0774 32.1831 17.0774 32.1831 17.0774 32.2612C17.1553 32.7299 17.2333 33.1986 17.3113 33.7454C17.3893 33.9797 17.3113 34.2141 17.0774 34.3703C16.8434 34.5266 16.6095 34.5266 16.3755 34.3703C15.2838 33.7454 14.1141 33.1986 13.0224 32.5736C12.8664 32.4955 12.7884 32.4955 12.6324 32.5736C11.5407 33.1986 10.371 33.7454 9.27927 34.3703C8.88937 34.6047 8.42149 34.3703 8.3435 33.9798C8.3435 33.9016 8.3435 33.8235 8.3435 33.7454C8.57745 32.4955 8.73341 31.2457 8.96735 29.9959C8.96735 29.8396 8.96735 29.7615 8.88937 29.6834C8.03158 28.8242 7.17379 28.043 6.316 27.1837C6.23802 27.1056 6.16004 27.0275 6.08206 26.9494C5.9261 26.7932 5.84812 26.5588 5.9261 26.3244C6.00408 26.0901 6.16004 25.9339 6.39398 25.9339C7.09581 25.8558 7.71966 25.7777 8.42149 25.6214C9.04533 25.5433 9.5912 25.4652 10.215 25.3871C10.371 25.3871 10.449 25.3089 10.449 25.1527C10.9949 24.0591 11.5407 22.8874 12.0866 21.7938C12.2425 21.5594 12.3985 21.4032 12.7104 21.4032C13.0224 21.4032 13.1783 21.5594 13.2563 21.7938C13.5682 22.4968 13.9581 23.1218 14.27 23.8248C14.582 24.0591 14.6599 24.1372 14.6599 24.2935ZM17.7792 28.9804C17.8572 28.9804 17.8572 28.9804 17.9351 28.9804C18.559 28.9023 19.1828 28.8242 19.8067 28.746C19.9626 28.746 20.1186 28.6679 20.1966 28.4336C20.8204 27.1837 21.4443 25.9339 22.0681 24.684C22.1461 24.5278 22.2241 24.3716 22.38 24.2935C22.692 24.1372 23.0039 24.2154 23.2378 24.606C23.8617 25.8558 24.4075 27.0275 25.0314 28.2773C25.1874 28.5898 25.3433 28.746 25.6552 28.746C25.8112 28.746 25.8892 28.746 26.0451 28.8241C26.513 28.9022 26.9809 28.9804 27.5268 29.0585C27.4488 28.9804 27.3708 28.9022 27.2928 28.8241C26.747 28.2773 26.2011 27.8086 25.6552 27.2618C25.4993 27.1056 25.3433 26.8713 25.4213 26.6369C25.4993 26.4026 25.7332 26.2463 25.9672 26.2463C26.9029 26.0901 27.8387 26.012 28.7745 25.8558C29.0084 25.8558 29.2424 25.7777 29.3983 25.7777V25.6995V25.6214C29.0864 23.1999 27.7607 21.4813 25.6552 20.3877C24.5635 19.8409 23.4718 19.7628 22.3021 19.7628C19.1049 19.7628 16.3755 22.1063 15.8297 25.2309C15.8297 25.4652 15.7517 25.6214 15.7517 25.8558C15.8297 25.8558 15.9076 25.8558 15.9076 25.8558C16.9994 26.012 18.0911 26.1682 19.1828 26.3244C19.4948 26.4026 19.6507 26.4807 19.7287 26.7932C19.8067 27.0275 19.7287 27.2618 19.4948 27.4962C18.9489 28.043 18.403 28.5898 17.8572 29.0585C17.8572 28.8241 17.8572 28.9023 17.7792 28.9804ZM26.0451 36.9481C26.0451 36.87 26.0451 36.87 26.0451 36.7919C25.8892 35.6983 25.6552 34.6046 25.4993 33.511C25.4213 33.1986 25.4993 32.9642 25.7332 32.7299C26.513 31.9487 27.2928 31.2457 28.0726 30.4646C28.1506 30.4646 28.1506 30.3865 28.2286 30.3083C28.1506 30.3083 28.0726 30.3083 28.0726 30.3083C26.9809 30.1521 25.9672 29.9958 24.8754 29.8396C24.5635 29.7615 24.3296 29.6834 24.1736 29.3709C23.7837 28.5898 23.4718 27.8868 23.0819 27.1837C22.9259 26.8713 22.7699 26.6369 22.614 26.3244C22.536 26.4026 22.536 26.4807 22.536 26.5588C22.0681 27.4962 21.6002 28.5117 21.1324 29.449C20.9764 29.6834 20.8204 29.8396 20.5085 29.9178C19.7287 29.9959 18.9489 30.1521 18.1691 30.2302C17.7792 30.3083 17.4673 30.3083 17.0774 30.3864C17.0774 30.3864 17.0774 30.4646 16.9994 30.4646C17.0774 30.4646 17.1553 30.5427 17.1553 30.5427C17.9351 31.3238 18.7149 32.105 19.4948 32.808C19.6507 32.9643 19.7287 33.1986 19.7287 33.4329C19.5727 34.2141 19.4168 35.0733 19.3388 35.8545C19.2608 36.1669 19.2608 36.5575 19.1828 36.9481C19.2608 36.87 19.3388 36.87 19.4168 36.7919C20.3525 36.3232 21.2883 35.7764 22.2241 35.3077C22.458 35.1514 22.7699 35.1514 23.0039 35.3077C23.7837 35.6982 24.5635 36.0888 25.2653 36.5575C25.4993 36.6357 25.7332 36.7919 26.0451 36.9481ZM32.2056 23.5123C32.1276 23.5904 32.1276 23.6686 32.1276 23.6686C31.7377 24.5278 31.2699 25.309 30.88 26.1683C30.724 26.4807 30.568 26.6369 30.2561 26.6369C29.5543 26.715 28.8524 26.7932 28.1506 26.9494C27.8387 27.0275 27.6048 27.0275 27.2928 27.1056C27.2928 27.1056 27.2928 27.1056 27.2928 27.1837C27.3708 27.2619 27.3708 27.2619 27.4488 27.34C28.0726 27.9649 28.6965 28.5898 29.3203 29.1366C29.3983 29.2147 29.5543 29.2928 29.6323 29.2928C30.1001 29.4491 30.2561 29.9178 29.9442 30.3083C29.8662 30.3865 29.7882 30.4646 29.7102 30.5427C29.6323 30.6208 29.5543 30.777 29.5543 30.9332C29.4763 31.3238 29.3983 31.7144 29.3203 32.105C29.2424 32.3393 29.2424 32.6518 29.1644 32.8861C29.2424 32.8861 29.3203 32.808 29.3203 32.808C30.1781 32.3393 30.9579 31.9488 31.8157 31.4801C32.0497 31.3238 32.2836 31.3238 32.5955 31.4801C33.4533 31.9488 34.2331 32.3393 35.0909 32.808C35.1689 32.808 35.1689 32.8861 35.2469 32.8861C35.2469 32.808 35.2469 32.7299 35.2469 32.6518C35.0909 31.7925 34.935 30.8551 34.779 29.9959C34.701 29.6834 34.779 29.4491 35.0129 29.2147C35.6368 28.5898 36.3386 27.9649 36.9625 27.34C37.0404 27.2619 37.0404 27.2619 37.1184 27.1837C36.1047 27.0275 35.0909 26.8713 34.1551 26.7932C33.8432 26.715 33.6873 26.6369 33.5313 26.3244C33.2974 25.8558 33.0634 25.3871 32.8295 24.9965C32.6735 24.4497 32.4396 23.981 32.2056 23.5123ZM8.10956 27.1056C8.10956 27.1837 8.18754 27.2618 8.26552 27.2618C8.96735 27.8868 9.5912 28.5898 10.293 29.2147C10.527 29.4491 10.6049 29.6053 10.527 29.9178C10.449 30.3083 10.371 30.777 10.293 31.1676C10.215 31.7144 10.1371 32.3393 9.9811 32.8861C10.0591 32.808 10.1371 32.808 10.215 32.808C11.0728 32.3393 11.8526 31.9488 12.7104 31.4801C12.9444 31.3238 13.1783 31.3238 13.4123 31.4801C14.1921 31.9488 15.0499 32.3393 15.8297 32.7299C15.9076 32.7299 15.9856 32.808 16.0636 32.8861C15.9856 32.3393 15.8297 31.7925 15.8297 31.3238C15.7517 30.9332 15.6737 30.5427 15.2838 30.3083C15.1278 30.1521 15.0499 29.9178 15.1278 29.6834C15.2058 29.4491 15.3618 29.371 15.5957 29.2928C15.6737 29.2928 15.8297 29.2147 15.9076 29.1366C16.5315 28.5117 17.1553 27.8868 17.7792 27.2618C17.8572 27.1837 17.8572 27.1837 17.9351 27.1056C17.8572 27.1056 17.8572 27.1056 17.8572 27.1056C16.9214 26.9494 15.9856 26.7931 15.0499 26.715C14.7379 26.6369 14.504 26.5588 14.348 26.1683C13.9581 25.309 13.5682 24.5278 13.1783 23.7467C13.1783 23.6685 13.1003 23.5904 13.1003 23.5123C12.6324 24.3716 12.2425 25.2309 11.7747 26.1683C11.6187 26.4807 11.3848 26.6369 10.9949 26.715C9.9811 26.7931 9.04533 26.9494 8.10956 27.1056Z" fill="white"/>
<path d="M27.8391 12.1859C27.8391 15.0761 25.4997 17.4196 22.6144 17.4196C19.7291 17.4196 17.3896 15.0761 17.3896 12.1859C17.3896 9.29561 19.7291 6.95215 22.6144 6.95215C25.4997 6.95215 27.8391 9.29561 27.8391 12.1859ZM22.5364 8.12387C20.2749 8.12387 18.5594 9.99862 18.5594 12.264C18.5594 14.4512 20.4309 16.2479 22.6144 16.2479C24.7978 16.2479 26.5914 14.3731 26.5914 12.1859C26.5914 9.92053 24.7198 8.12387 22.5364 8.12387Z" fill="white"/>
</svg>
