<svg width="46" height="46" viewBox="0 0 46 46" fill="none" xmlns="http://www.w3.org/2000/svg">
<path d="M4.75683 45.3067H40.472C43.0454 45.3067 45.2289 43.1976 45.2289 40.5417V4.76502C45.2289 2.18722 43.1234 0 40.472 0H4.75683C2.18346 0 0 2.10911 0 4.76502V40.5417C0 43.1976 2.10548 45.3067 4.75683 45.3067Z" fill="#EE4823"/>
<path d="M8.96777 20.935C9.2797 20.3101 9.74758 19.9976 10.4494 20.0757C10.9953 20.0757 11.6191 20.232 12.009 19.9976C12.3209 19.7633 12.3989 19.1383 12.5549 18.6697C12.7888 18.0447 13.1008 17.4979 13.4907 16.7168C13.1008 16.4043 12.6329 16.0137 12.243 15.5451C11.6191 14.9201 11.6191 14.2952 12.243 13.6703C12.7109 13.2016 13.1787 12.7329 13.6466 12.2642C14.2705 11.7174 14.8943 11.7174 15.4402 12.2642C15.8301 12.5767 16.142 12.9673 16.4539 13.2797C16.6099 13.3578 16.9218 13.436 17.0778 13.3578C17.9356 13.0454 18.7934 12.6548 19.6511 12.2642C19.8071 12.1861 19.9631 11.9518 19.9631 11.7955C20.041 11.3269 19.9631 10.8582 19.9631 10.3114C19.9631 9.4521 20.4309 8.9834 21.2887 8.9834C21.9126 8.9834 22.6144 8.9834 23.2383 8.9834C24.096 8.9834 24.4859 9.37398 24.5639 10.2332C24.5639 10.7019 24.5639 11.1706 24.5639 11.6393C24.5639 11.9518 24.6419 12.108 25.0318 12.2642C25.8896 12.5767 26.6694 12.8891 27.4492 13.2797C27.7611 13.436 27.9171 13.4359 28.151 13.2016C28.463 12.811 28.8529 12.4986 29.2428 12.108C29.7886 11.6393 30.4125 11.6393 30.9584 12.108C31.5042 12.5767 31.9721 13.1235 32.44 13.5922C32.9859 14.139 32.9859 14.7639 32.44 15.3107C31.9721 15.7794 31.5042 16.17 31.1143 16.5606C31.5822 17.7323 32.0501 18.8259 32.518 19.9976C33.0638 19.9976 33.7657 19.9976 34.3895 19.9976C35.0913 19.9976 35.5592 20.5444 35.5592 21.1693C35.5592 21.3256 35.3253 21.5599 35.2473 21.7162C35.0913 21.5599 34.8574 21.4818 34.8574 21.3256C34.7794 20.935 34.5455 20.7788 34.1556 20.7788C33.5317 20.7788 32.9859 20.7788 32.362 20.7788C31.9721 20.7788 31.8161 20.6225 31.6602 20.232C31.2703 19.1383 30.8024 18.1229 30.3345 17.0293C30.1785 16.6387 30.1785 16.4043 30.4905 16.17C30.9584 15.7794 31.3483 15.3107 31.8161 14.9201C32.1281 14.6077 32.1281 14.3733 31.8161 14.139C31.3483 13.7484 30.9584 13.2797 30.5685 12.8891C30.2565 12.5767 30.0226 12.5767 29.7886 12.8891C29.3987 13.2797 28.9309 13.7484 28.5409 14.139C28.229 14.4515 27.9951 14.4515 27.5272 14.2952C26.5134 13.8265 25.4997 13.436 24.4859 13.0454C24.096 12.8892 23.9401 12.7329 23.9401 12.2642C23.9401 11.6393 23.9401 11.0144 23.9401 10.4676C23.9401 10.077 23.7841 9.92079 23.3942 9.92079C22.7704 9.92079 22.1465 9.92079 21.6007 9.92079C21.2108 9.92079 21.0548 10.077 21.0548 10.4676C21.0548 11.0925 21.0548 11.7174 21.0548 12.2642C21.0548 12.7329 20.8209 12.8892 20.4309 13.0454C19.4172 13.436 18.4034 13.8265 17.3897 14.2952C16.9998 14.4515 16.6879 14.4515 16.3759 14.139C15.986 13.7484 15.5182 13.2797 15.1283 12.8891C14.8943 12.5767 14.6604 12.5767 14.3484 12.8891C13.8806 13.3578 13.4907 13.7484 13.0228 14.2171C12.7109 14.4515 12.7888 14.6858 13.0228 14.9983C13.4127 15.3888 13.8806 15.8575 14.2705 16.2481C14.5824 16.5606 14.6604 16.873 14.4264 17.2636C13.9585 18.2791 13.5686 19.2165 13.1787 20.232C13.0228 20.7006 12.7888 20.8569 12.3209 20.8569C11.7751 20.8569 11.1512 20.8569 10.6054 20.8569C10.1375 20.8569 9.98152 21.0912 9.98152 21.5599C9.98152 22.1067 9.98152 22.6535 9.98152 23.2003C9.98152 23.669 10.1375 23.9034 10.6834 23.9034C11.3072 23.9034 11.8531 23.9034 12.4769 23.9034C12.8668 23.9034 13.0228 24.0596 13.1787 24.4502C13.5686 25.4657 14.0365 26.5593 14.5044 27.5748C14.6604 27.9654 14.6604 28.1997 14.3484 28.5121C13.9585 28.9027 13.5686 29.3714 13.1008 29.762C12.7109 30.0745 12.7888 30.3869 13.1008 30.6994C13.4907 31.09 13.8806 31.4805 14.2705 31.8711C14.5824 32.2617 14.8943 32.2617 15.2062 31.8711C15.5961 31.4805 15.986 31.09 16.3759 30.6994C16.6879 30.3869 16.9998 30.3869 17.3897 30.5431C18.4034 31.0118 19.3392 31.4024 20.4309 31.793C20.8209 31.9492 21.0548 32.1836 21.0548 32.6523C21.0548 33.2772 21.0548 33.824 21.0548 34.4489C21.0548 34.8395 21.2108 34.9957 21.6007 34.9957C22.2245 34.9957 22.7704 34.9957 23.3942 34.9957C23.8621 34.9957 24.096 34.8395 24.0181 34.3708C24.0181 33.824 24.0181 33.1991 24.0181 32.6523C24.0181 32.1836 24.174 31.8711 24.6419 31.8711C25.4997 31.793 25.9676 31.4024 25.8896 30.465C25.8896 30.1526 25.9676 29.8401 26.0456 29.5277C21.6007 31.5586 17.6236 29.3714 15.986 26.7155C14.0365 23.669 14.5044 19.6852 16.9998 17.0293C19.4952 14.4515 23.5502 13.9828 26.5135 15.7794C29.2428 17.4198 31.5042 21.4037 29.5547 25.8562C30.1006 25.7781 30.7244 25.7781 31.2703 25.6219C31.4262 25.6219 31.5822 25.3094 31.5822 25.1532C31.9721 23.9034 31.9721 23.9034 33.2198 23.9034C33.4537 23.9034 33.7657 23.9034 33.9996 23.9034C34.4675 23.9034 34.8574 23.9034 34.8574 23.2785C34.8574 23.1222 35.0913 23.0441 35.2473 22.966C35.3253 23.1222 35.5592 23.2784 35.5592 23.4347C35.6372 24.0596 35.1693 24.6064 34.4675 24.6845C34.0776 24.6845 33.6877 24.6845 33.2978 24.6845C32.284 24.6845 32.284 24.6845 32.1281 25.7781C32.518 25.9344 32.9079 26.0906 33.2978 26.2468C34.9354 27.028 35.9491 28.3559 36.261 30.1526C36.261 30.2307 36.339 30.3088 36.339 30.3869C36.339 30.8556 36.339 31.2462 36.339 31.7149C36.339 31.793 36.261 31.8711 36.261 31.9492C36.0271 33.4334 35.2473 34.6832 33.9216 35.4644C33.3758 35.855 32.7519 36.0112 32.1281 36.2455C31.9721 36.3236 31.8161 36.0893 31.6602 36.0112C31.7382 35.855 31.8161 35.6206 31.9721 35.5425C32.0501 35.4644 32.206 35.4644 32.362 35.3863C34.2335 34.8395 35.6372 32.8866 35.6372 30.9337C35.6372 28.7465 34.0776 26.9498 31.9721 26.4812C29.9446 26.0125 27.7611 27.1061 26.9034 28.9808C25.9676 30.9337 26.5135 33.2772 28.229 34.6051C28.7749 34.9957 29.4767 35.23 30.1006 35.5425C30.2565 35.6206 30.4125 35.855 30.4905 36.0112C30.3345 36.0893 30.1006 36.2455 29.9446 36.3236C29.8666 36.3236 29.7886 36.3236 29.6327 36.2455C27.7611 35.6987 26.5135 34.527 25.8896 32.6523C25.8116 32.496 25.8116 32.3398 25.7336 32.1836C25.5777 32.2617 25.4217 32.2617 25.2658 32.3398C24.7199 32.4179 24.5639 32.6522 24.6419 33.199C24.7199 33.5896 24.6419 33.9802 24.6419 34.4489C24.5639 35.3082 24.174 35.6987 23.3942 35.6987C22.6924 35.6987 22.0685 35.6987 21.3667 35.6987C20.5089 35.6987 20.119 35.3082 20.041 34.4489C20.041 33.9802 20.041 33.5115 20.041 32.9647C20.041 32.8085 19.8071 32.5741 19.6511 32.496C19.2612 32.3398 18.7934 32.1836 18.3255 32.0273C17.7796 31.793 17.2337 31.2462 16.7659 31.4024C16.298 31.4805 15.9081 32.1836 15.4402 32.5741C14.8163 33.1209 14.2705 33.1209 13.6466 32.5741C13.1787 32.1054 12.6329 31.6368 12.165 31.09C11.6191 30.5432 11.6191 29.9182 12.165 29.2933C12.6329 28.8246 13.1008 28.434 13.4907 28.1216C13.1008 27.3404 12.7888 26.7155 12.5549 26.0906C12.3989 25.6219 12.3209 24.997 12.009 24.7626C11.6191 24.5283 10.9953 24.6845 10.5274 24.6845C9.82556 24.7626 9.2797 24.5283 8.96777 23.8252C8.96777 22.8098 8.96777 21.8724 8.96777 20.935ZM27.9951 26.1687C27.9171 26.0906 27.8391 26.0906 27.8391 26.0125C26.5135 25.3094 26.8254 25.0751 27.2153 24.1377C28.151 21.7161 27.0593 18.8259 24.7199 17.6542C22.6144 16.5606 20.275 16.873 18.6374 18.5134C16.9998 19.9976 16.5319 22.3411 17.4677 24.5283C17.7796 25.2313 17.7016 25.4657 17.0778 25.8562C16.8438 26.0125 16.6879 26.0906 16.4539 26.2468C19.1053 30.3088 24.9538 30.5431 27.9951 26.1687ZM24.8759 16.7949C24.9538 16.6387 25.1098 16.4043 25.3437 16.0137C24.408 15.7794 23.4722 15.5451 22.6144 15.3107C22.6144 15.7794 22.2245 16.2481 22.8484 16.3262C23.5502 16.4824 24.174 16.6387 24.8759 16.7949ZM21.6786 15.3107C20.8209 15.5451 19.8851 15.7794 18.9493 16.0919C19.1833 16.4824 19.3392 16.7168 19.4172 16.873C20.041 16.7168 20.5869 16.4824 21.1328 16.4043C21.8346 16.17 21.8346 16.2481 21.6786 15.3107ZM28.0731 18.4353C27.3712 17.7323 26.7474 17.1074 26.0456 16.4043C25.8116 16.7949 25.7336 17.0292 25.5777 17.2636C25.6557 17.2636 25.6557 17.1855 25.7336 17.1855C26.2795 17.7323 26.8254 18.2791 27.3712 18.904C27.5272 18.8259 27.6832 18.6697 28.0731 18.4353ZM15.8301 19.1383C15.5961 20.0757 15.3622 20.935 15.1283 21.8724C15.5961 21.8724 15.8301 21.8724 16.064 21.8724C16.298 21.0912 16.4539 20.3882 16.6879 19.607C16.4539 19.5289 16.22 19.3727 15.8301 19.1383ZM16.6099 25.0751C16.3759 24.2939 16.22 23.5128 15.986 22.8098C15.7521 22.8098 15.4402 22.8098 15.0503 22.8098C15.2842 23.7471 15.5182 24.6064 15.8301 25.5438C16.22 25.3094 16.4539 25.1532 16.6099 25.0751ZM18.2475 16.4043C17.5457 17.1074 16.9218 17.7323 16.22 18.4353C16.6099 18.6697 16.8438 18.7478 17.0778 18.904C17.0778 18.8259 16.9998 18.7478 16.9998 18.7478C17.5457 18.201 18.0915 17.6542 18.7154 17.0293C18.6374 17.0293 18.4814 16.7949 18.2475 16.4043ZM28.463 19.1383C28.0731 19.3727 27.8391 19.5289 27.6832 19.607C27.9171 20.3882 28.0731 21.1693 28.307 21.8724C28.541 21.8724 28.8529 21.8724 29.2428 21.8724C29.0088 20.935 28.7749 20.0757 28.463 19.1383ZM28.463 25.5438C28.6969 24.6064 28.9309 23.7471 29.1648 22.8098C28.7749 22.8098 28.463 22.8098 28.229 22.8098C27.9951 23.5909 27.8391 24.2939 27.6052 25.0751C27.9171 25.2313 28.151 25.3094 28.463 25.5438Z" fill="white"/>
<path d="M30.4125 30.7778C30.8803 30.3091 31.2702 29.8404 31.6601 29.3717C32.128 28.903 32.7519 28.903 33.1418 29.2936C33.5317 29.6842 33.5317 30.3091 33.0638 30.7778C32.44 31.4027 31.7381 32.1057 31.0363 32.7307C30.5684 33.1993 30.1005 33.1993 29.5547 32.7307C29.2427 32.4182 28.9308 32.1057 28.6189 31.7933C28.151 31.3246 28.073 30.7778 28.5409 30.3091C28.9308 29.8404 29.4767 29.9185 30.0225 30.3872C30.1005 30.4653 30.1785 30.5434 30.4125 30.7778ZM29.2427 30.7778C29.1648 30.7778 29.0868 30.8559 29.0868 30.8559C29.1648 31.0121 29.1648 31.1684 29.2427 31.2465C29.4767 31.4808 29.7886 31.7152 30.0225 32.0276C30.2565 32.262 30.4124 32.262 30.6464 32.0276C31.1923 31.4808 31.8161 30.8559 32.362 30.3091C32.44 30.231 32.5179 30.0748 32.5959 29.9185C32.5179 29.8404 32.5179 29.8404 32.4399 29.7623C32.284 29.8404 32.128 29.9185 31.9721 30.0747C31.6601 30.3872 31.2702 30.6997 30.9583 31.0121C30.2565 31.7152 30.2565 31.7152 29.5547 31.0121C29.4767 31.0121 29.3987 30.934 29.2427 30.7778Z" fill="white"/>
<path d="M20.8984 22.3407C20.8984 21.7157 21.4443 21.1689 22.0681 21.0908C22.692 21.0908 23.3158 21.5595 23.3158 22.1844C23.3158 22.575 23.5498 22.8093 23.8617 22.9656C24.4076 23.278 24.9534 23.6686 25.4993 23.9811C25.7332 24.1373 26.0452 24.2935 25.8112 24.606C25.7332 24.6841 25.3433 24.6841 25.1874 24.606C24.5635 24.2935 24.0177 23.903 23.4718 23.5905C23.1599 23.4343 22.9259 23.3562 22.614 23.5124C21.7562 23.8248 20.8984 23.1999 20.8984 22.3407ZM22.1461 22.9656C22.3801 22.6531 22.536 22.4969 22.536 22.3407C22.536 22.1844 22.2241 21.9501 22.1461 21.9501C21.9902 21.9501 21.7562 22.1844 21.6782 22.4188C21.6782 22.4969 21.9122 22.6531 22.1461 22.9656Z" fill="white"/>
</svg>
