<svg width="46" height="46" viewBox="0 0 46 46" fill="none" xmlns="http://www.w3.org/2000/svg">
<path d="M4.80015 45.562H40.8406C43.4374 45.562 45.6407 43.4409 45.6407 40.7701V4.79184C45.6407 2.19952 43.5161 0 40.8406 0H4.80015C2.20335 0 0 2.12097 0 4.79184V40.7701C0 43.3624 2.12465 45.562 4.80015 45.562Z" fill="#EE4823"/>
<path d="M17.0773 25.2167C17.0773 23.1742 17.0773 21.0533 17.0773 19.0109C16.0543 19.0109 15.11 19.0109 14.087 19.0109C14.087 18.6181 14.087 18.2253 14.087 17.8325C15.11 17.8325 16.0543 17.8325 17.0773 17.8325C17.0773 17.6754 17.0773 17.5968 17.0773 17.5183C17.0773 16.8113 17.0773 16.1043 17.156 15.3188C17.3134 14.2975 17.7068 13.4334 18.4937 12.7265C19.7528 11.5481 21.5627 11.6266 22.743 12.8835C23.6086 13.8262 24.0021 15.0045 24.0021 16.34C24.0021 16.8113 24.0021 17.3612 24.0021 17.8325C24.7103 17.8325 25.3398 17.8325 26.0481 17.8325C26.0481 17.754 26.0481 17.6754 26.0481 17.5968C26.0481 16.8898 26.0481 16.1043 26.1268 15.3973C26.2054 14.5332 26.5989 13.6691 27.2284 13.0406C28.5662 11.6267 30.4548 11.6267 31.7138 13.1192C32.5007 14.0619 32.8155 15.1616 32.8942 16.34C32.8942 16.8899 32.8942 17.3612 32.8942 17.9111C33.6024 17.9111 34.2319 17.9111 34.9401 17.9111C35.5697 17.9111 36.2779 17.9111 36.9074 17.9111C36.9074 18.3038 36.9074 18.6966 36.9074 19.0894C33.6811 19.0894 30.4548 19.0894 27.2284 19.0894C27.2284 21.2104 27.2284 23.2528 27.2284 25.3738C27.3071 25.3738 27.3071 25.3738 27.3071 25.3738C28.4088 24.9025 29.4318 24.981 30.3761 25.688C30.5334 25.7666 30.6121 25.8451 30.7695 25.9237C31.399 26.395 32.2646 26.395 32.8942 25.9237C33.2089 25.688 33.6024 25.4524 33.9172 25.2953C34.2319 25.1382 34.6254 25.1381 35.0188 25.0596C35.3336 25.0596 35.6484 25.2952 35.6484 25.6095C35.6484 25.9237 35.4123 26.2379 35.0975 26.2379C34.5467 26.2379 34.1532 26.4736 33.7598 26.7092C32.9729 27.3377 32.1073 27.4948 31.0843 27.3377C30.6121 27.2591 30.2187 27.0235 29.9039 26.7092C29.5105 26.395 29.0383 26.1594 28.4875 26.1594C28.1727 26.1594 27.858 26.2379 27.5432 26.4736C27.3858 26.6307 27.1497 26.7093 26.9924 26.8664C25.9694 27.4948 24.6316 27.4948 23.6873 26.8664C23.53 26.7878 23.4513 26.7092 23.2939 26.5521C22.507 26.0022 21.7201 26.0022 21.0118 26.5521C20.5397 26.8663 20.1462 27.1806 19.5167 27.2591C18.6511 27.4163 17.8642 27.2591 17.2347 26.7878C17.156 26.7092 16.9986 26.6307 16.9199 26.5521C16.2117 26.0022 15.2674 26.0022 14.5592 26.5521C14.1657 26.8663 13.6936 27.1806 13.2214 27.2591C12.3558 27.4163 11.4902 27.2591 10.782 26.7878C10.6246 26.6307 10.3886 26.4736 10.1525 26.395C9.91642 26.3165 9.60166 26.2379 9.28689 26.1594C8.81475 26.0808 8.57867 25.7666 8.73606 25.3738C8.81475 25.1381 9.05082 25.0596 9.28689 25.0596C9.91642 25.0596 10.4673 25.2167 10.9394 25.5309C11.0968 25.6095 11.1755 25.688 11.3329 25.8451C12.1198 26.395 12.9067 26.395 13.6149 25.8451C14.2444 25.2952 15.0313 24.981 15.8182 25.0596C16.2904 25.0596 16.6838 25.1381 17.0773 25.2167ZM31.7925 17.8325C31.7138 17.047 31.7138 16.2614 31.6351 15.4759C31.5564 14.7689 31.163 14.0619 30.6121 13.5905C29.9039 12.9621 28.9596 12.9621 28.2514 13.5905C27.7006 14.1404 27.3071 14.8474 27.2284 15.5544C27.1497 16.2614 27.1497 17.047 27.1497 17.7539C27.1497 17.7539 27.1497 17.754 27.1497 17.8325C28.7236 17.8325 30.2187 17.8325 31.7925 17.8325ZM22.8217 17.8325C22.8217 17.2041 22.8217 16.6542 22.8217 16.0257C22.743 15.0831 22.507 14.219 21.7988 13.5905C21.0905 12.8835 20.1462 12.8836 19.438 13.512C18.8085 14.0619 18.4937 14.7689 18.415 15.5544C18.3363 16.2614 18.3363 17.047 18.3363 17.7539C18.3363 17.7539 18.3363 17.754 18.3363 17.8325C19.7528 17.8325 21.3266 17.8325 22.8217 17.8325ZM18.2577 23.1743C20.8545 23.1743 23.4513 23.1743 26.0481 23.1743C26.0481 22.6244 26.0481 22.0745 26.0481 21.5246C23.4513 21.5246 20.8545 21.5246 18.2577 21.5246C18.2577 22.0745 18.2577 22.5458 18.2577 23.1743ZM26.0481 19.0109C23.4513 19.0109 20.8545 19.0109 18.2577 19.0109C18.2577 19.4822 18.2577 19.8749 18.2577 20.2677C20.8545 20.2677 23.4513 20.2677 26.0481 20.2677C26.0481 19.8749 26.0481 19.4036 26.0481 19.0109ZM18.2577 24.3526C18.2577 24.9025 18.2577 25.4523 18.2577 26.0022C18.2577 26.0808 18.3363 26.1594 18.415 26.1594C18.9659 26.3165 19.438 26.2379 19.9102 25.9237C20.1462 25.7666 20.3823 25.6094 20.6184 25.4523C21.5627 24.9025 22.5857 24.9025 23.53 25.3738C23.766 25.5309 24.0808 25.688 24.3169 25.9237C24.789 26.2379 25.3398 26.3164 25.8907 26.2379C26.0481 26.2379 26.0481 26.1593 26.0481 26.0022C26.0481 25.688 26.0481 25.3738 26.0481 24.981C26.0481 24.8239 26.0481 24.5882 26.0481 24.4311C23.4513 24.3526 20.8545 24.3526 18.2577 24.3526Z" fill="white"/>
<path d="M31.8701 30.4797C31.1619 30.4797 30.611 30.244 30.0602 29.8513C29.9028 29.7727 29.7454 29.6156 29.588 29.537C28.9585 29.1443 28.1716 29.1443 27.6208 29.537C27.4634 29.6941 27.2273 29.7727 27.0699 29.9298C26.0469 30.6368 24.7092 30.6368 23.6862 29.9298C23.5288 29.8512 23.4501 29.7727 23.2928 29.6156C22.5845 29.0657 21.7976 29.0657 21.0107 29.6156C20.5386 29.9298 20.1451 30.2441 19.5156 30.4012C18.65 30.5583 17.8631 30.4011 17.1549 29.9298C17.0762 29.8512 16.9975 29.7727 16.9188 29.7727C16.2106 29.1442 15.1876 29.1442 14.4007 29.7727C14.0072 30.0869 13.6138 30.3226 13.0629 30.4012C12.1973 30.5583 11.3317 30.4012 10.6235 29.8513C10.5448 29.7727 10.4661 29.6942 10.3875 29.6156C10.0727 29.3799 9.67923 29.2228 9.28578 29.2228C8.89232 29.2228 8.65625 28.9872 8.65625 28.6729C8.65625 28.3587 8.97101 28.123 9.28578 28.123C9.91531 28.123 10.5448 28.3587 11.017 28.7515C11.1744 28.83 11.2531 28.9086 11.4104 29.0657C12.04 29.4585 12.8269 29.4585 13.4564 29.0657C13.6138 28.9872 13.7712 28.83 13.9285 28.7515C15.0302 27.9659 16.368 27.9659 17.4696 28.7515C17.627 28.83 17.7057 28.9086 17.8631 29.0657C18.4926 29.537 19.3582 29.537 19.9877 29.0657C20.1451 28.9086 20.3025 28.8301 20.5386 28.6729C21.5616 27.9659 22.8993 28.0445 23.9223 28.7515C24.001 28.83 24.0797 28.9086 24.1584 28.9871C24.8666 29.6156 25.8896 29.6156 26.5978 28.9871C26.9912 28.6729 27.4634 28.4373 27.9355 28.2802C28.8011 28.1231 29.588 28.2801 30.2963 28.7515C30.4536 28.83 30.611 28.9872 30.7684 29.0657C31.4766 29.537 32.2635 29.537 32.8931 29.0657C33.2078 28.8301 33.6013 28.5944 33.916 28.4373C34.2308 28.2802 34.6243 28.2801 35.0177 28.2016C35.3325 28.2016 35.5685 28.4373 35.5685 28.7515C35.5685 29.0657 35.3325 29.3014 35.0177 29.3014C34.5456 29.3014 34.1521 29.4585 33.7587 29.7727C33.3652 30.0869 32.8931 30.3226 32.4209 30.4012C32.2635 30.4797 32.0275 30.4797 31.8701 30.4797Z" fill="white"/>
<path d="M31.8711 33.622C31.1629 33.622 30.612 33.4649 30.0612 33.0721C29.9038 32.9935 29.7464 32.8365 29.589 32.7579C28.9595 32.3651 28.1726 32.3651 27.5431 32.7579C27.3857 32.8365 27.2283 32.9935 27.0709 33.0721C25.9693 33.7791 24.6315 33.7791 23.6085 32.9936C23.2938 32.7579 22.979 32.5222 22.5856 32.4437C22.0347 32.3651 21.5626 32.4437 21.0904 32.7579C20.933 32.8365 20.8544 32.9935 20.697 33.0721C19.5953 33.8576 18.2576 33.8576 17.1559 33.0721C16.9198 32.915 16.605 32.6793 16.369 32.6008C15.8181 32.3651 15.1886 32.4437 14.6378 32.8364C14.4017 32.9936 14.0869 33.2292 13.8509 33.3863C12.8279 33.8577 11.8836 33.7791 10.9393 33.2292C10.7819 33.1507 10.6245 32.9935 10.4671 32.915C10.1524 32.6793 9.75893 32.5222 9.28679 32.5222C9.05071 32.5222 8.81464 32.3651 8.73595 32.1294C8.65726 31.8938 8.73595 31.6581 8.89333 31.501C9.05071 31.4224 9.20809 31.3439 9.36548 31.3439C9.91631 31.3439 10.4671 31.501 10.9393 31.8152C11.0967 31.9723 11.3327 32.0509 11.4901 32.208C12.1197 32.6793 12.9853 32.6008 13.6148 32.1294C14.0869 31.8152 14.5591 31.4224 15.1886 31.3439C16.0542 31.1868 16.8411 31.3439 17.5493 31.8938C17.628 31.9723 17.7854 32.0509 17.8641 32.1294C18.5723 32.6793 19.3592 32.6008 20.0674 32.1294C20.3822 31.8938 20.7757 31.6581 21.0904 31.501C22.1134 31.1082 23.0577 31.2653 23.9233 31.8938C24.002 31.9723 24.1594 32.0509 24.2381 32.1294C24.9463 32.6008 25.7332 32.6008 26.4414 32.1294C26.5988 31.9723 26.8349 31.8152 26.9922 31.7366C28.0152 31.1082 29.2743 31.1868 30.2973 31.8938C30.4546 31.9723 30.5333 32.0509 30.6907 32.208C31.3989 32.6793 32.1858 32.6793 32.8154 32.208C33.0514 32.0509 33.3662 31.8152 33.6023 31.6581C33.9957 31.4224 34.4679 31.3439 34.94 31.3439C35.2548 31.3439 35.4909 31.5795 35.4909 31.8938C35.4909 32.208 35.2548 32.4437 34.94 32.4437C34.3892 32.4437 33.9957 32.6008 33.6023 32.915C33.2088 33.3863 32.5793 33.7005 31.8711 33.622Z" fill="white"/>
</svg>
