<svg width="46" height="46" viewBox="0 0 46 46" fill="none" xmlns="http://www.w3.org/2000/svg">
<path d="M4.7502 45.6698H40.4156C42.9854 45.6698 45.1658 43.5314 45.1658 40.8387V4.64463C45.1658 2.03105 43.0633 -0.186523 40.4156 -0.186523H4.7502C2.10255 -0.186523 0 1.95186 0 4.64463V40.9179C0 43.5314 2.10255 45.6698 4.7502 45.6698Z" fill="#EE4823"/>
<path d="M32.005 22.7807C32.005 27.3742 32.005 31.8886 32.005 36.4821C32.005 37.1157 31.8493 37.2741 31.2263 37.2741C24.2178 37.2741 17.2093 37.2741 10.2008 37.2741C9.65574 37.2741 9.5 37.1157 9.5 36.5613C9.5 27.3742 9.5 18.1871 9.5 9C9.5 8.36641 9.65574 8.20801 10.2787 8.20801C17.2872 8.20801 24.2178 8.20801 31.2263 8.20801C31.9272 8.20801 32.0829 8.36641 32.0829 9.0792C32.005 13.6728 32.005 18.1871 32.005 22.7807ZM30.9148 36.1653C30.9148 36.0069 30.9148 35.8485 30.9148 35.7693C30.9148 27.0574 30.9148 18.4247 30.9148 9.71279C30.9148 9.3168 30.837 9.2376 30.4476 9.2376C23.9063 9.2376 17.443 9.2376 10.9017 9.2376C10.4345 9.2376 10.4345 9.2376 10.4345 9.71279C10.4345 18.4247 10.4345 27.0574 10.4345 35.7693C10.4345 35.9277 10.4345 36.0069 10.4345 36.1653C17.3651 36.1653 24.14 36.1653 30.9148 36.1653Z" fill="white"/>
<path d="M37.2241 21.4349C37.2241 22.6229 37.2241 23.8108 37.2241 25.078C37.2241 25.7908 36.9905 26.0284 36.2897 26.0284C35.4331 26.0284 34.6543 26.0284 33.7977 26.0284C33.1748 26.0284 32.8633 25.7116 32.8633 25.078C32.8633 22.6229 32.8633 20.1677 32.8633 17.7917C32.8633 17.1581 33.1748 16.8413 33.7199 16.8413C34.5765 16.8413 35.4331 16.8413 36.2897 16.8413C36.8348 16.8413 37.1462 17.1581 37.1462 17.7125C37.2241 18.9797 37.2241 20.1677 37.2241 21.4349ZM33.9535 17.9501C33.9535 20.3261 33.9535 22.6229 33.9535 24.9196C34.5765 24.9196 35.1994 24.9196 35.8224 24.9196C36.1339 24.9196 36.2118 24.8404 36.2118 24.5236C36.2118 22.4645 36.2118 20.4053 36.2118 18.2669C36.2118 18.1085 36.2118 18.0293 36.2118 17.8709C35.3552 17.9501 34.6543 17.9501 33.9535 17.9501Z" fill="white"/>
<path d="M25.7764 24.4441C26.0879 24.1273 26.3994 23.8105 26.7108 23.4146H26.7887C26.7887 23.8105 26.7887 24.2065 26.7887 24.6025C26.7887 24.6025 26.7887 24.6817 26.7108 24.6817C26.2436 25.1569 25.6985 25.7113 25.2313 26.1865C24.764 25.6321 24.2189 25.1569 23.7517 24.6817C23.6738 24.6025 23.6738 24.5233 23.6738 24.5233C23.6738 24.1273 23.6738 23.8105 23.6738 23.3354C24.0632 23.7313 24.3747 24.0481 24.764 24.4441C24.764 24.2857 24.764 24.1273 24.764 24.0481C24.764 22.9394 24.764 21.8306 24.764 20.7218C24.764 20.4842 24.8419 20.2466 25.0755 20.2466C25.2313 20.2466 25.4649 20.3258 25.5428 20.405C25.6206 20.4842 25.6206 20.6426 25.6206 20.801C25.6206 21.9098 25.6206 22.9394 25.6206 24.0481C25.6206 24.1273 25.6206 24.2857 25.6206 24.3649C25.6985 24.3649 25.7764 24.3649 25.7764 24.4441Z" fill="white"/>
<path d="M15.7311 21.9095C15.4196 22.2263 15.1081 22.6223 14.7966 22.9391H14.7188C14.7188 22.5431 14.7188 22.1471 14.7188 21.7511C14.7188 21.6719 14.7966 21.6719 14.7966 21.5927C15.2639 21.1175 15.7311 20.6423 16.2762 20.0879C16.8213 20.6423 17.2885 21.1175 17.7558 21.5927C17.7558 21.5927 17.8336 21.6719 17.8336 21.7511C17.8336 22.1471 17.8336 22.4639 17.8336 22.9391C17.5221 22.5431 17.2107 22.2263 16.8992 21.9095C16.8213 21.9095 16.8213 21.9887 16.7434 21.9887C16.7434 22.0679 16.7434 22.2263 16.7434 22.3055C16.7434 23.4143 16.7434 24.523 16.7434 25.6318C16.7434 25.8694 16.6656 26.107 16.4319 26.1862C16.1204 26.2654 15.809 26.107 15.809 25.711C15.809 24.6814 15.809 23.7311 15.809 22.7015C15.809 22.4639 15.809 22.2263 15.809 22.0679C15.809 21.9887 15.7311 21.9095 15.7311 21.9095Z" fill="white"/>
<path d="M11.916 22.7806C11.916 18.979 11.916 15.1774 11.916 11.3759C11.916 10.8215 12.0718 10.6631 12.6169 10.6631C18.0679 10.6631 23.519 10.6631 28.97 10.6631C29.5151 10.6631 29.6709 10.8215 29.6709 11.3759C29.6709 18.979 29.6709 26.6613 29.6709 34.2645C29.6709 34.8188 29.5151 34.9772 28.97 34.9772C23.519 34.9772 18.1458 34.9772 12.6947 34.9772C12.0718 34.9772 11.916 34.8189 11.916 34.1853C11.916 30.3837 11.916 26.5821 11.916 22.7806ZM28.6585 33.8685C28.6585 26.4237 28.6585 19.0582 28.6585 11.6927C26.1666 11.6927 23.7526 11.6927 21.3385 11.6927C21.3385 19.0582 21.3385 26.5029 21.3385 33.8685C23.7526 33.8685 26.1666 33.8685 28.6585 33.8685ZM20.1705 33.8685C20.1705 33.7101 20.1705 33.5517 20.1705 33.3933C20.1705 26.2653 20.1705 19.1374 20.1705 12.0095C20.1705 11.6927 20.0926 11.6135 19.7811 11.6135C17.6007 11.6135 15.4981 11.6135 13.3177 11.6135C13.2398 11.6135 13.0841 11.6135 13.0062 11.6135C13.0062 19.0582 13.0062 26.4237 13.0062 33.7893C15.4203 33.8685 17.7564 33.8685 20.1705 33.8685Z" fill="white"/>
<path d="M34.2637 19.4542C34.2637 18.7414 34.4194 18.583 34.9645 18.583C35.7432 18.583 35.899 18.6622 35.899 19.4542C35.899 20.0878 35.7432 20.2462 35.0424 20.2462C34.3415 20.2462 34.2637 20.0878 34.2637 19.4542Z" fill="white"/>
<path d="M35.0441 24.2062C34.3432 24.2062 34.1875 24.0478 34.1875 23.4142C34.1875 22.7014 34.3432 22.543 35.0441 22.543C35.7449 22.543 35.8228 22.7014 35.8228 23.4142C35.8228 24.0478 35.6671 24.2062 35.0441 24.2062Z" fill="white"/>
</svg>
