<svg width="46" height="46" viewBox="0 0 46 46" fill="none" xmlns="http://www.w3.org/2000/svg">
<path d="M4.80015 45.562H40.8406C43.4374 45.562 45.6407 43.4409 45.6407 40.7701V4.79184C45.6407 2.19952 43.5161 0 40.8406 0H4.80015C2.20335 0 0 2.12097 0 4.79184V40.7701C0 43.3624 2.12466 45.562 4.80015 45.562Z" fill="#EE4823"/>
<path d="M9.28526 32.2856C9.28526 31.8142 9.28526 31.3429 9.28526 30.8716C9.12788 30.8716 8.89182 30.8716 8.73444 30.8716C8.41968 30.8716 8.26229 30.7145 8.26229 30.4003C8.26229 25.687 8.26229 20.9737 8.26229 16.2604C8.26229 15.3962 8.97051 14.6892 9.9148 14.6892C14.4789 14.6892 19.0429 14.6892 23.607 14.6892C23.7644 14.6892 23.8431 14.6892 24.0005 14.6892C24.0005 14.4536 24.0005 14.2964 24.0005 14.0608C24.0005 13.0396 24.63 12.4111 25.653 12.4111C28.2498 12.4111 30.8466 12.4111 33.4434 12.4111C34.4664 12.4111 35.0959 13.0396 35.0959 14.0608C35.0959 14.2179 35.0959 14.4536 35.0959 14.6892C35.3319 14.6892 35.5681 14.6892 35.7254 14.6892C36.6697 14.6892 37.2993 15.3962 37.2993 16.2604C37.2993 20.9737 37.2993 25.6084 37.2993 30.3217C37.2993 30.7145 37.1419 30.8716 36.7484 30.8716C36.591 30.8716 36.4336 30.8716 36.2762 30.8716C36.2762 31.3429 36.2762 31.8142 36.2762 32.2856C36.4336 32.2856 36.6697 32.2856 36.8271 32.2856C37.0632 32.2856 37.2993 32.4427 37.2993 32.6783C37.2993 32.914 37.1419 33.0711 36.8271 33.1497C36.6697 33.1497 36.5123 33.1497 36.4336 33.1497C27.2268 33.1497 18.02 33.1497 8.81314 33.1497C8.73444 33.1497 8.65574 33.1497 8.57705 33.1497C8.34098 33.1497 8.18359 32.914 8.18359 32.6783C8.18359 32.4427 8.34098 32.2856 8.57705 32.2856C8.81312 32.2856 9.04919 32.2856 9.28526 32.2856ZM35.0959 15.5533C35.0959 15.6319 35.0959 15.789 35.0959 15.8676C35.0959 17.8315 35.0959 19.8739 35.0959 21.8377C35.0959 22.7804 34.4664 23.4874 33.4434 23.4874C30.8466 23.4874 28.3285 23.4874 25.7317 23.4874C24.63 23.4874 24.0005 22.859 24.0005 21.7592C24.0005 19.7953 24.0005 17.7529 24.0005 15.789C24.0005 15.6319 24.0005 15.5533 23.7644 15.5533C19.1216 15.5533 14.4789 15.5533 9.9148 15.5533C9.44266 15.5533 9.12789 15.8676 9.12789 16.3389C9.12789 20.8165 9.12789 25.2941 9.12789 29.7718C9.12789 29.8503 9.12789 29.9289 9.12789 30.0075C18.256 30.0075 27.3842 30.0075 36.5124 30.0075C36.5124 29.9289 36.5124 29.7718 36.5124 29.6933C36.5124 25.2942 36.5124 20.8951 36.5124 16.496C36.5124 16.4175 36.5124 16.2603 36.5124 16.1818C36.5124 15.8675 36.2762 15.5533 35.8828 15.5533C35.6467 15.5533 35.3319 15.5533 35.0959 15.5533ZM34.2303 17.9885C34.2303 16.7316 34.2303 15.3962 34.2303 14.1394C34.2303 13.5895 33.9942 13.2752 33.3647 13.2752C30.7679 13.2752 28.2498 13.2752 25.653 13.2752C25.1021 13.2752 24.8661 13.5894 24.8661 14.0608C24.8661 16.6531 24.8661 19.2454 24.8661 21.7592C24.8661 22.3091 25.1808 22.5448 25.653 22.5448C28.2498 22.5448 30.7679 22.5448 33.3647 22.5448C33.9156 22.5448 34.2303 22.3091 34.2303 21.6806C34.2303 20.5023 34.2303 19.2454 34.2303 17.9885ZM10.1509 32.2856C18.5708 32.2856 26.9907 32.2856 35.4107 32.2856C35.4107 31.8142 35.4107 31.3429 35.4107 30.8716C26.9907 30.8716 18.5708 30.8716 10.1509 30.8716C10.1509 31.3429 10.1509 31.8142 10.1509 32.2856Z" fill="white"/>
<path d="M16.5254 24.9021C15.109 24.9021 13.6139 24.9021 12.1974 24.9021C11.1745 24.9021 10.5449 24.2736 10.5449 23.2524C10.5449 21.8384 10.5449 20.3459 10.5449 18.9319C10.5449 17.9106 11.1745 17.2822 12.1974 17.2822C15.109 17.2822 18.0205 17.2822 20.9321 17.2822C21.8764 17.2822 22.5847 17.9892 22.5847 18.9319C22.5847 20.4244 22.5847 21.917 22.5847 23.4095C22.5847 24.3522 21.8764 24.9806 21.0108 24.9806C19.5157 24.9021 18.0206 24.9021 16.5254 24.9021ZM16.5254 18.1463C15.109 18.1463 13.6139 18.1463 12.1974 18.1463C11.6466 18.1463 11.4105 18.382 11.4105 18.9319C11.4105 20.3459 11.4105 21.8384 11.4105 23.2524C11.4105 23.8023 11.6466 24.0379 12.1974 24.0379C15.109 24.0379 18.0206 24.0379 20.8534 24.0379C21.4043 24.0379 21.719 23.7237 21.719 23.1739C21.719 21.7599 21.719 20.3459 21.719 18.8533C21.719 18.3034 21.483 17.9892 20.8534 17.9892C19.437 18.1463 18.0206 18.1463 16.5254 18.1463Z" fill="white"/>
<path d="M16.5253 28.2794C14.9515 28.2794 13.3776 28.2794 11.8038 28.2794C10.8595 28.2794 10.3087 27.4153 10.5448 26.6297C10.7021 26.1584 11.1743 25.7656 11.7251 25.7656C14.8728 25.7656 18.0991 25.7656 21.2467 25.7656C21.9549 25.7656 22.5058 26.3155 22.5058 27.0225C22.5058 27.7295 22.0336 28.2794 21.3254 28.2794C20.9319 28.2794 20.5385 28.2794 20.1451 28.2794C18.9647 28.358 17.7056 28.358 16.5253 28.2794C16.5253 28.358 16.5253 28.358 16.5253 28.2794ZM16.5253 27.4938C17.7056 27.4938 18.9647 27.4938 20.1451 27.4938C20.5385 27.4938 20.932 27.4938 21.2467 27.4938C21.4828 27.4938 21.6402 27.3367 21.6402 27.1011C21.6402 26.8654 21.4828 26.7083 21.2467 26.7083C21.168 26.7083 21.0894 26.7083 21.0107 26.7083C17.9417 26.7083 14.8728 26.7083 11.8038 26.7083C11.7251 26.7083 11.6464 26.7083 11.5678 26.7083C11.3317 26.7083 11.1743 26.944 11.253 27.1011C11.253 27.3367 11.4104 27.4938 11.6464 27.4938C11.7251 27.4938 11.8038 27.4938 11.8825 27.4938C13.4563 27.4938 14.9515 27.4938 16.5253 27.4938Z" fill="white"/>
<path d="M30.7695 26.4723C30.7695 25.451 31.5565 24.6655 32.5795 24.5869C33.6024 24.5869 34.468 25.451 34.468 26.4723C34.468 27.4935 33.6024 28.279 32.5795 28.279C31.6352 28.279 30.7695 27.4935 30.7695 26.4723ZM32.6581 27.4935C33.209 27.4935 33.6811 27.0221 33.6811 26.4723C33.6811 25.9224 33.209 25.451 32.6581 25.451C32.1073 25.451 31.6352 25.9224 31.6352 26.4723C31.6352 27.0221 32.1073 27.4935 32.6581 27.4935Z" fill="white"/>
<path d="M24.5488 26.4728C24.5488 25.4516 25.4144 24.666 26.4374 24.666C27.4604 24.666 28.2473 25.5301 28.2473 26.5514C28.2473 27.5726 27.3817 28.3581 26.3587 28.3581C25.3357 28.2796 24.5488 27.494 24.5488 26.4728ZM26.3587 27.494C26.9095 27.494 27.303 27.0227 27.303 26.4728C27.303 25.9229 26.8309 25.4516 26.28 25.5302C25.7292 25.5302 25.257 26.0015 25.3357 26.5514C25.4144 27.0227 25.8866 27.494 26.3587 27.494Z" fill="white"/>
<path d="M28.4071 19.4033C28.0924 19.4033 27.7776 19.4033 27.4629 19.4033C27.0694 19.4033 26.8333 19.1676 26.9907 18.7748C27.3055 17.3608 27.6989 15.9469 28.0137 14.5329C28.0924 14.1401 28.2498 14.0615 28.5645 14.0615C29.4301 14.0615 30.2957 14.0615 31.1613 14.0615C31.6335 14.0615 31.7909 14.2972 31.6335 14.7685C31.3974 15.4755 31.24 16.1825 31.004 16.8895C31.004 16.9681 31.0039 17.0466 30.9252 17.1252C31.1613 17.1252 31.4761 17.1252 31.7122 17.1252C31.9482 17.1252 32.1056 17.2037 32.1843 17.3608C32.263 17.518 32.1843 17.7536 32.1056 17.9107C31.1613 19.0891 30.217 20.3459 29.3514 21.5243C29.194 21.6814 29.0367 21.8385 28.8006 21.76C28.5645 21.6814 28.4858 21.5243 28.4858 21.2886C28.4858 20.6602 28.4071 20.1103 28.4071 19.4033ZM27.8563 18.5392C28.0924 18.5392 28.3284 18.5392 28.5645 18.5392C29.0367 18.5392 29.194 18.6177 29.194 19.0891C29.194 19.4033 29.2728 19.7175 29.2728 20.1103C29.2728 20.1103 29.2727 20.1103 29.3514 20.1103C29.9023 19.4033 30.4531 18.6963 31.004 17.9893C30.7679 17.9893 30.6105 17.9893 30.5318 17.9893C30.1383 17.9893 29.981 17.7536 30.0597 17.3608C30.217 16.6539 30.4531 16.0254 30.6105 15.397C30.6105 15.3184 30.6892 15.1613 30.6892 15.0042C30.0597 15.0042 29.4301 15.0042 28.8006 15.0042C28.7219 15.0042 28.6432 15.0828 28.6432 15.1613C28.5645 15.5541 28.4858 15.9469 28.3285 16.3396C28.2498 17.0466 28.0137 17.7536 27.8563 18.5392Z" fill="white"/>
<path d="M12.668 21.0529C12.668 20.5815 12.668 20.1887 12.668 19.7174C12.668 19.4817 12.8254 19.2461 13.0614 19.2461C13.2975 19.2461 13.5336 19.4032 13.5336 19.6389C13.5336 20.5815 13.5336 21.5242 13.5336 22.4668C13.5336 22.7025 13.3762 22.8596 13.1401 22.9382C12.904 22.9382 12.668 22.7811 12.668 22.5454C12.668 21.9955 12.668 21.5242 12.668 21.0529Z" fill="white"/>
<path d="M17.233 21.0523C17.233 20.581 17.233 20.1097 17.233 19.6384C17.233 19.3241 17.3904 19.167 17.6264 19.167C17.8625 19.167 18.0199 19.4027 18.0199 19.6384C18.0199 20.5025 18.0199 21.4451 18.0199 22.3092C18.0199 22.6234 17.8625 22.7806 17.6264 22.7806C17.3904 22.7806 17.1543 22.6234 17.1543 22.3092C17.233 21.995 17.233 21.5237 17.233 21.0523Z" fill="white"/>
<path d="M14.9512 21.0529C14.9512 20.5815 14.9512 20.1887 14.9512 19.7174C14.9512 19.4032 15.1086 19.2461 15.4233 19.2461C15.6594 19.2461 15.8168 19.4817 15.8168 19.7174C15.8168 20.5815 15.8168 21.5242 15.8168 22.3883C15.8168 22.7025 15.6594 22.8596 15.3446 22.8596C15.1086 22.8596 14.9512 22.7025 14.9512 22.3883C14.9512 21.9955 14.9512 21.5242 14.9512 21.0529Z" fill="white"/>
<path d="M19.5142 21.0529C19.5142 20.5815 19.5142 20.1887 19.5142 19.7174C19.5142 19.4032 19.6716 19.2461 19.9077 19.2461C20.1437 19.2461 20.3011 19.4032 20.3011 19.7174C20.3011 20.5815 20.3011 21.5242 20.3011 22.3883C20.3011 22.7025 20.1438 22.8596 19.829 22.8596C19.5929 22.8596 19.4355 22.7025 19.4355 22.3883C19.5142 21.9955 19.5142 21.5242 19.5142 21.0529Z" fill="white"/>
</svg>
