<svg width="46" height="46" viewBox="0 0 46 46" fill="none" xmlns="http://www.w3.org/2000/svg">
<path d="M4.80015 45.562H40.8406C43.4374 45.562 45.6407 43.441 45.6407 40.7701V4.79189C45.6407 2.19957 43.5161 0 40.8406 0H4.80015C2.20335 0 0 2.12102 0 4.79189V40.7701C0 43.441 2.12466 45.562 4.80015 45.562Z" fill="#EE4823"/>
<path d="M31.4752 33.0726C31.4752 32.6013 31.4752 32.13 31.4752 31.6586C30.9243 31.6586 30.2948 31.6586 29.7439 31.6586C29.5866 31.6586 29.4292 31.7372 29.2718 31.6586C29.1144 31.5801 28.957 31.423 28.7996 31.3444C28.957 31.1873 29.1144 31.0302 29.2718 30.9516C29.8227 30.8731 30.4522 30.9516 31.003 30.9516C31.1604 30.9516 31.3177 30.9516 31.5538 30.9516C31.5538 30.2446 31.5538 29.6162 31.5538 28.8306C31.003 28.8306 30.5308 28.8306 29.98 28.8306C29.7439 28.8306 29.4292 28.8306 29.4292 28.4378C29.4292 28.0451 29.7439 28.0451 29.98 28.0451C30.5308 28.0451 31.003 28.0451 31.5538 28.0451C31.5538 27.8094 31.5538 27.6523 31.5538 27.4166C31.0817 27.4166 30.6883 27.4166 30.2161 27.4166C30.0587 27.4166 29.9013 27.4952 29.7439 27.4166C29.5866 27.3381 29.5079 27.181 29.3505 27.0239C29.5079 26.8668 29.6652 26.7096 29.7439 26.6311C30.2948 26.5525 30.9243 26.6311 31.4752 26.6311C31.4752 26.3954 31.4752 26.2383 31.4752 26.0027C30.9243 26.0027 30.3735 26.0027 29.8227 26.0027C29.5866 26.0027 29.2718 26.0027 29.2718 25.6099C29.2718 25.2957 29.5079 25.2171 29.8227 25.2171C30.3735 25.2171 30.9243 25.2171 31.4752 25.2171C31.4752 24.9814 31.4752 24.8243 31.4752 24.5101C30.9243 24.5101 30.3735 24.5101 29.9013 24.5101C29.5866 24.5101 29.3505 24.5101 29.3505 24.1173C29.3505 23.8031 29.6653 23.8031 29.9013 23.8031C30.4522 23.8031 30.9243 23.8031 31.5538 23.8031C31.5538 19.4826 31.5538 15.2406 31.5538 10.9201C25.8094 10.9201 20.065 10.9201 14.2418 10.9201C14.2418 11.1557 14.3205 11.3914 14.2418 11.6271C14.1632 11.7842 14.0058 11.9413 13.8484 12.0199C13.691 11.8628 13.5336 11.7842 13.5336 11.6271C13.4549 11.2343 13.4549 10.9201 13.5336 10.5273C13.5336 10.3702 13.7697 10.2131 14.0058 10.1345C14.0844 10.056 14.2418 10.1345 14.3992 10.1345C20.1436 10.1345 25.8094 10.1345 31.5538 10.1345C32.3407 10.1345 32.4195 10.1345 32.4195 10.9201C32.4195 18.3043 32.4195 25.6099 32.4195 32.994C32.4195 33.7796 32.4195 33.7796 31.6325 33.7796C31.3965 33.7796 31.1604 33.7796 30.9243 33.7796C30.9243 34.1724 30.9243 34.4866 30.9243 34.8008C30.9243 35.1151 30.7669 35.3507 30.4522 35.3507C29.5866 35.3507 28.6423 35.3507 27.7767 35.3507C27.3832 35.3507 27.3045 35.1936 27.3045 34.8008C27.3045 34.4866 27.3045 34.1724 27.3045 33.8582C24.4717 33.8582 21.7175 33.8582 18.8059 33.8582C18.8059 34.1724 18.8059 34.4866 18.8059 34.8008C18.8059 35.1151 18.6485 35.3507 18.3338 35.3507C17.4682 35.3507 16.5239 35.3507 15.6583 35.3507C15.2648 35.3507 15.1861 35.1936 15.1861 34.8008C15.1861 34.4866 15.1861 34.1724 15.1861 33.7796C14.8714 33.7796 14.6353 33.7796 14.3205 33.7796C13.691 33.7796 13.6123 33.7011 13.6123 33.0726C13.6123 31.8943 13.6123 30.7159 13.6123 29.4591C13.6123 25.06 13.6123 20.5824 13.6123 16.1833C13.6123 15.8691 13.4549 15.3977 14.0058 15.3977C14.4779 15.3977 14.3992 15.8691 14.3992 16.1833C14.3992 18.697 14.3992 21.1322 14.3992 23.7245C14.95 23.7245 15.5009 23.7245 16.0517 23.7245C16.2878 23.7245 16.6026 23.7245 16.6026 24.1173C16.6026 24.5101 16.2878 24.5101 16.0517 24.5101C15.5009 24.5101 15.0287 24.5101 14.4779 24.5101C14.4779 24.7458 14.4779 24.9029 14.4779 25.2171C15.0287 25.2171 15.5796 25.2171 16.1304 25.2171C16.3665 25.2171 16.6813 25.2171 16.6813 25.5313C16.6813 25.9241 16.4452 25.9241 16.1304 25.9241C15.5796 25.9241 15.1074 25.9241 14.5566 25.9241C14.5566 26.1597 14.5566 26.3169 14.5566 26.5526C15.1074 26.5526 15.6583 26.5526 16.1304 26.5526C16.2878 26.5526 16.6026 26.7882 16.6813 26.8667C16.76 27.181 16.4452 27.2595 16.1304 27.2595C15.5796 27.2595 15.1074 27.2595 14.5566 27.2595C14.5566 27.4952 14.5566 27.6523 14.5566 27.888C15.1074 27.888 15.6583 27.888 16.1304 27.888C16.3665 27.888 16.6813 27.888 16.6813 28.2022C16.6813 28.595 16.4452 28.595 16.1304 28.595C15.5796 28.595 15.1074 28.595 14.5566 28.595C14.5566 29.302 14.5566 30.009 14.5566 30.716C14.7927 30.716 14.95 30.716 15.1861 30.716C19.278 30.716 23.2913 30.716 27.3832 30.716C27.5406 30.716 27.6193 30.716 27.7767 30.716C28.0127 30.716 28.3275 30.7945 28.2488 31.1087C28.2488 31.2659 27.934 31.3444 27.7767 31.4229C27.6193 31.5015 27.4619 31.4229 27.3045 31.4229C23.2913 31.4229 19.1994 31.4229 15.1861 31.4229C15.0287 31.4229 14.7927 31.4229 14.5566 31.4229C14.5566 31.8943 14.5566 32.3656 14.5566 32.837C19.9076 33.0726 25.652 33.0726 31.4752 33.0726ZM17.8616 34.6437C17.7042 34.3295 18.0977 33.9367 17.5468 33.9367C16.9173 33.8582 16.2878 33.9367 15.6583 33.9367C15.6583 34.2509 15.6583 34.408 15.6583 34.7223C16.3665 34.6437 17.0747 34.6437 17.8616 34.6437ZM27.6193 33.9367C27.7767 34.2509 27.8553 34.6437 28.0127 34.6437C28.6423 34.7223 29.2718 34.6437 29.9013 34.6437C29.9013 34.3295 29.9013 34.1724 29.9013 33.8582C29.1931 33.9367 28.4849 33.9367 27.6193 33.9367Z" fill="white"/>
<path d="M22.8192 12.334C24.2356 12.334 25.652 12.334 26.9898 12.334C27.7767 12.334 28.0128 12.5696 28.0128 13.3552C28.0128 14.8477 28.0128 16.4189 28.0128 17.9114C28.0128 18.6184 27.7767 18.9326 27.0685 18.9326C24.2356 18.9326 21.324 18.9326 18.4912 18.9326C17.783 18.9326 17.5469 18.697 17.5469 17.99C17.5469 16.4189 17.5469 14.9263 17.5469 13.3552C17.5469 12.6482 17.783 12.4126 18.5699 12.4126C19.9863 12.334 21.4027 12.334 22.8192 12.334ZM27.3046 18.1471C27.3046 16.4974 27.3046 14.8478 27.3046 13.1981C27.2259 13.1981 27.2259 13.1195 27.1472 13.1195C24.3143 13.1195 21.4814 13.1195 18.6486 13.1195C18.3338 13.1195 18.3338 13.2766 18.3338 13.5123C18.3338 14.6121 18.3338 15.7119 18.3338 16.7331C18.3338 17.2044 18.3338 17.6758 18.3338 18.1471C21.324 18.1471 24.2356 18.1471 27.3046 18.1471Z" fill="white"/>
<path d="M23.4478 25.8449C23.8413 26.0806 24.2347 26.3162 24.6282 26.5519C25.0216 26.7876 25.1004 27.1018 24.7069 27.416C23.92 28.2015 23.1331 28.9871 22.3462 29.7726C22.1888 29.9298 21.874 29.9297 21.7166 29.8512C21.5592 29.7726 21.4806 29.4584 21.5593 29.3013C21.638 28.7514 21.874 28.2015 22.0314 27.6516C21.6379 27.416 21.2445 27.1803 20.851 26.9447C20.4576 26.709 20.3789 26.3948 20.7724 26.0805C21.5593 25.295 22.3462 24.5094 23.1331 23.7239C23.2905 23.5668 23.6052 23.5668 23.7626 23.6454C23.92 23.7239 23.9987 24.0381 23.92 24.1953C23.8413 24.7451 23.6052 25.295 23.4478 25.8449ZM22.6609 28.2801C23.0544 27.8873 23.5265 27.4945 23.9987 27.1018C23.3691 26.6304 22.1101 26.4733 22.9757 25.1379C22.4249 25.6878 22.0314 26.0806 21.6379 26.5519C22.1101 26.9447 23.4478 27.0232 22.6609 28.2801Z" fill="white"/>
<path d="M19.8295 19.8757C20.3016 19.8757 20.8524 19.8757 21.3246 19.8757C21.7967 19.8757 22.1115 20.19 22.1115 20.6613C22.1115 21.0541 22.1115 21.4468 22.1115 21.8396C22.1115 22.3109 21.7967 22.6252 21.3246 22.6252C20.3016 22.6252 19.2786 22.6252 18.2557 22.6252C17.7835 22.6252 17.5474 22.3109 17.4688 21.8396C17.4688 21.4468 17.4688 21.0541 17.4688 20.6613C17.4688 20.19 17.7835 19.8757 18.2557 19.8757C18.8065 19.7972 19.3573 19.8757 19.8295 19.8757ZM21.4033 20.5827C20.3803 20.5827 19.3573 20.5827 18.3343 20.5827C18.3343 20.9755 18.3343 21.3683 18.3343 21.761C19.3573 21.761 20.3803 21.761 21.4033 21.761C21.4033 21.3683 21.4033 21.054 21.4033 20.5827Z" fill="white"/>
<path d="M25.7313 19.8751C26.2034 19.8751 26.7542 19.8751 27.2264 19.8751C27.7772 19.8751 28.0133 20.1893 28.0133 20.7392C28.0133 21.132 28.0133 21.5248 28.0133 21.839C28.0133 22.3103 27.6985 22.6245 27.2264 22.6245C26.2034 22.6245 25.2591 22.6245 24.2361 22.6245C23.764 22.6245 23.4492 22.3103 23.4492 21.839C23.4492 21.4462 23.4492 21.0534 23.4492 20.7392C23.4492 20.1893 23.764 19.9537 24.3148 19.9537C24.787 19.7965 25.2591 19.8751 25.7313 19.8751ZM27.3051 20.5821C26.2821 20.5821 25.2591 20.5821 24.2361 20.5821C24.2361 20.9749 24.2361 21.3676 24.2361 21.7604C25.2591 21.7604 26.2821 21.7604 27.3051 21.7604C27.3051 21.3676 27.3051 20.9749 27.3051 20.5821Z" fill="white"/>
<path d="M14.085 13.9046C14.0063 14.1403 14.2424 14.6901 13.7702 14.6901C13.2194 14.6901 13.3768 14.2188 13.3768 13.826C13.3768 13.6689 13.2981 13.5118 13.3768 13.3547C13.4555 13.1976 13.6128 13.119 13.7702 12.9619C13.9276 13.119 14.085 13.1976 14.085 13.3547C14.1637 13.5118 14.085 13.6689 14.085 13.9046Z" fill="white"/>
</svg>
