<svg width="46" height="46" viewBox="0 0 46 46" fill="none" xmlns="http://www.w3.org/2000/svg">
<path d="M4.80015 45.562H40.8406C43.4374 45.562 45.6407 43.441 45.6407 40.7701V4.79184C45.6407 2.19952 43.5161 0 40.8406 0H4.80015C2.20335 0 0 2.12097 0 4.79184V40.7701C0 43.441 2.12466 45.562 4.80015 45.562Z" fill="#EE4823"/>
<path d="M22.8191 34.0154C20.7731 34.0154 18.8058 34.0154 16.7599 34.0154C15.973 34.0154 15.6582 33.7013 15.6582 32.9157C15.7369 31.1089 15.5795 29.3022 15.7369 27.4954C15.8943 24.3532 18.3337 22.1537 21.4027 21.918C27.6192 21.4467 30.3734 24.196 29.9013 30.0091C29.8226 31.266 30.216 32.9157 29.5078 33.7013C28.957 34.3297 27.1471 33.9369 25.9667 33.9369C24.9437 34.0154 23.9208 34.0154 22.8191 34.0154ZM29.0357 33.0728C29.0357 31.0304 29.1144 29.145 29.0357 27.1812C28.8783 24.7459 26.8323 22.8607 24.3929 22.7036C19.8288 22.3893 17.232 23.6461 16.8386 26.5527C16.5238 28.6737 16.7599 30.7947 16.7599 32.9943C20.7731 33.0728 24.8651 33.0728 29.0357 33.0728Z" fill="white"/>
<path d="M22.662 21.2893C19.8292 21.2893 17.7832 19.1683 17.7832 16.4189C17.7832 13.748 19.9078 11.627 22.662 11.627C25.4162 11.627 27.6195 13.748 27.6195 16.4974C27.6195 19.1683 25.4949 21.2893 22.662 21.2893ZM26.754 16.4974C26.754 14.2193 25.0228 12.4125 22.7407 12.4125C20.5374 12.4125 18.7275 14.1407 18.6488 16.3403C18.5701 18.6184 20.38 20.5037 22.5834 20.5037C24.8654 20.5823 26.754 18.7755 26.754 16.4974Z" fill="white"/>
<path d="M8.42015 31.9717C10.7022 31.9717 12.8268 31.9717 14.9515 31.9717C15.0302 32.1289 15.0302 32.2074 15.1089 32.3645C14.8728 32.5216 14.6367 32.7573 14.4006 32.7573C12.4334 32.7573 10.4661 32.8359 8.49882 32.7573C8.18405 32.7573 7.63324 32.2074 7.63324 31.8932C7.55455 30.4007 7.55455 28.8295 7.63324 27.337C7.79062 24.7447 9.83656 22.8594 12.4334 22.8594C13.8498 22.8594 15.2663 23.0164 16.604 23.0164C16.604 23.1736 16.6827 23.4093 16.6827 23.5664C16.3679 23.6449 16.1319 23.8806 15.8171 23.802C14.6367 23.802 13.4564 23.5664 12.276 23.6449C10.1513 23.7235 8.49884 25.2946 8.42015 27.4941C8.34146 28.8296 8.42015 30.3221 8.42015 31.9717Z" fill="white"/>
<path d="M29.0371 23.1753C31.0831 22.4683 33.129 22.3898 35.175 23.1753C36.9849 23.8823 37.9292 25.3748 38.0078 27.3387C38.0865 28.8312 38.0865 30.3239 38.0078 31.7379C38.0078 32.1306 37.5357 32.6805 37.2209 32.6805C35.2537 32.759 33.2077 32.759 31.1617 32.6805C30.9257 32.6805 30.7683 32.4448 30.6109 31.9735C32.7356 31.9735 34.8602 31.9735 37.0635 31.9735C37.0635 30.0881 37.2209 28.4385 37.0635 26.7888C36.9062 25.0606 35.3323 23.6467 33.5225 23.5681C32.3421 23.4895 31.1617 23.6466 29.9814 23.6466C29.6666 23.6466 29.3519 23.6467 29.0371 23.5681C29.0371 23.4895 29.0371 23.3324 29.0371 23.1753Z" fill="white"/>
<path d="M32.1062 22.3104C29.8241 22.3104 28.0142 20.5035 27.9355 18.2255C27.9355 15.9474 29.7454 14.1406 32.0275 14.1406C34.3095 14.1406 36.1194 15.9474 36.1981 18.2255C36.1981 20.425 34.3882 22.2318 32.1062 22.3104ZM32.1062 14.9262C30.2963 14.9262 28.8011 16.3401 28.8011 18.1469C28.8011 19.9537 30.2176 21.4462 32.0275 21.4462C33.8374 21.4462 35.3325 20.0322 35.3325 18.2255C35.3325 16.4187 33.8374 14.9262 32.1062 14.9262Z" fill="white"/>
<path d="M13.3771 22.3104C11.0951 22.3104 9.28516 20.5035 9.28516 18.2255C9.28516 15.9474 11.1738 14.1406 13.4558 14.1406C15.7378 14.1406 17.5477 16.0259 17.5477 18.304C17.469 20.5035 15.6591 22.3104 13.3771 22.3104ZM13.3771 21.4462C15.187 21.4462 16.6821 20.0322 16.6821 18.2255C16.6821 16.4187 15.2657 14.9262 13.4558 14.9262C11.6459 14.9262 10.1508 16.3401 10.1508 18.1469C10.0721 19.9537 11.5672 21.4462 13.3771 21.4462Z" fill="white"/>
</svg>
