<svg width="46" height="46" viewBox="0 0 46 46" fill="none" xmlns="http://www.w3.org/2000/svg">
<path d="M4.80015 45.562H40.8406C43.4374 45.562 45.6407 43.441 45.6407 40.7701V4.79189C45.6407 2.19957 43.5161 0 40.8406 0H4.80015C2.20335 0 0 2.12102 0 4.79189V40.7701C0 43.441 2.12465 45.562 4.80015 45.562Z" fill="#EE4823"/>
<path d="M22.7418 9.82031C23.1353 10.2131 23.5288 10.5273 23.9222 10.8416C25.7321 12.4912 27.8568 13.1197 30.2962 13.1982C31.2405 13.1982 32.1848 13.1982 33.129 13.1982C33.2077 13.1982 33.2864 13.1982 33.4438 13.1982C33.4438 13.2768 33.4438 13.3553 33.4438 13.3553C33.4438 15.7119 33.5225 18.0686 33.4438 20.5038C33.3651 23.8031 32.4995 27.0239 30.6896 29.8519C28.8797 32.6013 26.3616 34.5652 23.2927 35.7435C22.9779 35.822 22.7418 35.822 22.4271 35.7435C18.5712 34.3295 15.817 31.8158 14.0072 28.2022C12.9842 26.0812 12.3546 23.8032 12.276 21.4465C12.1973 18.7756 12.1973 16.1047 12.1973 13.4339C12.1973 13.4339 12.1973 13.3553 12.1973 13.2768C12.276 13.2768 12.4333 13.2768 12.512 13.2768C13.6924 13.2768 14.7941 13.2768 15.9744 13.2768C18.1778 13.1982 20.145 12.4126 21.8762 10.9201C22.1123 10.4488 22.4271 10.1345 22.7418 9.82031ZM13.6137 14.6907C13.6137 14.7693 13.6137 14.7693 13.6137 14.8479C13.6137 16.9688 13.6137 19.0113 13.6924 21.1323C13.7711 23.0961 14.1645 24.9815 14.9514 26.7882C16.4466 30.3232 18.9647 32.837 22.5845 34.251C22.7418 34.3295 22.8992 34.3295 23.0566 34.251C26.2042 33.0726 28.565 30.9517 30.1388 27.9666C31.4765 25.5314 32.0274 22.8605 32.0274 20.1111C32.1061 18.3828 32.0274 16.5761 32.0274 14.8479C32.0274 14.7693 32.0274 14.7693 32.0274 14.6122C31.4765 14.6122 30.9257 14.6122 30.3749 14.6122C27.6207 14.6122 25.1813 13.8266 23.0566 11.9413C22.9779 11.8628 22.8992 11.7842 22.8992 11.7842C22.0336 12.3341 21.3254 12.884 20.4598 13.3553C18.886 14.2194 17.1548 14.5336 15.4236 14.5336C14.7941 14.6907 14.1645 14.6907 13.6137 14.6907Z" fill="white"/>
<path d="M21.7952 27.7316C21.1657 27.5745 20.6149 27.2602 20.064 26.8674C18.5689 25.4534 18.2541 23.1754 19.5132 21.5257C20.064 20.8187 20.6936 20.1117 21.3231 19.4047C22.0313 18.6192 22.5821 17.755 22.7395 16.6553C23.369 17.3623 23.8412 18.1478 24.0773 19.0905C24.392 19.9546 24.3133 20.8972 24.156 21.7614C24.6281 21.6828 24.9429 21.2115 25.1002 20.3474C25.2576 20.583 25.415 20.8187 25.5724 20.9758C26.1232 21.7614 26.5954 22.5469 26.6741 23.4896C26.9101 25.3749 25.6511 27.3388 23.7625 27.8101H23.6838C23.9986 27.4173 24.156 27.0246 24.0773 26.5532C24.0773 26.3176 23.9986 26.0033 23.9199 25.8462C23.5264 25.1392 23.133 24.4322 22.7395 23.7252C22.6608 23.8038 22.6608 23.8824 22.5821 23.8824C22.2674 24.5108 21.8739 25.0607 21.5591 25.6891C21.1657 26.3961 21.1657 27.1031 21.6378 27.7316C21.7165 27.653 21.7165 27.653 21.7952 27.7316Z" fill="white"/>
</svg>
