<svg width="46" height="46" viewBox="0 0 46 46" fill="none" xmlns="http://www.w3.org/2000/svg">
<path d="M4.75683 45.2286H40.472C43.0454 45.2286 45.2289 43.1195 45.2289 40.4636V4.76501C45.2289 2.18722 43.1234 0 40.472 0H4.75683C2.10548 0 0 2.1091 0 4.76501V40.5417C0 43.1195 2.10548 45.2286 4.75683 45.2286Z" fill="#EE4823"/>
<path d="M12.3988 29.8404C12.3988 25.544 12.3988 21.2477 12.3988 16.9514C12.0868 17.1076 11.8529 17.2638 11.619 17.4201C11.385 17.5763 11.1511 17.4982 11.0731 17.342C10.9951 17.1076 10.9951 16.9514 11.307 16.7952C13.0226 15.7797 14.8162 14.6861 16.5318 13.6706C17.9354 12.8113 19.3391 12.0301 20.7427 11.1709C21.0546 10.9365 21.2886 10.9365 21.6005 11.1709C24.7197 13.0456 27.761 14.8423 30.8802 16.717C30.9582 16.7952 31.0362 16.7952 31.1142 16.8733C31.3481 17.0295 31.4261 17.1857 31.2701 17.4201C31.1142 17.5763 30.9582 17.6544 30.7243 17.4982C30.4903 17.342 30.1784 17.1857 29.8665 16.9514C29.8665 17.1076 29.8665 17.1857 29.8665 17.2638C29.8665 18.748 29.8665 20.1541 29.8665 21.6383C29.8665 21.7164 29.8665 21.8726 29.8665 21.9507C29.7885 22.0289 29.6325 22.1851 29.4766 22.1851C29.3986 22.1851 29.2426 22.0289 29.1646 21.8726C29.0867 21.7945 29.1646 21.7164 29.1646 21.5602C29.1646 19.9198 29.1646 18.3575 29.1646 16.717C29.1646 16.4827 29.0867 16.4046 28.9307 16.2483C26.4353 14.7642 23.8619 13.28 21.3666 11.7958C21.2886 11.7177 21.1326 11.7177 21.0546 11.7958C18.5593 13.28 15.9859 14.7642 13.4905 16.2483C13.3345 16.3265 13.2566 16.4046 13.2566 16.5608C13.2566 20.8571 13.2566 25.1535 13.2566 29.4498C13.2566 29.5279 13.2566 29.606 13.2566 29.6841C13.7244 29.6841 14.1923 29.6841 14.6602 29.6841C14.6602 29.5279 14.6602 29.4498 14.6602 29.3717C14.6602 27.7313 14.6602 26.0908 14.6602 24.4504C14.6602 23.9817 14.7382 23.9036 15.2061 23.9036C16.2978 23.9036 17.3895 23.9036 18.4813 23.9036C18.8712 23.9036 19.0271 23.9817 19.0271 24.4504C19.0271 26.0908 19.0271 27.7313 19.0271 29.3717C19.0271 29.4498 19.0271 29.606 19.0271 29.6841C19.1831 29.6841 19.2611 29.6841 19.3391 29.6841C20.2748 29.6841 21.2106 29.6841 22.0684 29.6841C22.1464 29.6841 22.3023 29.6841 22.3803 29.6841C22.4583 29.7622 22.6143 29.9185 22.6143 29.9966C22.6143 30.0747 22.5363 30.2309 22.3803 30.309C22.3023 30.3872 22.1464 30.3872 21.9904 30.3872C18.5593 30.3872 15.0501 30.3872 11.619 30.3872C11.541 30.3872 11.463 30.3872 11.385 30.3872C11.1511 30.3872 10.9951 30.2309 10.9951 29.9966C10.9951 29.7622 11.1511 29.6841 11.385 29.6841C11.6969 29.8404 12.0868 29.8404 12.3988 29.8404ZM15.362 29.8404C16.2978 29.8404 17.3116 29.8404 18.2473 29.8404C18.2473 28.1218 18.2473 26.4814 18.2473 24.841C17.3116 24.841 16.3758 24.841 15.362 24.841C15.362 26.4814 15.362 28.1218 15.362 29.8404Z" fill="white"/>
<path d="M24.7198 29.8408C23.6281 29.8408 22.8482 29.4502 22.5363 28.3566C22.3804 28.3566 22.3024 28.3566 22.1464 28.3566C21.5226 28.3566 21.0547 27.8879 21.0547 27.263C21.0547 26.7943 21.0547 26.3256 21.0547 25.7788C21.0547 25.1539 21.5226 24.6852 22.1464 24.6852C22.4583 24.6852 22.5363 24.6071 22.6923 24.2946C23.0042 23.5916 23.5501 23.201 24.4079 23.201C25.2656 23.201 26.2014 23.201 27.0592 23.201C29.1647 23.201 31.0362 22.498 32.6738 21.0919C32.9078 20.8575 33.2197 20.6232 33.5316 20.3889C33.6876 20.2326 33.8435 20.1545 33.9995 20.3107C34.0775 20.3889 34.2334 20.6232 34.2334 20.7794C34.2334 23.6697 34.2334 26.6381 34.2334 29.5283C34.2334 30.3876 34.2334 31.2468 34.2334 32.1061C34.2334 32.2623 34.1555 32.4967 33.9995 32.5748C33.8435 32.731 33.6876 32.5748 33.5316 32.4967C32.8298 31.9499 32.128 31.325 31.3482 30.8563C30.2564 30.1532 29.0087 29.8408 27.6831 29.7627C27.6831 29.8408 27.6831 29.997 27.6831 30.0751C27.6831 30.9344 27.6831 31.7936 27.6831 32.6529C27.6831 33.2778 27.2932 33.8246 26.6693 34.059C26.0455 34.2152 25.4216 34.059 25.0317 33.5122C24.7978 33.1997 24.7198 32.8873 24.7198 32.4967C24.7198 31.7155 24.7198 30.8563 24.7198 30.0751C24.7198 30.0751 24.7198 29.997 24.7198 29.8408ZM33.4536 31.6374C33.4536 28.2785 33.4536 24.9195 33.4536 21.5606C31.816 23.0448 29.9445 23.904 27.6831 24.0603C27.6831 25.7788 27.6831 27.4973 27.6831 29.1377C29.8665 29.2159 31.7381 30.1532 33.4536 31.6374ZM26.9032 29.1377C26.9032 27.4192 26.9032 25.7788 26.9032 24.0603C25.9675 24.0603 25.1097 24.0603 24.2519 24.0603C23.784 24.0603 23.3161 24.529 23.3161 25.0758C23.3161 26.0913 23.3161 27.1067 23.3161 28.1222C23.3161 28.669 23.784 29.1377 24.3299 29.1377C25.1877 29.1377 26.0455 29.1377 26.9032 29.1377ZM25.4996 29.8408C25.4996 30.7782 25.4996 31.7155 25.4996 32.6529C25.4996 33.1216 25.8115 33.4341 26.2014 33.4341C26.5913 33.4341 26.9032 33.1216 26.9032 32.6529C26.9032 32.1061 26.9032 31.4812 26.9032 30.9344C26.9032 30.6219 26.9032 30.2313 26.9032 29.9189C26.4354 29.8408 25.9675 29.8408 25.4996 29.8408ZM22.5363 25.5444C21.9905 25.4663 21.8345 25.5445 21.8345 26.0913C21.8345 26.4037 21.8345 26.7943 21.8345 27.1067C21.8345 27.6536 21.9905 27.7317 22.5363 27.6536C22.5363 26.9505 22.5363 26.2475 22.5363 25.5444Z" fill="white"/>
<path d="M21.1331 21.1694C20.4313 21.1694 19.7294 21.1694 19.1056 21.1694C18.7157 21.1694 18.6377 21.0912 18.6377 20.7007C18.6377 19.5289 18.6377 18.4353 18.6377 17.2636C18.6377 16.9512 18.7937 16.7949 19.1056 16.7949C20.5092 16.7949 21.9129 16.7949 23.3165 16.7949C23.6285 16.7949 23.7844 16.9512 23.7844 17.2636C23.7844 18.4353 23.7844 19.5289 23.7844 20.7007C23.7844 21.0131 23.6285 21.1694 23.3165 21.1694C22.5367 21.1694 21.8349 21.1694 21.1331 21.1694ZM20.7432 20.3882C20.7432 19.4508 20.7432 18.5135 20.7432 17.498C20.2753 17.498 19.8074 17.498 19.3395 17.498C19.3395 18.4353 19.3395 19.3727 19.3395 20.3882C19.8074 20.3882 20.2753 20.3882 20.7432 20.3882ZM21.523 17.5761C21.523 18.5135 21.523 19.4508 21.523 20.4663C21.9909 20.4663 22.4588 20.4663 22.9266 20.4663C22.9266 19.5289 22.9266 18.5916 22.9266 17.5761C22.4588 17.5761 21.9909 17.5761 21.523 17.5761Z" fill="white"/>
</svg>
