<svg width="156" height="48" viewBox="0 0 156 48" fill="none" xmlns="http://www.w3.org/2000/svg">
<path d="M23.8411 31.0464H32.6358L19.7439 47.5408H19.3907C8.68874 47.5762 0 38.8874 0 28.1501V0H17.6247V24.83C17.6247 28.2561 20.415 31.0464 23.8411 31.0464Z" fill="#EE4823"/>
<path d="M48.9183 31.0464H32.4238V47.5409H48.9183V31.0464Z" fill="#EE4823"/>
<path d="M32.4238 31.0464L48.9183 9.96031V3.88525H32.4238V31.0464Z" fill="#EE4823"/>
<path d="M62.0928 39.2759H63.5409V47.8587H62.0928V44.256H57.8897V47.8587H56.4062V39.2759H57.8897V42.8432H62.0928V39.2759Z" fill="#18264F"/>
<path d="M69.4749 48.0001C68.8391 48.0001 68.2387 47.8941 67.7089 47.6469C67.1438 47.435 66.6846 47.1171 66.2961 46.7286C65.9076 46.3401 65.5897 45.8809 65.3425 45.3158C65.0952 44.7507 64.9893 44.1855 64.9893 43.5498C64.9893 42.7374 65.1659 41.9604 65.5897 41.2893C65.9782 40.6182 66.508 40.0884 67.2144 39.6999C67.8855 39.3114 68.6625 39.1348 69.5102 39.1348C70.3579 39.1348 71.135 39.3114 71.806 39.6999C72.5124 40.0884 73.0422 40.6182 73.4308 41.2893C73.8193 41.9604 74.0312 42.7374 74.0312 43.5498C74.0312 44.1855 73.9252 44.7507 73.678 45.3158C73.4308 45.8809 73.1482 46.3401 72.7244 46.7286C72.3358 47.1171 71.8414 47.435 71.2762 47.6469C70.6758 47.8941 70.1107 48.0001 69.4749 48.0001ZM69.4749 46.552C70.3226 46.552 71.029 46.2694 71.6294 45.7043C72.1946 45.1392 72.4771 44.3975 72.4771 43.5498C72.4771 42.7021 72.1946 41.9604 71.6294 41.3952C71.0643 40.8301 70.3579 40.5476 69.4749 40.5476C68.6272 40.5476 67.9208 40.8301 67.3557 41.3952C66.7906 41.9604 66.508 42.6668 66.508 43.5498C66.508 44.3975 66.7906 45.1392 67.3557 45.7043C67.9208 46.2694 68.6272 46.552 69.4749 46.552Z" fill="#18264F"/>
<path d="M76.8565 46.446H80.777V47.8235H75.373V39.2407H76.8565V46.446Z" fill="#18264F"/>
<path d="M85.3689 39.276C85.9694 39.276 86.5698 39.382 87.0996 39.5939C87.6294 39.8058 88.0886 40.1237 88.4771 40.4769C88.8656 40.8654 89.1482 41.3246 89.3954 41.8544C89.6073 42.3842 89.7133 42.9493 89.7133 43.5498C89.7133 44.1502 89.6073 44.7153 89.3954 45.2451C89.1835 45.7749 88.8656 46.2341 88.4771 46.6226C88.0886 47.0111 87.6294 47.2937 87.0996 47.5056C86.5698 47.7175 85.9694 47.8235 85.3689 47.8235H82.0488V39.2407H85.3689V39.276ZM85.3336 46.446C86.146 46.446 86.817 46.1635 87.3822 45.5983C87.9473 45.0332 88.1945 44.3621 88.1945 43.5145C88.1945 42.6668 87.912 41.9957 87.3822 41.4306C86.817 40.8654 86.146 40.6182 85.3336 40.6182H83.4969V46.4107H85.3336V46.446Z" fill="#18264F"/>
<path d="M91.126 47.8587V39.2759H92.6094V47.8587H91.126Z" fill="#18264F"/>
<path d="M100.274 39.2759H101.757V47.8587H100.238L95.9292 41.7836V47.8587H94.4458V39.2759H95.9292L100.238 45.3509V39.2759H100.274Z" fill="#18264F"/>
<path d="M107.903 43.1256H111.965V43.6201C111.965 44.4325 111.788 45.1742 111.399 45.8453C111.011 46.5163 110.516 47.0461 109.845 47.3993C109.174 47.7879 108.433 47.9645 107.62 47.9645C106.984 47.9645 106.419 47.8585 105.854 47.6113C105.289 47.3993 104.83 47.0815 104.441 46.6929C104.053 46.3044 103.735 45.8453 103.523 45.2801C103.311 44.715 103.17 44.1499 103.17 43.5141C103.17 42.7018 103.347 41.9247 103.77 41.2536C104.159 40.5826 104.689 40.0528 105.395 39.6642C106.101 39.2757 106.843 39.0991 107.691 39.0991C108.433 39.0991 109.139 39.2404 109.775 39.5583C110.411 39.8762 110.905 40.3 111.294 40.8298L110.163 41.7128C109.881 41.3596 109.528 41.0417 109.104 40.8298C108.68 40.6179 108.221 40.5119 107.691 40.5119C106.843 40.5119 106.101 40.7945 105.536 41.3596C104.971 41.9247 104.689 42.6665 104.689 43.5141C104.689 44.3971 104.971 45.1035 105.536 45.6687C106.101 46.2338 106.808 46.5163 107.691 46.5163C108.397 46.5163 108.998 46.3044 109.492 45.9159C109.987 45.5274 110.305 44.9976 110.411 44.3971H107.867V43.1256H107.903Z" fill="#18264F"/>
<path d="M64.1413 31.4348C62.34 31.4348 60.8919 31.0816 59.7617 30.4105C58.6314 29.7394 57.819 28.7151 57.2892 27.3729C56.7594 25.9955 56.5122 24.3001 56.5122 22.1809V3.92041H61.7396V22.1103C61.7396 23.0639 61.7749 23.9116 61.8809 24.6533C61.9515 25.395 62.1634 25.9601 62.4813 26.3487C62.7992 26.7372 63.329 26.9491 64.0707 26.9491C64.8124 26.9491 65.3422 26.7372 65.6954 26.3487C66.0133 25.9601 66.2252 25.395 66.2959 24.6533C66.3665 23.9116 66.4018 23.0639 66.4018 22.0749V3.92041H71.6998V22.1809C71.6998 24.2648 71.4526 25.9955 70.9228 27.3729C70.393 28.7504 69.5806 29.7394 68.4857 30.4105C67.3555 31.0816 65.9074 31.4348 64.1413 31.4348Z" fill="#18264F"/>
<path d="M80.7064 31.2228C79.4702 31.2228 78.4813 31.0462 77.8455 30.7284C77.1744 30.4105 76.7153 29.916 76.468 29.2096C76.2208 28.5032 76.0795 27.6202 76.0795 26.5253V13.3862H73.6777V9.60695H76.0795V3.92041H81.2716V9.60695H84.1325V13.3509H81.2716V25.6423C81.2716 26.1014 81.3422 26.4546 81.4835 26.6665C81.6248 26.9138 81.9073 27.0551 82.3312 27.1257C82.755 27.1964 83.3908 27.2317 84.2031 27.2317V31.1875H80.7064V31.2228Z" fill="#18264F"/>
<path d="M87.1699 6.32224V1.80127H92.3973V6.28692H87.1699V6.32224ZM87.1699 31.0463V9.00657H92.362V31.0463H87.1699Z" fill="#18264F"/>
<path d="M96.9536 31.0466V3.63818H102.11V31.0466H96.9536Z" fill="#18264F"/>
<path d="M106.879 6.32224V1.80127H112.106V6.28692H106.879V6.32224ZM106.879 31.0463V9.00657H112.071V31.0463H106.879Z" fill="#18264F"/>
<path d="M121.96 31.2228C120.724 31.2228 119.735 31.0462 119.099 30.7284C118.428 30.4105 117.969 29.916 117.722 29.2096C117.475 28.5032 117.333 27.6202 117.333 26.5253V13.3862H114.932V9.60695H117.333V3.92041H122.525V9.60695H125.386V13.3509H122.525V25.6423C122.525 26.1014 122.596 26.4546 122.737 26.6665C122.879 26.9138 123.161 27.0551 123.585 27.1257C124.009 27.1964 124.645 27.2317 125.457 27.2317V31.1875H121.96V31.2228Z" fill="#18264F"/>
<path d="M127.47 36.2386V32.636H129.166C129.731 32.636 130.225 32.6007 130.614 32.4947C131.002 32.3887 131.214 32.1768 131.285 31.8589C131.391 31.6823 131.426 31.3998 131.391 30.9406C131.356 30.5168 131.32 30.0929 131.285 29.7044L126.587 9.00684H131.532L134.075 23.9472L134.181 24.6183H134.605L134.711 23.9472L137.007 9.00684H141.916L136.83 32.2828C136.689 33.2011 136.477 33.9781 136.23 34.5433C135.983 35.1084 135.594 35.5322 135.1 35.8148C134.605 36.0973 133.899 36.2033 132.98 36.2033H127.47V36.2386Z" fill="#18264F"/>
</svg>
