<svg width="237" height="76" viewBox="0 0 237 76" fill="none" xmlns="http://www.w3.org/2000/svg">
<path d="M98.2248 68.2716C98.8962 68.5236 99.4837 68.9437 99.9873 69.6157C100.491 70.2878 100.659 71.0438 100.659 71.8839C100.659 72.9759 100.323 73.9 99.5676 74.572C98.8123 75.328 97.8891 75.6641 96.7981 75.6641H90V61.6353H96.3784C97.3856 61.6353 98.3087 61.9713 98.9801 62.6433C99.6515 63.3154 99.9873 64.1554 99.9873 65.1635C99.9873 65.8355 99.8194 66.4235 99.4837 67.0116C99.148 67.5996 98.7283 68.0196 98.2248 68.2716ZM95.707 63.8194H92.266V67.3476H95.707C96.2105 67.3476 96.6302 67.1796 96.9659 66.8436C97.3016 66.5075 97.4695 66.0875 97.4695 65.5835C97.4695 65.0795 97.3016 64.6594 96.9659 64.3234C96.6302 63.9874 96.2105 63.8194 95.707 63.8194ZM96.1266 73.4799C96.7141 73.4799 97.1337 73.3119 97.5534 72.8919C97.973 72.4719 98.1409 72.0519 98.1409 71.4638C98.1409 70.8758 97.973 70.4558 97.5534 70.0357C97.1337 69.6157 96.7141 69.4477 96.1266 69.4477H92.266V73.4799H96.1266Z" fill="#19264F"/>
<path d="M107.122 75.9162C105.695 75.9162 104.52 75.4961 103.681 74.7401C102.841 73.9001 102.338 72.892 102.338 71.5479V65.3315H104.604V71.2959C104.604 72.0519 104.856 72.64 105.275 73.06C105.695 73.48 106.366 73.732 107.122 73.732C107.877 73.732 108.465 73.48 108.968 73.06C109.388 72.64 109.639 72.0519 109.639 71.2959V65.3315H111.906V71.5479C111.906 72.892 111.486 73.9001 110.563 74.7401C109.639 75.4961 108.548 75.9162 107.122 75.9162Z" fill="#19264F"/>
<path d="M117.862 75.9157C116.184 75.9157 114.757 75.4117 113.582 74.3196L114.757 72.7236C115.596 73.5636 116.603 73.9836 117.862 73.9836C118.45 73.9836 118.953 73.8996 119.373 73.6476C119.793 73.3956 119.96 73.1436 119.96 72.8075C119.96 72.6395 119.96 72.4715 119.877 72.3875C119.793 72.3035 119.709 72.1355 119.541 72.0515C119.373 71.9675 119.289 71.8835 119.037 71.7995C118.785 71.7155 118.618 71.6315 118.45 71.6315C118.282 71.6315 118.03 71.5475 117.778 71.4635C117.443 71.3795 117.191 71.2955 117.023 71.2955C116.855 71.2115 116.603 71.2115 116.268 71.0435C116.016 70.9594 115.764 70.8754 115.512 70.7074C115.344 70.6234 115.093 70.4554 114.925 70.2874C114.757 70.1194 114.505 69.9514 114.421 69.7834C114.337 69.6154 114.169 69.3633 114.086 69.1113C114.002 68.8593 113.918 68.5233 113.918 68.2713C113.918 67.5992 114.086 67.0112 114.505 66.5072C114.925 66.0031 115.344 65.6671 116.016 65.4151C116.603 65.1631 117.275 65.0791 118.114 65.0791C119.625 65.0791 120.968 65.4991 122.059 66.4232L120.884 68.0193C120.128 67.3472 119.205 67.0112 118.198 67.0112C117.694 67.0112 117.191 67.0952 116.855 67.2632C116.519 67.4312 116.352 67.6833 116.352 68.0193C116.352 68.1873 116.352 68.2713 116.435 68.3553C116.519 68.4393 116.603 68.5233 116.687 68.6073C116.771 68.6913 116.939 68.7753 117.023 68.8593C117.107 68.9433 117.275 68.9433 117.527 69.0273C117.694 69.1113 117.946 69.1113 118.03 69.1953C118.198 69.1953 118.366 69.2794 118.618 69.3634C118.953 69.4474 119.121 69.4473 119.373 69.5313C119.541 69.6154 119.793 69.6154 120.128 69.7834C120.38 69.8674 120.632 69.9514 120.884 70.1194C121.051 70.2034 121.303 70.3714 121.471 70.5394C121.723 70.7074 121.891 70.8754 121.975 71.0435C122.059 71.2115 122.226 71.4635 122.31 71.7155C122.394 71.9675 122.394 72.3035 122.394 72.5555C122.394 73.2276 122.226 73.8156 121.807 74.4036C121.387 74.9077 120.884 75.3277 120.296 75.5797C119.709 75.8317 118.702 75.9157 117.862 75.9157Z" fill="#19264F"/>
<path d="M125.249 63.5671C124.829 63.5671 124.494 63.3991 124.242 63.1471C123.99 62.8951 123.822 62.5591 123.822 62.139C123.822 61.719 123.99 61.383 124.242 61.131C124.494 60.8789 124.829 60.7109 125.249 60.7109C125.669 60.7109 126.004 60.8789 126.256 61.131C126.508 61.383 126.676 61.719 126.676 62.139C126.676 62.5591 126.508 62.8951 126.256 63.1471C126.004 63.4831 125.669 63.5671 125.249 63.5671ZM124.158 75.6638V65.3312H126.424V75.6638H124.158Z" fill="#19264F"/>
<path d="M134.816 65.0791C136.075 65.0791 136.998 65.4151 137.754 66.1712C138.509 66.9272 138.845 67.9353 138.845 69.1113V75.6637H136.579V69.8674C136.579 69.1113 136.327 68.4393 135.907 67.9353C135.488 67.4312 134.816 67.1792 134.061 67.1792C133.222 67.1792 132.55 67.4312 132.047 67.9353C131.543 68.4393 131.291 69.1113 131.291 69.8674V75.5797H129.025V65.2471H131.291V66.5912C132.215 65.5831 133.39 65.0791 134.816 65.0791Z" fill="#19264F"/>
<path d="M151.686 70.5394C151.686 70.8754 151.686 71.1274 151.602 71.4635H143.209C143.377 72.2195 143.797 72.8075 144.384 73.2275C144.972 73.6476 145.727 73.8996 146.566 73.8996C147.238 73.8996 147.825 73.7316 148.413 73.4796C149 73.2275 149.42 72.8915 149.756 72.4715L151.266 73.8156C150.763 74.4876 150.091 74.9916 149.252 75.4117C148.413 75.8317 147.573 75.9997 146.566 75.9997C144.888 75.9997 143.545 75.4957 142.454 74.4036C141.363 73.3956 140.859 72.0515 140.859 70.5394C140.859 69.5313 141.111 68.6073 141.531 67.7672C142.034 66.9272 142.622 66.3391 143.461 65.8351C144.3 65.3311 145.224 65.1631 146.231 65.1631C147.741 65.1631 149.084 65.6671 150.091 66.6752C151.098 67.6832 151.686 68.9433 151.686 70.5394ZM146.231 67.1792C145.475 67.1792 144.888 67.4312 144.3 67.8512C143.713 68.2713 143.377 68.8593 143.209 69.6153H149.252C149.084 68.8593 148.748 68.2713 148.161 67.8512C147.657 67.3472 146.986 67.1792 146.231 67.1792Z" fill="#19264F"/>
<path d="M157.226 75.9157C155.547 75.9157 154.12 75.4117 152.945 74.3196L154.12 72.7236C154.96 73.5636 155.967 73.9836 157.226 73.9836C157.813 73.9836 158.317 73.8996 158.736 73.6476C159.156 73.4796 159.324 73.1436 159.324 72.8075C159.324 72.6395 159.324 72.4715 159.24 72.3875C159.156 72.3035 159.072 72.1355 158.904 72.0515C158.736 71.9675 158.652 71.8835 158.401 71.7995C158.149 71.7155 157.981 71.6315 157.813 71.6315C157.645 71.5475 157.393 71.5475 157.142 71.4635C156.89 71.3795 156.554 71.2955 156.386 71.2955C156.218 71.2955 155.967 71.2115 155.631 71.0435C155.379 70.9594 155.127 70.8754 154.876 70.7074C154.708 70.6234 154.456 70.4554 154.288 70.2874C154.12 70.1194 153.869 69.9514 153.785 69.7834C153.701 69.6154 153.533 69.3633 153.449 69.1113C153.365 68.8593 153.281 68.5233 153.281 68.2713C153.281 67.5992 153.449 67.0112 153.869 66.5072C154.288 66.0031 154.708 65.6671 155.379 65.4151C156.051 65.1631 156.638 65.0791 157.477 65.0791C158.988 65.0791 160.331 65.4991 161.422 66.4232L160.247 68.0193C159.492 67.3472 158.568 67.0112 157.561 67.0112C157.058 67.0112 156.554 67.0952 156.218 67.2632C155.883 67.4312 155.715 67.6833 155.715 68.0193C155.715 68.1873 155.715 68.2713 155.799 68.3553C155.883 68.4393 155.967 68.5233 156.051 68.6073C156.135 68.6913 156.302 68.7753 156.386 68.8593C156.47 68.9433 156.638 68.9433 156.89 69.0273C157.058 69.1113 157.309 69.1113 157.393 69.1953C157.561 69.1953 157.729 69.2794 157.981 69.3634C158.317 69.4474 158.484 69.4473 158.736 69.5313C158.904 69.6154 159.156 69.6154 159.492 69.7834C159.743 69.8674 159.995 69.9514 160.247 70.1194C160.415 70.2034 160.667 70.3714 160.834 70.5394C161.086 70.7074 161.254 70.8754 161.338 71.0435C161.506 71.2115 161.59 71.4635 161.674 71.7155C161.758 71.9675 161.758 72.3035 161.758 72.5555C161.758 73.2276 161.59 73.8156 161.17 74.4036C160.75 74.9077 160.247 75.3277 159.659 75.5797C158.736 75.8317 157.981 75.9157 157.226 75.9157Z" fill="#19264F"/>
<path d="M166.96 75.9157C165.281 75.9157 163.855 75.4117 162.68 74.3196L163.855 72.7236C164.694 73.5636 165.701 73.9836 166.96 73.9836C167.547 73.9836 168.051 73.8996 168.471 73.6476C168.89 73.4796 169.058 73.1436 169.058 72.8075C169.058 72.6395 169.058 72.4715 168.974 72.3875C168.89 72.3035 168.806 72.1355 168.638 72.0515C168.471 71.9675 168.387 71.8835 168.135 71.7995C167.883 71.7155 167.715 71.6315 167.547 71.6315C167.38 71.5475 167.128 71.5475 166.876 71.4635C166.624 71.3795 166.289 71.2955 166.121 71.2955C165.953 71.2955 165.701 71.2115 165.365 71.0435C165.114 70.9594 164.862 70.8754 164.61 70.7074C164.442 70.6234 164.19 70.4554 164.022 70.2874C163.855 70.1194 163.603 69.9514 163.519 69.7834C163.435 69.6154 163.267 69.3633 163.183 69.1113C163.099 68.8593 163.015 68.5233 163.015 68.2713C163.015 67.5992 163.183 67.0112 163.603 66.5072C164.022 66.0031 164.442 65.6671 165.114 65.4151C165.785 65.1631 166.372 65.0791 167.212 65.0791C168.722 65.0791 170.065 65.4991 171.156 66.4232L169.981 68.0193C169.226 67.3472 168.303 67.0112 167.296 67.0112C166.792 67.0112 166.288 67.0952 165.953 67.2632C165.617 67.4312 165.449 67.6833 165.449 68.0193C165.449 68.1873 165.449 68.2713 165.533 68.3553C165.617 68.4393 165.701 68.5233 165.785 68.6073C165.869 68.6913 166.037 68.7753 166.121 68.8593C166.205 68.9433 166.372 68.9433 166.624 69.0273C166.792 69.1113 167.044 69.1113 167.128 69.1953C167.296 69.1953 167.463 69.2794 167.715 69.3634C168.051 69.4474 168.219 69.4473 168.471 69.5313C168.638 69.6154 168.89 69.6154 169.226 69.7834C169.478 69.8674 169.729 69.9514 169.981 70.1194C170.149 70.2034 170.401 70.3714 170.569 70.5394C170.821 70.7074 170.988 70.8754 171.072 71.0435C171.24 71.2115 171.324 71.4635 171.408 71.7155C171.492 71.9675 171.492 72.3035 171.492 72.5555C171.492 73.2276 171.324 73.8156 170.904 74.4036C170.485 74.9077 169.981 75.3277 169.394 75.5797C168.471 75.8317 167.715 75.9157 166.96 75.9157Z" fill="#19264F"/>
<path d="M75.5521 75.6227H0V0H52.0091C65.0114 0 75.5521 10.5505 75.5521 23.565V75.6227Z" fill="#EE4823"/>
<path d="M31.2435 41.0649H18.9355V29.1245L30.2968 17.1841H48.1591C52.8298 17.1841 56.68 20.9747 56.68 25.713C56.68 30.3881 52.893 34.2418 48.1591 34.2418H37.7447L31.2435 41.0649Z" fill="white"/>
<path d="M48.1591 58.0595H18.9355V53.953L31.2435 41.0649H48.2223C52.893 41.0649 56.7432 44.8556 56.7432 49.5938C56.68 54.2689 52.893 58.0595 48.1591 58.0595Z" fill="white"/>
<path d="M103.177 53.8231C100.071 53.8231 97.6374 53.235 95.7071 52.0589C93.7768 50.8829 92.35 49.1188 91.5108 46.8506C90.6715 44.5825 90.168 41.5583 90.168 37.9461V6.6123H99.1481V37.7781C99.1481 39.4582 99.232 40.8863 99.3999 42.1464C99.5677 43.4064 99.9034 44.4145 100.491 45.0865C101.078 45.7586 102.002 46.0946 103.26 46.0946C104.519 46.0946 105.443 45.7586 106.03 45.0865C106.618 44.4145 106.953 43.4064 107.121 42.1464C107.289 40.8863 107.289 39.4582 107.289 37.7781V6.6123H116.269V37.9461C116.269 41.5583 115.849 44.4985 114.926 46.8506C114.003 49.2028 112.66 50.9669 110.73 52.0589C108.716 53.235 106.282 53.8231 103.177 53.8231Z" fill="#18264F"/>
<path d="M131.628 53.487C129.446 53.487 127.852 53.235 126.677 52.647C125.502 52.0589 124.746 51.2189 124.327 50.0428C123.907 48.8668 123.655 47.3547 123.655 45.4226V22.8252H119.543V16.3569H123.655V6.6123H132.552V16.3569H137.419V22.8252H132.552V43.9105C132.552 44.6665 132.636 45.2546 132.887 45.6746C133.139 46.0946 133.643 46.3466 134.314 46.5146C135.069 46.6826 136.16 46.6826 137.587 46.6826V53.487H131.628Z" fill="#18264F"/>
<path d="M142.705 10.7284V3H151.685V10.7284H142.705ZM142.705 53.1509V15.3487H151.601V53.1509H142.705Z" fill="#18264F"/>
<path d="M159.49 53.1511V6.1084H168.386V53.1511H159.49Z" fill="#18264F"/>
<path d="M176.445 10.7284V3H185.425V10.7284H176.445ZM176.529 53.1509V15.3487H185.425V53.1509H176.529Z" fill="#18264F"/>
<path d="M202.292 53.487C200.11 53.487 198.516 53.235 197.341 52.647C196.166 52.0589 195.41 51.2189 194.991 50.0428C194.571 48.8668 194.319 47.3547 194.319 45.4226V22.8252H190.207V16.3569H194.319V6.6123H203.216V16.3569H208.083V22.8252H203.216V43.9105C203.216 44.6665 203.3 45.2546 203.551 45.6746C203.803 46.0946 204.307 46.3466 204.978 46.5146C205.733 46.6826 206.824 46.6826 208.251 46.6826V53.487H202.292Z" fill="#18264F"/>
<path d="M211.778 62.0554V55.923H214.716C215.723 55.923 216.562 55.839 217.234 55.671C217.905 55.503 218.325 55.167 218.408 54.5789C218.576 54.3269 218.66 53.7389 218.576 52.9828C218.492 52.2268 218.492 51.5548 218.408 50.8827L210.352 15.3486H218.828L223.192 40.9701L223.36 42.1462H224.115L224.283 40.9701L228.228 15.3486H236.621L227.892 55.335C227.64 56.9311 227.305 58.1911 226.885 59.1992C226.465 60.2072 225.794 60.9633 224.955 61.3833C224.115 61.8033 222.857 62.0554 221.346 62.0554H211.778Z" fill="#18264F"/>
</svg>
