<svg width="45" height="45" viewBox="0 0 45 45" fill="none" xmlns="http://www.w3.org/2000/svg">
<g clip-path="url(#clip0_44_567)">
<path d="M4.74093 45H40.3368C42.9016 45 45.0777 42.9016 45.0777 40.2591V4.74093C45.0777 2.17617 42.9793 0 40.3368 0H4.74093C2.09845 0 0 2.09845 0 4.74093V40.3368C0 42.9016 2.09845 45 4.74093 45Z" fill="#EE4823"/>
<path d="M12.1244 17.7982C10.8809 17.565 10.8809 17.565 10.8809 16.3215C10.8809 14.9225 11.5026 14.3007 12.9016 14.223C14.3783 14.223 15.855 14.223 17.4094 14.223C17.4094 14.0676 17.4871 13.9121 17.4871 13.8344C17.5648 12.9018 17.8757 12.5132 18.886 12.5132C19.6632 12.5132 20.3627 12.5132 21.1399 12.5132C22.1503 12.5132 22.4612 12.8241 22.5389 13.9121C22.5389 13.9899 22.5389 14.0676 22.6166 14.223C24.0156 14.223 25.4145 14.223 26.8135 14.223C28.6011 14.223 29.1451 14.7671 29.1451 16.5546C29.1451 16.6324 29.1451 16.7101 29.1451 16.7101C29.1451 17.6427 29.1451 17.6427 28.2125 17.6427C28.1347 17.6427 28.057 17.6427 27.9016 17.6427C27.7461 18.8862 27.5907 20.052 27.4353 21.3733C28.4456 21.0624 28.5233 21.6842 28.6788 22.3836C28.7565 23.0054 29.9223 23.394 30.3886 23.0831C30.5441 22.9277 30.6995 22.7723 30.9327 22.7723C31.0881 22.6945 31.399 22.6945 31.5544 22.85C31.943 23.1609 32.3316 23.6272 32.7202 23.9381C33.0311 24.2489 33.0311 24.4821 32.798 24.793C32.3316 25.4925 32.2539 26.0365 32.798 26.6583C32.9534 26.8914 33.342 26.9691 33.6529 26.9691C34.1192 27.0469 34.2746 27.2023 34.2746 27.6686C34.2746 27.9018 34.2746 28.1349 34.2746 28.3681C34.2746 29.5339 34.2746 29.5339 33.1866 29.8448C32.7202 30.0002 32.2539 31.0883 32.5648 31.5546C32.6425 31.7101 32.8757 31.8655 32.8757 32.0987C32.9534 32.3318 32.8757 32.565 32.798 32.7204C32.7202 32.9536 32.4871 33.0313 32.3316 33.2645C32.0208 33.5754 31.7099 34.0417 31.399 34.1194C31.0881 34.1971 30.6995 33.8085 30.3109 33.5754C29.9223 33.4199 28.8342 33.8862 28.7565 34.3526C28.5233 35.4406 28.5233 35.4406 27.3575 35.4406C27.2798 35.4406 27.2021 35.4406 27.1244 35.4406C26.0363 35.4406 26.0363 35.4406 25.8031 34.3526C25.6477 33.8085 24.5596 33.3422 24.0933 33.6531C23.9379 33.7308 23.7824 33.8085 23.7047 33.964C23.3938 34.2748 23.0829 34.2748 22.8498 33.8862C22.6166 33.4976 22.228 33.4199 21.7617 33.4199C19.741 33.4199 17.7202 33.4199 15.6995 33.4199C14.5337 33.4199 14.2228 33.1868 14.0674 32.021C13.5233 27.3577 12.9793 22.6168 12.4353 17.9536C12.2021 18.0313 12.1244 17.8759 12.1244 17.7982ZM21.5285 33.109C20.9068 32.4873 21.4508 32.1764 21.684 31.8655C22.0726 31.3215 21.6062 30.2334 20.9068 30.078C19.8187 29.8448 19.9741 30.0002 19.9741 28.9121C19.9741 28.7567 19.9741 28.6013 19.9741 28.4458C19.9741 27.3577 19.9741 27.3577 21.0622 27.1246C21.5285 27.0469 21.9948 25.9588 21.8394 25.5702C21.2176 24.5598 21.2176 24.5598 22.0726 23.7049C22.228 23.5495 22.4612 23.394 22.5389 23.2386C22.8498 22.85 23.0829 22.85 23.4715 23.1609C23.7047 23.3163 24.0156 23.5495 24.3265 23.5495C25.0259 23.5495 25.4923 23.0054 25.6477 22.3059C25.7254 21.8396 25.8809 21.6064 26.4249 21.6842C26.5803 21.6842 26.6581 21.6842 26.8135 21.6064C26.8135 21.2178 26.8912 20.8292 26.8912 20.3629C22.228 20.3629 17.6425 20.3629 12.9793 20.3629C13.1347 21.6842 13.2902 23.0054 13.4456 24.3267C13.7565 27.0469 14.0674 29.6894 14.3783 32.4096C14.456 32.8759 14.5337 33.2645 15.1555 33.2645C17.2539 33.0313 19.3524 33.109 21.5285 33.109ZM20.5182 27.6686C20.5182 28.0572 20.5182 28.3681 20.5182 28.679C20.4404 29.223 20.5959 29.5339 21.2176 29.5339C21.4508 29.5339 21.8394 29.6894 21.8394 29.8448C22.1503 30.6997 22.9275 31.5546 21.9171 32.4873V32.565C22.3057 32.9536 22.6943 33.3422 23.0052 33.7308C23.627 33.2645 24.0933 32.9536 25.0259 33.3422C25.8809 33.7308 26.0363 34.2748 26.1917 35.052C26.8135 35.052 27.2798 35.052 27.9016 35.052C27.9793 34.2748 28.2125 33.7308 29.0674 33.3422C29.9223 32.9536 30.4664 33.3422 31.0104 33.6531C31.4767 33.2645 31.7876 32.8759 32.2539 32.4873C32.1762 32.3318 32.0985 32.2541 32.0208 32.0987C31.5544 31.6324 31.4767 31.166 31.943 30.622C32.0208 30.5443 32.0208 30.4666 32.0985 30.3111C32.1762 29.6893 32.5648 29.4562 33.1866 29.3785C33.342 29.3785 33.6529 29.1453 33.6529 28.9899C33.7306 28.5235 33.6529 28.1349 33.6529 27.5909C32.798 27.5909 32.3316 27.2023 31.943 26.4251C31.4767 25.4925 31.943 25.0261 32.3316 24.4821C31.943 24.0935 31.5544 23.7049 31.1658 23.2386C30.6218 23.7826 30.0777 24.0158 29.2228 23.6272C28.3679 23.2386 28.1347 22.6945 28.057 21.9173C27.6684 21.9173 27.4353 21.9173 27.1244 21.9173C26.5803 21.8396 26.2695 21.995 26.2695 22.6168C26.2695 22.85 26.114 23.2386 25.9586 23.2386C25.1037 23.5495 24.2487 24.3267 23.3161 23.3163H23.2384C22.8498 23.7049 22.4612 24.0935 22.0726 24.4821C22.4612 25.1039 22.9275 25.4925 22.4612 26.4251C21.8394 27.28 21.4508 27.6686 20.5182 27.6686ZM28.5233 17.1764C28.5233 16.7878 28.5233 16.3992 28.5233 16.0106C28.4456 15.2334 27.9793 14.7671 27.2798 14.7671C22.4612 14.7671 17.5648 14.7671 12.7461 14.7671C12.1244 14.7671 11.6581 15.078 11.5026 15.6997C11.4249 16.166 11.5026 16.6324 11.5026 17.0987C17.1762 17.1764 22.7721 17.1764 28.5233 17.1764ZM27.2021 17.7982C22.3057 17.7982 17.5648 17.7982 12.6684 17.7982C12.7461 18.4199 12.8239 19.0417 12.9016 19.6634C17.6425 19.6634 22.3057 19.6634 26.9689 19.6634C27.1244 18.964 27.1244 18.4199 27.2021 17.7982ZM18.0311 14.223C19.3524 14.223 20.5959 14.223 21.8394 14.223C21.9948 13.2904 21.8394 13.1349 20.9845 13.1349C20.285 13.1349 19.6632 13.1349 18.9638 13.1349C18.1088 13.0572 17.9534 13.2127 18.0311 14.223Z" fill="white"/>
<path d="M27.047 24.0156C29.6118 24.0156 31.6325 26.0364 31.6325 28.5234C31.6325 31.0104 29.6118 33.0312 27.1248 33.0312C24.6377 33.0312 22.5393 31.0104 22.5393 28.5234C22.4616 26.0364 24.4823 24.0156 27.047 24.0156ZM27.047 24.5597C24.8709 24.5597 23.0833 26.3472 23.0833 28.5234C23.0833 30.6996 24.8709 32.4871 27.047 32.4871C29.3009 32.4871 31.0885 30.6996 31.0108 28.4457C31.0108 26.3472 29.2232 24.5597 27.047 24.5597Z" fill="white"/>
<path d="M25.6483 30.311C25.726 30.1556 25.8815 30.0001 25.9592 29.8447C26.1146 30.0001 26.2701 30.1556 26.3478 30.311C26.6587 31.1659 26.4255 31.4768 25.4929 31.5545C25.4151 31.5545 25.182 31.4768 25.182 31.3991C25.182 31.2437 25.2597 31.0882 25.3374 30.8551C24.327 30.0779 23.9384 28.9898 24.4048 27.6685C24.6379 26.9691 25.1043 26.425 25.8037 26.1141C25.9592 26.0364 26.1923 26.1141 26.4255 26.1141C26.2701 26.2696 26.1923 26.5027 26.0369 26.5805C24.5602 27.4354 24.4048 29.2229 25.6483 30.311Z" fill="white"/>
<path d="M28.5225 26.969C28.367 27.1244 28.2893 27.2021 28.2116 27.3576C28.1339 27.2799 27.9007 27.2021 27.9007 27.0467C27.4344 26.1141 27.4344 26.0363 28.367 25.7255C28.5225 25.6477 28.7556 25.7255 28.9111 25.7255C28.8334 25.8809 28.7556 26.0363 28.6779 26.2695C29.6106 27.0467 30.0769 28.0571 29.6883 29.3006C29.4551 30.0778 28.9888 30.6996 28.2116 31.0104C28.0562 31.0882 27.823 31.0104 27.5898 31.0104C27.7453 30.855 27.823 30.6218 27.9784 30.5441C29.4551 29.8446 29.6883 28.1348 28.5225 26.969Z" fill="white"/>
</g>
<defs>
<clipPath id="clip0_44_567">
<rect width="45" height="45" fill="white"/>
</clipPath>
</defs>
</svg>
