<svg width="45" height="45" viewBox="0 0 45 45" fill="none" xmlns="http://www.w3.org/2000/svg">
<g clip-path="url(#clip0_44_593)">
<path d="M4.74093 45H40.3368C42.9016 45 45.0777 42.9016 45.0777 40.2591V4.74093C45.0777 2.17617 42.9793 0 40.3368 0H4.74093C2.09845 0 0 2.09845 0 4.74093V40.3368C0 42.9016 2.09845 45 4.74093 45Z" fill="#EE4823"/>
<path d="M14.6883 29.0673C14.6883 28.9118 14.6883 28.8341 14.6883 28.7564C14.6883 27.9014 14.6883 27.0465 14.6883 26.1916C14.5328 26.1916 14.4551 26.1916 14.2997 26.1916C13.4447 26.1916 12.5121 26.1916 11.6572 26.1916C9.71417 26.1139 8.47065 24.3263 8.54837 22.6942C8.54837 21.917 8.93697 21.2175 9.40329 20.6735C9.79189 20.2071 10.2582 19.7408 10.7245 19.2745C10.8023 19.1968 10.8023 19.1191 10.88 19.1191C10.4914 18.575 10.1805 18.031 10.1028 17.4092C9.94733 16.4766 10.2582 15.6217 10.88 14.9222C11.8903 13.8341 12.823 12.8237 13.8333 11.8134C14.0665 11.5025 14.3774 11.2693 14.6105 10.9584C14.9991 10.5698 15.31 10.5698 15.6986 10.9584C16.6313 11.8911 17.4862 12.9014 18.4188 13.8341C18.7297 14.145 19.0406 14.5336 19.3515 14.8445C20.5173 16.088 20.595 17.5647 19.5846 18.9636C19.5069 19.0413 19.5069 19.1191 19.4292 19.1968C19.8955 19.7408 20.3618 20.2071 20.8282 20.6735C21.994 21.917 22.0717 23.6268 21.139 24.8704C20.5173 25.7253 19.6624 26.1139 18.652 26.1916C17.7971 26.2693 16.9422 26.1916 16.0872 26.2693C16.0095 26.2693 15.8541 26.2693 15.6986 26.2693C15.6986 26.7356 15.6986 27.202 15.6986 27.746C15.6986 28.2123 15.6986 28.6786 15.6986 29.2227C19.4292 29.2227 23.1598 29.2227 26.8903 29.2227C26.8903 29.145 26.8903 29.0672 26.8903 28.9895C26.8903 28.3678 26.8903 27.6683 26.8903 27.0465C26.8903 26.8134 26.8126 26.6579 26.5795 26.6579C25.7245 26.6579 24.7919 26.6579 23.937 26.6579C23.3152 26.6579 23.1598 26.5025 23.1598 25.803C23.3152 23.4714 25.1028 21.917 27.1235 21.7616C29.5328 21.6061 31.3981 23.3937 31.6313 25.5698C31.709 26.5025 31.5535 26.6579 30.6986 26.6579C29.766 26.6579 28.8333 26.6579 27.9007 26.6579C27.9007 27.5128 27.9007 28.29 27.9007 29.145C28.1339 29.145 28.4447 29.145 28.6779 29.145C29.9214 29.145 31.0872 29.145 32.3307 29.2227C34.2738 29.3781 35.9059 30.8548 36.2945 32.7978C36.3722 33.1864 36.3722 33.575 36.4499 33.9636C36.4499 34.3522 36.2945 34.5077 35.9059 34.5077C35.5173 34.5077 35.1287 34.5077 34.8178 34.5077C26.5017 34.5077 18.108 34.5077 9.79189 34.5077C9.71417 34.5077 9.63645 34.5077 9.55873 34.5077C9.17013 34.4299 8.93697 34.2745 8.93697 33.8859C8.85925 31.7875 10.4914 29.7667 12.5898 29.3004C13.1339 29.2227 13.6002 29.145 14.1442 29.145C14.2997 29.0672 14.4551 29.0673 14.6883 29.0673ZM9.94733 33.4196C18.4966 33.4196 26.9681 33.4196 35.4396 33.4196C35.1287 31.3989 33.5743 30.0776 31.5535 29.9999C25.88 29.9999 20.2064 29.9999 14.5328 29.9999C14.1442 29.9999 13.7556 29.9999 13.367 30.0776C11.5795 30.3108 10.1805 31.632 9.94733 33.4196ZM15.6986 25.1812C16.6313 25.1812 17.4862 25.1812 18.4188 25.1812C18.8074 25.1812 19.1183 25.1035 19.5069 24.9481C20.7504 24.4818 21.2168 22.9274 20.5173 21.7616C20.3618 21.5284 20.2064 21.2952 20.051 21.1398C19.5069 20.5957 18.9629 19.974 18.4966 19.4299C18.2634 19.1968 18.2634 19.0413 18.4966 18.7305C18.652 18.575 18.7297 18.4973 18.8852 18.3419C19.0406 18.1087 19.196 17.8755 19.3515 17.5647C19.5846 16.7097 19.3515 16.0103 18.8074 15.3885C17.9525 14.4559 17.0199 13.5232 16.1649 12.5906C16.0872 12.5128 16.0095 12.4351 15.9318 12.3574C15.6986 16.632 15.6986 20.9066 15.6986 25.1812ZM14.6883 12.4351C14.6105 12.4351 14.6105 12.4351 14.6883 12.4351C13.6002 13.5232 12.5898 14.6113 11.5017 15.7771C11.1909 16.088 11.0354 16.5543 11.1131 17.0206C11.1131 17.7201 11.424 18.2641 11.8903 18.7305C12.2789 19.1191 12.2789 19.1968 11.8903 19.5854C11.424 20.1294 10.88 20.5957 10.4137 21.1398C10.1028 21.5284 9.79189 21.917 9.63645 22.3833C9.24785 23.3937 10.1028 25.0258 11.5795 25.1812C12.5121 25.259 13.5225 25.259 14.4551 25.259C14.5328 25.259 14.6105 25.259 14.6883 25.259C14.6883 20.9066 14.6883 16.632 14.6883 12.4351ZM24.2478 25.5698C26.424 25.5698 28.5225 25.5698 30.6209 25.5698C30.5432 24.0154 28.9888 22.7719 27.2012 22.7719C25.8023 22.7719 24.3256 24.0932 24.2478 25.5698Z" fill="white"/>
</g>
<defs>
<clipPath id="clip0_44_593">
<rect width="45" height="45" fill="white"/>
</clipPath>
</defs>
</svg>
