<svg width="46" height="46" viewBox="0 0 46 46" fill="none" xmlns="http://www.w3.org/2000/svg">
<path d="M4.80015 45.4834H40.8406C43.4374 45.4834 45.6407 43.3624 45.6407 40.6915V4.79186C45.6407 2.19954 43.5161 0 40.8406 0H4.80015C2.20335 0 0 2.12099 0 4.79186V40.7701C0 43.3624 2.12466 45.4834 4.80015 45.4834Z" fill="#EE4823"/>
<path d="M14.5571 14.5327C14.5571 14.2185 14.5571 13.9043 14.5571 13.5115C14.5571 12.5688 15.2653 11.8618 16.2096 11.8618C21.6393 11.8618 26.9903 11.8618 32.42 11.8618C33.3643 11.8618 33.9938 12.5688 34.0725 13.4329C34.0725 13.5115 34.0725 13.59 34.0725 13.59C34.0725 20.2672 34.0725 26.8659 34.0725 33.543C34.0725 34.6428 33.3642 35.2713 32.3412 35.2713C26.9903 35.2713 21.6393 35.2713 16.367 35.2713C15.344 35.2713 14.6358 34.5643 14.6358 33.543C14.6358 30.7936 14.6358 28.1227 14.6358 25.3733C14.6358 25.2162 14.5571 25.0591 14.5571 24.9805C12.5898 21.5241 10.5439 18.0677 8.4979 14.5327C8.34052 14.2185 8.34053 13.9828 8.6553 13.8257C9.91435 13.1187 11.1734 12.4117 12.4325 11.6262C12.7472 11.4691 12.9046 11.5476 13.062 11.7833C13.5341 12.5688 13.9276 13.3544 14.3997 14.0614C14.3997 14.3756 14.4784 14.4542 14.5571 14.5327ZM15.4227 26.7873C15.344 26.8659 15.344 26.9444 15.344 27.023C15.344 29.2225 15.344 31.3435 15.344 33.543C15.344 34.25 15.6588 34.5643 16.367 34.5643C21.6393 34.5643 26.9116 34.5643 32.1839 34.5643C32.2626 34.5643 32.3413 34.5643 32.42 34.5643C32.8921 34.5643 33.2069 34.1715 33.2069 33.7787C33.2069 33.6216 33.2069 33.4645 33.2069 33.3859C33.2069 26.8659 33.2069 20.3458 33.2069 13.8257C33.2069 13.6686 33.2069 13.5115 33.2069 13.4329C33.1282 12.9616 32.8134 12.7259 32.2626 12.7259C29.1936 12.7259 26.046 12.7259 22.9771 12.7259C20.695 12.7259 18.4917 12.7259 16.2096 12.7259C15.5801 12.7259 15.2653 13.0402 15.2653 13.6686C15.2653 14.3756 15.2653 15.1612 15.2653 15.8681C15.2653 16.0253 15.2653 16.1038 15.344 16.2609C17.1539 19.3246 18.8851 22.3882 20.695 25.5304C20.7737 25.6875 20.8524 25.8446 20.8524 26.0018C21.0885 27.8085 21.2458 29.6153 21.4819 31.4221C21.4819 31.6577 21.4819 31.8148 21.3245 31.8934C21.1671 31.9719 20.9311 31.9719 20.7737 31.8148C19.2786 30.7151 17.8621 29.6153 16.367 28.437C16.2883 28.3584 16.2096 28.2799 16.1309 28.1227C15.9736 27.73 15.7375 27.2586 15.4227 26.7873ZM10.4652 16.6537C12.5111 20.1887 14.5571 23.7237 16.5244 27.1801C17.6261 26.5516 18.649 25.9232 19.7507 25.2948C17.7048 21.7598 15.6588 18.3034 13.6915 14.7684C12.6685 15.3968 11.5669 16.0253 10.4652 16.6537ZM20.2229 26.0018C19.1212 26.6302 18.0982 27.1801 17.0752 27.8085C18.3343 28.7512 19.5147 29.6938 20.7737 30.6365C20.5376 29.0654 20.3803 27.5729 20.2229 26.0018ZM10.0717 15.9467C11.1734 15.3183 12.1964 14.6898 13.2981 14.0614C12.9833 13.59 12.7472 13.1187 12.4325 12.6474C11.3308 13.2758 10.3078 13.9043 9.20614 14.5327C9.52091 15.004 9.83565 15.4754 10.0717 15.9467Z" fill="white"/>
<path d="M24.3131 15.6322C22.2671 15.6322 20.2211 15.6322 18.1752 15.6322C18.0178 15.6322 17.7817 15.6322 17.6243 15.4751C17.3882 15.318 17.3882 15.0823 17.6243 14.9252C17.7817 14.8467 18.0178 14.8467 18.1752 14.8467C19.2768 14.8467 20.3785 14.8467 21.4015 14.8467C24.3918 14.8467 27.382 14.8467 30.3722 14.8467C30.5296 14.8467 30.7657 14.9252 30.9231 15.0038C31.1592 15.1609 31.1592 15.3966 30.9231 15.5537C30.7657 15.6322 30.5296 15.7108 30.3722 15.7108C28.405 15.6322 26.359 15.6322 24.3131 15.6322Z" fill="white"/>
<path d="M28.0138 31.7367C27.7777 31.8938 27.6203 31.9723 27.463 32.0509C27.1482 32.2865 26.8334 32.5222 26.4399 32.6793C26.2826 32.7579 26.1252 32.8364 25.8891 32.7579C25.3383 32.6793 25.1022 32.2865 25.3383 31.8152C25.417 31.5795 25.5743 31.4224 25.653 31.1868C25.8104 30.9511 25.8891 30.7154 26.0465 30.4798C25.653 30.5583 25.1022 31.2653 24.7088 32.0509C24.6301 32.0509 24.5514 32.0509 24.4727 32.0509C24.5514 32.0509 24.5514 32.1294 24.6301 32.1294C24.7874 32.0509 24.8662 32.208 24.9448 32.2865C25.0235 32.4436 24.9448 32.6008 24.7875 32.7579C24.4727 32.915 24.0006 32.7579 23.9219 32.3651C23.9219 32.208 23.9219 31.9723 24.0005 31.8152C24.394 30.9511 24.9448 30.2441 25.7318 29.6942C26.2039 29.38 26.676 29.5371 26.8334 30.1656C26.9121 30.5583 26.8334 30.8725 26.6761 31.1868C26.5974 31.3439 26.5187 31.501 26.3613 31.7367C26.676 31.501 26.9121 31.3439 27.1482 31.1868C27.3843 31.0297 27.6203 30.9511 27.8564 30.8725C28.4073 30.7154 28.722 31.0297 28.8007 31.501C28.8007 31.6581 28.8007 31.7367 28.8007 31.9723C28.9581 31.8938 29.0367 31.8152 29.1941 31.8152C29.6663 31.5795 30.0597 31.501 30.5319 31.6581C30.8466 31.7367 30.9253 32.0509 30.7679 32.2865C30.6893 32.3651 30.4532 32.4436 30.3745 32.4436C30.0597 32.3651 29.8237 32.4436 29.5876 32.5222C29.3515 32.6008 29.1941 32.7579 28.9581 32.8364C28.3285 33.0721 27.9351 32.8364 28.0138 32.1294C27.9351 32.0509 27.9351 31.8938 28.0138 31.7367Z" fill="white"/>
<path d="M24.9443 19.4032C23.1344 19.4032 21.3245 19.4032 19.5146 19.4032C19.3572 19.4032 19.1998 19.4032 18.9638 19.4032C18.8064 19.3247 18.649 19.2461 18.5703 19.089C18.5703 18.8533 18.7277 18.7748 18.8851 18.6962C18.9638 18.6962 19.1211 18.6177 19.1998 18.6177C22.977 18.6177 26.7542 18.6177 30.5313 18.6177C30.6887 18.6177 30.9248 18.6962 31.0035 18.7748C31.2396 18.9319 31.2396 19.1676 31.0035 19.2461C30.8461 19.3247 30.61 19.4032 30.4526 19.4032C28.7214 19.4032 26.8329 19.4032 24.9443 19.4032Z" fill="white"/>
<path d="M26.7538 23.2523C25.5734 23.2523 24.3144 23.2523 23.134 23.2523C22.9766 23.2523 22.8192 23.2523 22.6618 23.1738C22.5832 23.0952 22.4258 23.0167 22.4258 22.8596C22.4258 22.781 22.5045 22.6239 22.6618 22.5454C22.8192 22.4668 22.9766 22.4668 23.2127 22.4668C25.4947 22.4668 27.8554 22.4668 30.1375 22.4668C30.2949 22.4668 30.4522 22.4668 30.5309 22.4668C30.6096 22.4668 30.6883 22.4668 30.6883 22.4668C31.0031 22.4668 31.1605 22.7025 31.1605 22.8596C31.1605 23.0167 30.9244 23.2523 30.6883 23.2523C30.6096 23.2523 30.531 23.2523 30.4523 23.2523C29.1932 23.2523 28.0128 23.2523 26.7538 23.2523Z" fill="white"/>
<path d="M28.0925 26.2373C28.8794 26.2373 29.6664 26.2373 30.4533 26.2373C30.6106 26.2373 30.6893 26.2373 30.8467 26.3159C31.0041 26.3944 31.1615 26.473 31.1615 26.7086C31.1615 26.9443 31.0041 27.0229 30.8467 27.0229C30.768 27.0229 30.6893 27.1014 30.5319 27.1014C28.8794 27.1014 27.2269 27.1014 25.6531 27.1014C25.4957 27.1014 25.3383 27.0229 25.181 26.9443C24.9449 26.7872 24.9449 26.5515 25.181 26.3944C25.3383 26.3159 25.4957 26.2373 25.7318 26.2373C26.5187 26.2373 27.3056 26.2373 28.0925 26.2373Z" fill="white"/>
</svg>
