<svg width="46" height="46" viewBox="0 0 46 46" fill="none" xmlns="http://www.w3.org/2000/svg">
<path d="M4.80015 45.562H40.8406C43.4374 45.562 45.6407 43.441 45.6407 40.7701V4.79187C45.6407 2.19955 43.5161 0 40.8406 0H4.80015C2.20335 0 0 2.12099 0 4.79187V40.7701C0 43.441 2.12466 45.562 4.80015 45.562Z" fill="#EE4823"/>
<path d="M17.5473 21.9168C16.1309 20.0315 15.7374 17.9105 16.4457 15.6324C16.1309 15.5538 15.8161 15.5538 15.4227 15.4753C14.7145 15.3967 14.2423 14.8468 14.1636 14.2184C14.0849 13.59 14.5571 12.9615 15.1866 12.7259C15.344 12.6473 15.4227 12.5687 15.5014 12.4116C16.0522 10.762 16.8391 9.34798 18.1769 8.24821C19.7507 6.99133 21.4819 6.52 23.5279 6.67711C26.8329 6.99133 28.9575 9.19086 29.9018 12.4116C29.9805 12.6473 30.0592 12.8044 30.2953 12.9615C30.8461 13.2757 31.0035 13.8256 30.9248 14.5326C30.8461 15.0039 30.374 15.4753 29.8231 15.5538C29.5084 15.6324 29.2723 15.6324 28.8788 15.7109C29.5084 17.9105 29.2723 19.9529 27.9345 21.8382C28.4854 22.1525 29.0362 22.4667 29.587 22.7809C32.4199 24.5877 34.3085 27.0229 35.0167 30.3222C35.0954 30.715 35.1741 31.1863 35.1741 31.6576C35.1741 32.0504 35.0954 32.2075 34.6233 32.2075C33.0495 32.2075 31.4756 32.2075 29.9018 32.2075C29.7444 32.2075 29.6658 32.2075 29.4297 32.2075C29.4297 32.5217 29.4297 32.836 29.4297 33.1502C29.4297 33.7001 29.1936 33.9357 28.6428 33.9357C28.328 33.9357 28.0132 33.9357 27.6985 33.9357C27.6198 33.9357 27.4624 34.0143 27.3837 34.1714C27.305 34.2499 27.3837 34.4071 27.4624 34.4856C27.6985 34.7213 27.9345 34.9569 28.1706 35.1926C28.4854 35.5068 28.4854 35.8996 28.1706 36.2138C27.6198 36.7637 27.1476 37.3136 26.5968 37.7849C26.282 38.0992 25.9673 38.0992 25.6525 37.7849C25.4164 37.5493 25.1804 37.3921 25.023 37.1565C24.7869 36.8423 24.5509 36.8423 24.3148 37.0779C24.3148 37.4707 24.3148 37.8635 24.3148 38.3348C24.3148 38.8061 24.0787 39.0418 23.6065 39.0418C22.8196 39.0418 22.1114 39.0418 21.3245 39.0418C20.8523 39.0418 20.6163 38.8061 20.6163 38.3348C20.6163 38.0206 20.6163 37.6278 20.6163 37.3136C20.6163 37.235 20.5376 37.0779 20.3802 36.9994C20.3015 36.9208 20.1441 36.9994 20.0655 37.0779C19.8294 37.3136 19.5933 37.5493 19.3572 37.7849C19.0425 38.0992 18.649 38.0992 18.3342 37.7849C17.7834 37.235 17.3113 36.7637 16.7604 36.2138C16.4457 35.8996 16.4457 35.5068 16.7604 35.1926C16.9965 34.9569 17.1539 34.7998 17.39 34.5642C17.5473 34.4071 17.626 34.3285 17.5473 34.0928C17.4686 33.8572 17.3113 33.8572 17.0752 33.8572C16.7604 33.8572 16.5244 33.8572 16.2096 33.8572C15.6588 33.8572 15.4227 33.6215 15.4227 33.0716C15.4227 32.7574 15.4227 32.4432 15.4227 32.0504C15.2653 32.0504 15.1079 32.0504 15.0292 32.0504C13.6128 32.0504 12.1964 32.0504 10.8586 32.0504C10.2291 32.0504 10.1504 31.9718 10.1504 31.2648C10.3865 27.5728 12.1964 24.9019 15.2653 23.0166C16.1309 22.6238 16.8391 22.3096 17.5473 21.9168ZM15.5801 31.2648C15.5801 31.1863 15.5801 31.1077 15.5801 31.0292C15.5801 30.4007 15.8161 30.2436 16.4457 30.2436C16.7604 30.2436 16.9965 30.2436 17.3113 30.2436C17.4687 30.2436 17.626 30.2436 17.7047 30.008C17.7047 29.8509 17.7047 29.6938 17.626 29.6152C17.39 29.3795 17.1539 29.1439 16.9178 28.9082C16.6031 28.594 16.6031 28.2012 16.9178 27.9655C17.4687 27.4157 18.0195 26.8658 18.4916 26.3944C18.8064 26.0802 19.1998 26.0802 19.5146 26.3944C19.7507 26.6301 19.9868 26.8658 20.2228 27.1014C20.3015 27.18 20.4589 27.2585 20.5376 27.18C20.6163 27.1014 20.7737 27.0229 20.7737 26.8658C20.7737 26.5516 20.7737 26.1588 20.7737 25.8445C20.7737 25.4518 21.0098 25.1376 21.4032 25.1376C22.1901 25.1376 22.977 25.1376 23.7639 25.1376C24.1574 25.1376 24.3935 25.3732 24.3935 25.8445C24.3935 26.1588 24.3935 26.5516 24.3935 26.8658C24.3935 26.9443 24.5508 27.1014 24.6295 27.18C24.7082 27.2585 24.8656 27.18 24.9443 27.1014C25.1804 26.8658 25.4164 26.6301 25.7312 26.3944C26.046 26.0802 26.3607 26.0802 26.6755 26.3944C27.2263 26.9443 27.7772 27.4942 28.328 28.0441C28.6428 28.3583 28.5641 28.6725 28.328 28.9868C28.0919 29.2224 27.8558 29.4581 27.6198 29.6937C27.5411 29.7723 27.4624 29.9294 27.5411 30.0865C27.5411 30.3222 27.6985 30.3222 27.9345 30.3222C28.1706 30.3222 28.4067 30.3222 28.6428 30.3222C29.4297 30.3222 29.587 30.4793 29.587 31.2648C29.587 31.3434 29.587 31.3434 29.587 31.422C31.1609 31.422 32.8134 31.422 34.4659 31.422C34.3872 30.8721 34.3085 30.4008 34.1511 29.9294C33.2069 26.3944 30.8461 24.1163 27.6198 22.6238C27.5411 22.5452 27.305 22.6238 27.2263 22.7023C24.7082 24.9804 21.0097 25.1376 18.4129 22.938C18.2556 22.7809 18.0982 22.7809 17.9408 22.8595C17.3113 23.1737 16.6817 23.4093 16.0522 23.8021C13.6915 25.1375 12.039 27.1014 11.4095 29.6937C11.2521 30.2436 11.1734 30.7935 11.0947 31.422C12.6685 31.2649 14.0849 31.2648 15.5801 31.2648ZM22.741 15.2396C24.4722 15.0825 26.282 15.0039 28.0132 14.8468C28.5641 14.7683 29.1149 14.6897 29.6658 14.6112C29.9018 14.5326 30.1379 14.4541 30.1379 14.1398C30.1379 13.9042 30.1379 13.5114 29.8231 13.5114C29.351 13.4329 29.2723 13.1186 29.1936 12.8044C29.1936 12.6473 29.1149 12.4902 29.0362 12.3331C28.1706 9.58366 26.2033 7.61976 23.2918 7.3841C21.1671 7.22699 19.3572 7.934 17.9408 9.58366C17.0752 10.6049 16.5244 11.7832 16.2096 13.0401C16.1309 13.3543 15.9735 13.4329 15.6588 13.4329C15.2653 13.4329 15.0292 13.6685 15.0292 13.9827C15.0292 14.2969 15.2653 14.5326 15.6588 14.6112C18.0195 15.004 20.3802 15.1611 22.741 15.2396ZM16.9178 17.7534C16.9965 18.0676 16.9965 18.3033 16.9965 18.5389C17.5473 21.8382 20.4589 23.9592 23.7639 23.4093C27.1476 22.8594 29.351 19.0888 28.1706 15.8681C28.0919 15.711 28.0133 15.6324 27.8559 15.6324C26.9116 15.7109 25.8886 15.7895 24.9443 15.8681C22.5049 15.9466 20.0655 15.868 17.7047 15.6324C17.4687 15.6324 17.3113 15.7109 17.3113 15.9466C17.0752 16.575 16.9965 17.2035 16.9178 17.7534ZM17.5473 28.4369C17.8621 28.7511 18.0982 28.9867 18.4129 29.301C18.649 29.5366 18.649 29.6938 18.5703 30.008C18.4916 30.1651 18.4129 30.4007 18.3342 30.5579C18.2556 30.8721 18.0195 31.0292 17.7047 31.0292C17.3113 31.0292 16.8391 31.0292 16.4457 31.0292C16.4457 31.7362 16.4457 32.3646 16.4457 33.0716C16.8391 33.0716 17.3113 33.0716 17.7047 33.0716C18.0195 33.0716 18.2556 33.1502 18.3342 33.4644C18.4129 33.7001 18.4916 33.8572 18.5703 34.0143C18.7277 34.3285 18.649 34.5642 18.4129 34.7213C18.0982 35.0355 17.7834 35.2712 17.5473 35.5854C18.0195 36.0567 18.4916 36.528 18.9638 36.9994C19.1212 36.8423 19.2786 36.6066 19.4359 36.4495C20.1442 35.7425 19.9868 35.7425 20.8524 36.1353C20.9311 36.1353 20.9311 36.1353 21.0098 36.2138C21.4819 36.3709 21.5606 36.4495 21.5606 36.9994C21.5606 37.3922 21.5606 37.7849 21.5606 38.0991C22.2688 38.0991 22.8983 38.0991 23.6065 38.0991C23.6065 37.6278 23.6065 37.235 23.6065 36.8423C23.6065 36.528 23.6852 36.2924 24 36.2138C24.2361 36.1353 24.3935 36.0567 24.5508 35.9781C24.8656 35.821 25.023 35.8996 25.259 36.1353C25.5738 36.4495 25.8886 36.7637 26.1247 36.9994C26.5968 36.528 27.0689 36.0567 27.6198 35.5068C27.4624 35.3497 27.2263 35.1141 26.9902 34.9569C26.4394 34.4071 26.4394 34.4071 26.7542 33.7001C26.8329 33.6215 26.8329 33.4644 26.9116 33.3858C26.9903 33.0716 27.2263 32.9931 27.5411 32.9931C27.9345 32.9931 28.4067 32.9931 28.8001 32.9931C28.8001 32.2861 28.8001 31.6576 28.8001 30.9506C28.4067 30.9506 28.0919 30.9506 27.6985 30.9506C27.069 30.9506 27.069 30.9506 26.9116 30.4008C26.8329 30.2436 26.8329 30.0865 26.7542 30.008C26.5968 29.6938 26.5968 29.4581 26.9116 29.2224C27.2263 28.9868 27.4624 28.6725 27.6985 28.4369C27.2263 27.9656 26.7542 27.4942 26.2821 27.0229C26.1247 27.2585 25.8886 27.4157 25.6525 27.6513C25.1803 28.1227 25.1804 28.1227 24.5508 27.887C24.3935 27.8084 24.3148 27.8084 24.1574 27.7299C23.8426 27.6513 23.7639 27.4942 23.7639 27.18C23.7639 26.7872 23.7639 26.3159 23.7639 25.9231C23.0557 25.9231 22.4262 25.9231 21.7179 25.9231C21.7179 26.3944 21.7179 26.7872 21.7179 27.2586C21.7179 27.4157 21.6393 27.6513 21.4819 27.7299C21.0097 27.8084 20.695 28.2798 20.1441 28.1226C20.0655 28.1226 19.9868 27.9655 19.9081 27.9655C19.672 27.6513 19.3572 27.4157 19.1212 27.1014C18.4916 27.4942 18.0195 27.9656 17.5473 28.4369Z" fill="white"/>
<path d="M22.5827 35.6646C20.5367 35.6646 18.9629 34.0934 18.9629 32.051C18.9629 30.0871 20.6154 28.4375 22.5827 28.4375C24.55 28.4375 26.2024 30.0871 26.2024 32.051C26.2024 34.0149 24.6286 35.586 22.5827 35.6646ZM22.5827 29.2231C21.0089 29.2231 19.7498 30.4799 19.8285 32.051C19.8285 33.5436 21.1662 34.8004 22.6614 34.8004C24.2352 34.8004 25.4942 33.5436 25.4155 31.9725C25.3368 30.4799 24.0778 29.2231 22.5827 29.2231Z" fill="white"/>
</svg>
