<svg width="46" height="46" viewBox="0 0 46 46" fill="none" xmlns="http://www.w3.org/2000/svg">
<path d="M4.80015 45.562H40.8406C43.4374 45.562 45.6407 43.441 45.6407 40.7701V4.79187C45.6407 2.19955 43.5161 0 40.8406 0H4.80015C2.20335 0 0 2.12099 0 4.79187V40.7701C0 43.441 2.12465 45.562 4.80015 45.562Z" fill="#EE4823"/>
<path d="M21.2467 7.54102C23.5288 7.77668 25.6534 8.32656 27.542 9.74055C28.1716 10.2119 28.6437 10.7618 28.7224 11.5473C28.8011 12.1758 28.6437 12.8042 28.1716 13.2755C27.8568 13.5897 27.4633 13.904 27.1486 14.1396C26.9912 14.2967 26.9125 14.3753 27.0699 14.611C27.306 14.9252 27.2273 15.318 26.9125 15.5536C26.3617 15.8678 26.283 16.4177 26.283 16.9676C26.283 17.2818 26.283 17.5175 26.6764 17.7532C26.9125 17.9103 27.0699 18.2245 27.0699 18.4602C27.0699 19.6385 26.5977 20.5811 25.8108 21.4453C25.6534 21.6024 25.4174 21.838 25.3387 22.0737C24.8665 23.0164 24.237 23.8805 23.3714 24.5089C21.7189 25.8444 19.8303 25.8443 18.1778 24.4304C17.3909 23.7234 16.7614 22.8592 16.2892 21.9166C16.2105 21.7595 16.1318 21.6024 15.9745 21.5238C15.1875 20.8168 14.7941 19.8742 14.6367 18.8529C14.558 18.3031 14.7154 17.9103 15.1875 17.6746C15.2662 17.5961 15.3449 17.5175 15.3449 17.439C15.3449 17.0462 15.3449 16.6534 15.3449 16.2606C15.3449 16.1821 15.2662 16.1035 15.1875 16.025C15.1089 15.9464 14.9515 15.8678 14.7941 15.7107C14.4793 15.3965 14.4006 15.0823 14.6367 14.6895C14.7941 14.4539 14.7154 14.3753 14.558 14.2182C14.3219 13.9825 14.0859 13.7469 13.7711 13.5897C12.5907 12.7256 12.8268 11.3902 13.3777 10.6047C13.8498 9.97622 14.4793 9.5049 15.1089 9.19068C17.1548 8.09091 19.1221 7.61957 21.2467 7.54102ZM26.1256 18.5387C25.1813 18.6958 25.1026 18.6173 25.26 17.7532C25.26 17.6746 25.26 17.6746 25.26 17.5961C25.26 17.2818 25.3387 16.9676 25.3387 16.5749C22.2697 17.3604 19.2795 17.439 16.2105 16.5749C16.2105 16.8891 16.2105 17.1247 16.2892 17.439C16.3679 17.7532 16.4466 18.0674 16.4466 18.3816C16.4466 18.6958 16.2105 18.8529 15.9745 18.6958C15.8958 18.6173 15.7384 18.6173 15.581 18.5387C15.6597 19.4814 15.9745 20.2669 16.604 20.8168C16.7614 20.9739 16.9187 21.0525 16.9974 21.2882C17.3909 22.1523 17.863 23.0164 18.5713 23.6448C19.8303 24.8231 21.2467 24.9017 22.5845 23.8805C23.3714 23.252 24.0009 22.4665 24.3944 21.6024C24.5518 21.3667 24.6305 21.0525 24.8665 20.8954C25.7321 20.2669 25.9682 19.4028 26.1256 18.5387ZM27.8568 11.9401C27.8568 11.783 27.7781 11.6259 27.7781 11.5473C27.6207 10.9189 27.1486 10.5261 26.6764 10.2119C25.1026 9.19067 23.4501 8.71933 21.6402 8.48366C19.8303 8.32655 18.0991 8.7979 16.5253 9.50489C15.7384 9.81911 14.9515 10.2904 14.4006 10.9189C13.8498 11.5473 13.8498 12.0972 14.4793 12.6471C14.7941 12.9613 15.1089 13.197 15.4236 13.5112C15.581 13.6683 15.7384 13.7469 15.9745 13.6683C18.0991 12.8828 20.3811 12.7256 22.6632 12.8828C23.8435 12.9613 24.9452 13.2755 25.9682 13.6683C26.0469 13.6683 26.2043 13.7469 26.283 13.6683C26.7551 13.2755 27.1486 12.8828 27.542 12.49C27.6994 12.3329 27.7781 12.0972 27.8568 11.9401ZM15.581 14.9252C15.9745 15.3965 16.3679 15.5536 16.7614 15.7107C19.2795 16.4963 21.7976 16.4963 24.3157 15.9464C24.8665 15.7893 25.4174 15.5536 25.8895 15.318C26.2043 15.1609 26.2043 15.0037 25.8895 14.8466C25.6534 14.6895 25.3387 14.611 25.1026 14.5324C23.6075 14.0611 22.0337 14.0611 20.5385 14.0611C19.2008 14.0611 17.7843 14.2182 16.4466 14.611C16.1318 14.611 15.8958 14.7681 15.581 14.9252Z" fill="white"/>
<path d="M22.8994 27.1802C22.9781 27.4158 23.1354 27.6515 23.2141 27.8871C23.2928 28.3585 23.2141 28.7513 22.8207 29.144C22.5846 29.3797 22.5059 29.6154 22.5846 29.9296C22.8207 31.0294 23.0567 32.0506 23.2141 33.1503C23.3715 33.7788 23.4502 34.4858 23.5289 35.1928C23.765 35.1928 24.001 35.1928 24.3158 35.1928C24.4732 35.1928 24.7093 35.1928 24.8666 35.1928C25.1027 35.1928 25.2601 35.3499 25.2601 35.5855C25.2601 35.8212 25.1814 35.9783 24.9453 36.0569C24.7879 36.0569 24.6306 36.1354 24.4732 36.1354C20.3813 36.1354 16.2893 36.1354 12.1187 36.1354C11.4892 36.1354 10.8597 35.9783 10.3088 35.8212C9.28584 35.4284 8.81369 34.6429 8.97107 33.5431C9.20714 31.3436 10.3088 29.6154 11.9613 28.2014C13.063 27.2587 14.2434 26.6303 15.5811 26.0804C16.368 25.7662 17.1549 25.7662 18.0205 26.0804C18.8074 26.3946 19.5943 26.5517 20.3813 26.7874C21.0895 26.9445 21.719 26.7874 22.4272 26.6303C22.5846 26.5517 22.8207 26.4732 23.0567 26.4732C23.2141 26.4732 23.4502 26.5517 23.4502 26.6303C23.4502 26.7874 23.4502 27.023 23.2928 27.1802C23.2141 27.023 23.0567 27.1016 22.8994 27.1802ZM18.9648 27.2587C18.5714 27.1016 18.1779 26.9445 17.8631 26.7874C17.1549 26.4732 16.5254 26.4732 15.8959 26.7874C15.2663 27.1016 14.5581 27.4158 13.9286 27.73C11.8826 28.9869 10.4662 30.7151 9.99405 33.0718C9.83667 34.0145 10.0727 34.4858 10.9383 34.8C11.4105 34.9571 11.9613 35.0357 12.5122 35.0357C14.4007 35.0357 16.368 35.0357 18.2566 35.0357C18.3353 35.0357 18.414 35.0357 18.414 35.0357C18.4927 34.5643 18.4927 34.1716 18.5714 33.7788C18.8074 32.4433 19.1222 31.1079 19.437 29.7725C19.437 29.6154 19.437 29.3797 19.3583 29.3011C18.7287 28.7512 18.5714 28.1228 18.9648 27.2587ZM21.0108 35.1142C21.4042 35.1142 21.719 35.1142 22.1125 35.1142C22.3485 35.1142 22.5059 35.0357 22.5059 34.8C22.5059 34.4858 22.5846 34.093 22.5059 33.7788C22.2698 32.6005 22.0338 31.4221 21.719 30.2438C21.5616 29.5368 21.4829 28.9084 22.1125 28.3585C22.1125 28.2014 22.1911 27.9657 22.1911 27.8086C22.1125 27.5729 21.9551 27.4944 21.719 27.4944C21.2469 27.4944 20.7747 27.4944 20.3026 27.4944C20.0665 27.4944 19.9091 27.4944 19.7517 27.73C19.5943 27.9657 19.673 28.2014 19.8304 28.437C19.9091 28.5156 19.9878 28.5941 20.0665 28.6727C20.3026 28.9084 20.3813 29.2226 20.3026 29.6154C20.0665 30.4795 19.9091 31.4221 19.7517 32.2862C19.5943 32.9147 19.437 33.6217 19.3583 34.2501C19.2796 34.7214 19.437 34.9571 19.9091 34.9571C20.3026 35.1142 20.6173 35.1142 21.0108 35.1142Z" fill="white"/>
<path d="M24.0801 27.7298C24.0801 27.0228 24.0801 26.2372 24.0801 25.5302C24.0801 24.9018 24.1588 24.8232 24.7883 24.9018C25.6539 24.9803 26.5195 24.9018 27.3851 24.509C28.2507 24.1162 29.0376 23.5664 29.7458 22.8594C30.218 22.388 30.454 22.388 30.9262 22.8594C32.2639 24.2733 33.8378 24.9803 35.805 24.8232C36.4346 24.7447 36.5919 24.9018 36.5919 25.6088C36.5919 26.7871 36.5132 27.9654 36.5919 29.1438C36.6706 31.6575 35.7263 33.7 33.9951 35.5067C33.1295 36.4494 32.1066 37.2349 31.0836 37.8634C30.6114 38.1776 30.1393 38.1776 29.7458 37.8634C26.913 36.0566 24.7096 33.6999 24.2375 30.165C24.0801 29.3794 24.1588 28.5153 24.0801 27.7298C24.1588 27.7298 24.1588 27.7298 24.0801 27.7298ZM25.0244 25.7659C25.0244 26.8657 25.0244 27.9654 25.0244 28.9866C25.0244 30.0864 25.2604 31.1076 25.7326 32.1288C26.6769 34.2498 28.3294 35.7424 30.218 36.9207C30.454 37.0778 30.6114 36.9993 30.7688 36.8422C32.0279 36.0566 33.1295 35.1925 33.9951 34.0142C34.9394 32.8358 35.569 31.4219 35.6476 29.9293C35.7263 28.5153 35.6476 27.1799 35.6476 25.7659C35.6476 25.7659 35.6476 25.7659 35.569 25.6873C33.523 25.7659 31.7918 24.9018 30.3754 23.4878C28.8802 25.0589 27.149 25.8444 25.0244 25.7659Z" fill="white"/>
<path d="M20.9314 9.26904C21.7184 9.26904 22.4266 9.8975 22.4266 10.7616C22.4266 11.5472 21.797 12.1756 20.8528 12.1756C20.0658 12.1756 19.4363 11.5472 19.4363 10.683C19.3576 9.8975 19.9872 9.26904 20.9314 9.26904ZM20.8528 11.2329C21.1675 11.2329 21.4036 10.9973 21.4036 10.683C21.4036 10.3688 21.1675 10.1332 20.8528 10.1332C20.538 10.1332 20.2232 10.4474 20.3019 10.683C20.3019 10.9973 20.538 11.2329 20.8528 11.2329Z" fill="white"/>
<path d="M29.1155 31.8148C30.3745 30.715 31.5549 29.6152 32.6565 28.594C32.8139 28.4369 32.9713 28.2798 33.2074 28.1227C33.4435 27.9656 33.6795 27.9656 33.7582 28.2012C33.8369 28.3583 33.8369 28.594 33.8369 28.7511C33.8369 28.9082 33.6795 28.9868 33.5221 29.0653C32.1844 30.3222 30.8467 31.5791 29.4302 32.836C29.1941 32.9931 29.0368 33.0716 28.8007 32.836C28.5646 32.6789 28.4072 32.4432 28.2499 32.2076C27.8564 31.5006 27.4629 30.7936 27.0695 30.0866C26.9908 29.9294 26.9121 29.6938 26.9121 29.5367C26.9121 29.3796 27.0695 29.2225 27.2269 29.1439C27.3056 29.0654 27.5416 29.1439 27.6203 29.2225C27.7777 29.301 27.7777 29.5367 27.8564 29.6152C28.4072 30.4008 28.722 31.1078 29.1155 31.8148Z" fill="white"/>
</svg>
