<svg width="46" height="46" viewBox="0 0 46 46" fill="none" xmlns="http://www.w3.org/2000/svg">
<path d="M4.80015 45.562H40.8406C43.4374 45.562 45.6407 43.441 45.6407 40.7701V4.79184C45.6407 2.19952 43.5161 0 40.8406 0H4.80015C2.20335 0 0 2.12097 0 4.79184V40.7701C0 43.441 2.12465 45.562 4.80015 45.562Z" fill="#EE4823"/>
<path d="M22.82 36.6074C19.3576 36.6074 15.8952 36.6074 12.3541 36.6074C11.8033 36.6074 11.7246 36.4503 11.7246 35.9789C11.7246 33.8579 11.7246 31.8155 11.7246 29.6945C11.7246 28.4376 12.4328 27.495 13.6132 27.2593C15.4231 26.788 17.233 26.3167 19.0429 25.8454C19.2789 25.7669 19.3576 25.6883 19.3576 25.4526C19.4363 24.8242 19.2002 24.3528 18.7281 23.9601C17.6264 22.9388 17.233 21.5249 17.233 20.0323C17.233 19.0111 17.233 17.9898 17.233 17.0472C17.233 16.4973 17.1543 15.9474 16.9969 15.3975C16.6821 14.4549 16.3674 13.5908 16.0526 12.6481C15.7378 11.7055 16.0526 10.8413 16.9969 10.4485C20.8528 8.56321 24.7873 8.64184 28.6432 10.5272C29.4301 10.9199 29.8235 11.784 29.5088 12.6481C29.1153 13.7479 28.8005 14.8476 28.4071 15.9474C28.3284 16.1045 28.3284 16.3402 28.3284 16.5759C28.3284 17.8327 28.3284 19.1682 28.3284 20.4251C28.2497 21.9962 27.6202 23.2531 26.5185 24.2743C26.3611 24.4314 26.2824 24.5885 26.2824 24.8242C26.2824 25.1384 26.2037 25.5311 26.3611 25.7668C26.5185 25.9239 26.912 25.9239 27.2267 26.0025C28.8792 26.3953 30.4531 26.788 32.1056 27.2593C33.1285 27.495 33.9155 28.5162 33.9155 29.616C33.9155 31.8155 33.9155 33.9366 33.9155 36.1361C33.9155 36.5289 33.7581 36.686 33.3646 36.686C29.8235 36.6074 26.2824 36.6074 22.82 36.6074ZM29.194 35.7433C29.194 35.5862 29.194 35.5076 29.194 35.4291C29.194 34.7221 29.194 33.9365 29.194 33.2295C29.194 32.9153 29.3514 32.6796 29.6661 32.7582C29.9022 32.7582 30.0596 32.9153 30.0596 33.2295C30.0596 33.7794 30.0596 34.3293 30.0596 34.8006C30.0596 35.1148 30.0596 35.4291 30.0596 35.7433C31.0826 35.7433 32.0269 35.7433 32.9712 35.7433C32.9712 35.6648 32.9712 35.5862 32.9712 35.5076C32.9712 33.5437 32.9712 31.6584 32.9712 29.6945C32.9712 28.909 32.499 28.2805 31.7121 28.1234C30.6104 27.8092 29.5088 27.5736 28.4071 27.2593C27.6989 27.1022 26.9907 26.8666 26.2824 26.7095C26.2824 26.8666 26.2824 27.0237 26.2824 27.1023C26.2824 27.7307 26.2824 27.7307 25.6529 27.9664C23.9217 28.5948 22.2692 29.2233 20.538 29.8517C20.3019 29.9303 20.2232 30.0088 20.2232 30.2445C20.2232 31.9727 20.2232 33.7009 20.2232 35.3506C20.2232 35.4291 20.2232 35.5862 20.2232 35.6648C23.2135 35.7433 26.2037 35.7433 29.194 35.7433ZM22.82 15.7118C24.3152 15.7118 25.8103 15.7118 27.3054 15.7118C27.5415 15.7118 27.6202 15.6332 27.6989 15.3975C28.0136 14.3763 28.4071 13.3551 28.7219 12.3339C28.8792 11.8625 28.7219 11.4697 28.2497 11.2341C24.6299 9.50587 21.0888 9.50587 17.469 11.2341C16.9182 11.4697 16.7608 11.8626 16.9182 12.491C17.233 13.5123 17.6264 14.4549 17.9412 15.4761C18.0199 15.7117 18.0986 15.7903 18.3346 15.7903C19.8298 15.7118 21.3249 15.7118 22.82 15.7118ZM19.3576 35.7433C19.3576 35.5862 19.3576 35.5077 19.3576 35.3506C19.3576 33.4652 19.3576 31.6585 19.3576 29.7732C19.3576 29.4589 19.515 29.3018 19.7511 29.1447C20.2232 28.9876 20.6954 28.8305 21.1675 28.6734C21.2462 28.6734 21.3249 28.5948 21.4823 28.5162C20.8528 28.2805 20.3019 28.0449 19.7511 27.8878C19.515 27.8093 19.3576 27.6522 19.4363 27.4165C19.4363 27.1808 19.4363 26.9452 19.4363 26.7095C19.3576 26.7095 19.2789 26.7095 19.2789 26.7095C17.5477 27.1808 15.7378 27.5736 14.0066 28.0449C13.141 28.2806 12.7476 28.8304 12.7476 29.6945C12.7476 31.5799 12.7476 33.4652 12.7476 35.3506C12.7476 35.4291 12.7476 35.5862 12.7476 35.6648C13.7706 35.6648 14.7149 35.6648 15.6592 35.6648C15.6592 34.8007 15.6592 34.0151 15.6592 33.151C15.6592 32.8368 15.8165 32.6011 16.1313 32.6797C16.3674 32.6797 16.5248 32.8368 16.5248 33.151C16.5248 33.7794 16.5248 34.4864 16.5248 35.1148C16.5248 35.272 16.5248 35.4291 16.5248 35.6648C17.3904 35.7433 18.3346 35.7433 19.3576 35.7433ZM27.4628 17.9113C26.2824 19.4824 24.7873 20.3466 22.82 20.3466C20.8528 20.3466 19.3576 19.4824 18.1773 17.8327C18.1773 18.7754 18.0986 19.718 18.1773 20.6607C18.3346 22.7817 20.0658 24.51 22.1905 24.7456C24.3939 24.9813 26.4398 23.7244 27.2267 21.6819C27.6202 20.5036 27.3841 19.2467 27.4628 17.9113ZM18.492 16.5759C19.515 18.6969 21.3249 19.718 23.3709 19.4824C25.0234 19.2467 26.7546 17.9113 27.0693 16.5759C24.2365 16.5759 21.4036 16.5759 18.492 16.5759ZM20.2232 25.1384C20.2232 25.7668 20.2232 26.3952 20.2232 26.9451C20.2232 27.0237 20.3806 27.1023 20.4593 27.1808C21.0101 27.4165 21.561 27.5736 22.1118 27.8093C22.1905 27.8093 22.2692 27.8878 22.3479 27.8878C22.3479 27.1808 22.3479 26.4738 22.3479 25.7668C21.6397 25.5311 20.9315 25.3741 20.2232 25.1384ZM23.2135 25.7668C23.2135 26.4738 23.2135 27.1808 23.2135 27.8878C23.7643 27.6522 24.3152 27.495 24.866 27.3379C25.3381 27.1808 25.3381 27.1808 25.3381 26.631C25.3381 26.1596 25.3381 25.6097 25.3381 25.1384C24.6299 25.3741 23.9217 25.5311 23.2135 25.7668Z" fill="white"/>
<path d="M25.8101 32.2088C25.4167 32.2088 25.1019 32.2088 24.7085 32.2088C24.3937 32.2088 24.2363 32.0517 24.2363 31.816C24.2363 31.5804 24.3937 31.3447 24.7085 31.3447C25.4167 31.3447 26.1249 31.3447 26.8331 31.3447C27.1479 31.3447 27.3053 31.5018 27.3053 31.816C27.3053 32.0517 27.1479 32.2088 26.8331 32.2088C26.5184 32.2874 26.1249 32.2088 25.8101 32.2088Z" fill="white"/>
<path d="M21.954 34.408C21.7179 34.408 21.5605 34.2509 21.5605 33.9367C21.5605 33.7011 21.7179 33.5439 22.0327 33.5439C22.2688 33.5439 22.4261 33.7011 22.4261 33.9367C22.4261 34.2509 22.1901 34.408 21.954 34.408Z" fill="white"/>
<path d="M21.954 31.7372C21.7179 31.7372 21.5605 31.5015 21.5605 31.2658C21.5605 31.0302 21.7179 30.873 21.954 30.873C22.1901 30.873 22.4261 31.1087 22.4261 31.2658C22.4261 31.5015 22.1901 31.7372 21.954 31.7372Z" fill="white"/>
</svg>
