<svg width="45" height="45" viewBox="0 0 45 45" fill="none" xmlns="http://www.w3.org/2000/svg">
<g clip-path="url(#clip0_44_170)">
<path d="M4.74093 45H40.3368C42.9016 45 45.0777 42.9016 45.0777 40.2591V4.74093C45.0777 2.17617 42.9793 0 40.3368 0H4.74093C2.09845 0 0 2.09845 0 4.74093V40.3368C0 42.9016 2.09845 45 4.74093 45Z" fill="#EE4823"/>
<path d="M21.9169 34.7409C21.5283 34.7409 21.2951 34.7409 20.9842 34.6632C20.5179 34.5078 20.1293 34.1969 19.5853 34.5078C19.4298 34.5855 19.0412 34.43 18.8081 34.3523C17.8754 33.8083 16.8651 33.7306 15.777 33.7306C14.6112 33.8083 13.5231 33.7306 12.3573 33.7306C11.1915 33.7306 10.6475 33.1865 10.6475 31.943C10.6475 25.7254 10.6475 19.5078 10.6475 13.2901C10.6475 11.8912 11.0361 11.5026 12.3573 11.3471L12.435 11.2694C12.5127 9.79273 12.8236 9.55957 14.3003 9.55957C18.1086 9.55957 21.9946 9.55957 25.8029 9.55957C26.1138 9.55957 26.5801 9.71501 26.8133 10.0259C28.1345 11.2694 29.378 12.5907 30.6216 13.8342C30.9324 14.1451 31.0879 14.4559 31.0879 14.9223C31.0879 19.3523 31.0879 23.7824 31.0879 28.1347C31.0879 28.3679 31.0879 28.601 31.1656 28.7565C31.6319 28.4456 32.0205 28.057 32.4868 27.7461C32.5646 27.6684 32.72 27.6684 32.72 27.5907C32.7977 26.658 33.6526 26.5803 34.2744 26.2694C35.8288 25.4922 35.8288 25.4922 36.606 27.0466C37.3055 28.5233 38.0827 29.9223 38.7822 31.399C39.0931 32.0984 39.0153 32.4093 38.3159 32.7979C37.8495 33.0311 37.3832 33.342 36.8392 33.4974C36.5283 33.5751 36.2174 33.5751 35.8288 33.5751C35.5956 33.5751 35.3625 33.6528 35.1293 33.7306C34.7407 33.886 34.3521 34.1192 33.8858 33.886C33.6526 33.8083 33.264 33.9637 33.1086 34.1192C32.72 34.5078 32.4868 34.8964 32.176 35.3627C32.0205 35.5181 31.9428 35.9067 31.7096 35.9067C30.9324 35.9844 30.777 37.1502 29.8444 36.9948C29.6112 36.9948 29.378 37.1502 29.2226 37.228C29.0671 37.3057 28.9894 37.4611 28.834 37.4611C28.3677 37.6943 27.9013 37.8497 27.435 38.0829C26.8133 38.3938 26.5024 38.316 26.0361 37.8497C25.9583 37.6943 25.7252 37.6943 25.5697 37.6166C25.3366 37.5388 25.1034 37.4611 24.948 37.3057C24.7148 36.9948 24.4817 37.0725 24.1708 36.9948C23.7822 36.9171 23.4713 36.6062 23.1604 36.373C23.005 36.2176 22.8495 36.0622 22.6164 35.9844C22.1501 35.829 21.8392 35.3627 21.9169 34.7409ZM30.3107 28.7565C30.3107 24.0932 30.3107 19.5078 30.3107 14.9223C29.378 14.9223 28.4454 14.9223 27.5127 14.9223C26.2692 14.9223 25.8806 14.4559 25.8806 13.2901C25.8806 12.3575 25.8806 11.4249 25.8806 10.4922C25.7252 10.4922 25.5697 10.4922 25.492 10.4922C21.6837 10.4922 17.7977 10.4922 13.9894 10.4922C13.4454 10.4922 13.2899 10.7254 13.2899 11.2694C13.2899 13.2901 13.2899 15.3886 13.2899 17.4093C13.2899 21.7616 13.2899 26.0363 13.2899 30.3886C13.2899 31.1658 13.3677 31.2435 14.1449 31.2435C15.0775 31.2435 16.0102 31.2435 16.9428 31.2435C17.0982 31.2435 17.4091 31.2435 17.4091 31.0881C17.72 30.3886 18.0309 29.6891 18.3418 28.9119C17.7977 28.9119 17.3314 28.9119 16.8651 28.9119C16.2433 28.9896 16.0879 28.6787 16.0879 28.1347C16.0879 27.1243 16.0879 26.1917 16.0879 25.1813C14.9221 24.7927 14.7666 24.171 15.5438 23.3938C16.3988 22.5388 17.2537 21.6839 18.1086 20.829C18.6526 20.285 19.0412 20.285 19.5853 20.829C20.5179 21.7616 21.4506 22.6166 22.3055 23.5492C22.5387 23.7824 22.6941 24.2487 22.6164 24.4819C22.4609 24.7927 22.0723 25.0259 21.6837 25.3368C21.8392 26.0363 21.1397 27.1243 22.3832 27.8238C22.4609 28.4456 22.9273 28.5233 23.3936 28.6787C23.549 28.7565 23.6267 28.9119 23.7822 28.9119C24.0153 28.9896 24.2485 29.1451 24.4039 29.1451C25.0257 29.0673 25.6475 28.8342 26.3469 28.6787C27.7459 28.3679 28.9894 28.4456 30.3107 28.7565ZM12.5905 12.3575C11.8133 12.2798 11.5801 12.4352 11.5801 13.1347C11.5801 19.5078 11.5801 25.8031 11.5801 32.1762C11.5801 32.8756 11.7355 33.0311 12.435 33.0311C13.6008 33.0311 14.7666 33.0311 15.9324 33.0311C16.9428 33.0311 16.9428 33.0311 17.0205 32.0207C16.9428 32.0207 16.9428 32.0207 16.8651 32.0207C16.0102 32.0207 15.0775 32.0207 14.2226 32.0207C12.9791 32.0207 12.5905 31.6321 12.5905 30.3886C12.5905 24.6373 12.5905 18.886 12.5905 13.1347C12.5905 12.8238 12.5905 12.5907 12.5905 12.3575ZM24.948 30C24.2485 29.9223 23.7822 30 23.549 30.7772C23.3159 31.6321 22.9273 32.4093 22.5387 33.1865C22.4609 33.4197 22.3832 33.6528 22.2278 33.886C23.4713 32.4093 24.1708 32.4093 24.7925 33.8083C25.3366 33.6528 25.8029 33.6528 26.1915 34.1192C26.5801 34.7409 26.9687 35.285 27.8236 34.9741C27.9013 34.9741 28.1345 35.0518 28.2899 35.1295C28.834 35.4404 29.3003 35.7513 29.8444 36.0622C29.9221 36.1399 30.1552 36.0622 30.3107 35.9844C30.233 35.829 30.233 35.6736 30.1552 35.5958C29.7666 35.285 29.378 35.1295 28.9894 34.8186C28.834 34.6632 28.7563 34.43 28.6785 34.2746C28.9117 34.2746 29.2226 34.1192 29.378 34.1969C29.9221 34.5078 30.4661 34.8186 30.9324 35.1295C31.0879 35.2072 31.2433 35.1295 31.3988 35.1295C31.321 34.9741 31.321 34.7409 31.2433 34.6632C30.777 34.3523 30.233 34.0414 29.7666 33.7306C29.6112 33.5751 29.378 33.1865 29.4558 33.1088C29.6889 32.7202 29.9998 32.9534 30.233 33.1088C30.6993 33.4197 31.1656 33.7306 31.6319 33.9637C31.7874 34.0414 32.0205 34.0414 32.2537 34.0414C32.176 33.886 32.0982 33.5751 31.9428 33.4974C30.9324 32.7979 29.9221 32.1762 28.834 31.4767C28.2899 31.0881 27.6682 31.0103 27.0464 31.4767C26.8133 31.6321 26.5801 31.7875 26.3469 31.943C25.8806 32.1761 25.4143 32.1762 24.948 31.7876C24.5594 31.399 24.5594 30.9326 24.7925 30.4663C24.7925 30.3886 24.8703 30.2331 24.948 30ZM33.4972 33.0311C32.9532 32.0207 32.4868 30.9326 31.9428 29.9223C31.8651 29.8445 31.7874 29.7668 31.7096 29.7668C30.6993 29.6114 29.6889 29.4559 28.6785 29.3005C27.2019 29.0673 26.1138 29.6114 25.5697 30.7772C25.492 30.9326 25.5697 31.0881 25.492 31.2435C25.6475 31.2435 25.8806 31.2435 26.0361 31.1658C26.2692 31.0881 26.5024 30.8549 26.7355 30.6995C27.435 30.1554 28.2899 30.3109 28.9117 30.6217C30.233 31.3212 31.4765 32.1762 32.6423 33.0311C33.0309 33.342 33.1863 33.342 33.4972 33.0311ZM33.5749 27.5129C34.5076 29.3782 35.3625 31.0881 36.2951 32.8756C36.9946 32.5648 37.5387 32.2539 38.2381 31.8653C37.3055 30.0777 36.4506 28.2901 35.5179 26.5026C34.8962 26.8912 34.2744 27.2021 33.5749 27.5129ZM19.8962 27.4352C19.119 29.3005 18.3418 31.1658 17.5646 33.0311C18.264 33.342 18.8858 33.5751 19.5853 33.886C20.3625 32.0207 21.1397 30.1554 21.9169 28.2901C21.2174 27.9793 20.5956 27.6684 19.8962 27.4352ZM17.6423 28.057C17.6423 27.4352 17.6423 26.8135 17.6423 26.2694C17.6423 25.7254 17.8754 25.5699 18.3418 25.5699C18.8081 25.5699 19.1967 25.5699 19.663 25.5699C20.207 25.5699 20.4402 25.7254 20.3625 26.2694C20.2848 26.7357 20.5179 26.9689 20.9842 26.9689C20.9842 26.1917 20.9842 25.4922 20.9842 24.7927C20.9842 24.715 20.9842 24.5596 20.9065 24.4819C20.2848 23.8601 19.663 23.2383 18.9635 22.5388C18.3418 23.1606 17.7977 23.7046 17.2537 24.3264C17.176 24.4041 17.0205 24.5596 17.0205 24.715C17.0205 25.8808 17.0205 26.9689 17.0205 28.1347C17.2537 28.057 17.4091 28.057 17.6423 28.057ZM34.5076 33.2642C34.8184 33.1088 35.0516 32.9534 35.3625 32.7979C34.5853 31.3212 33.8858 29.9223 33.1863 28.4456C32.8754 28.601 32.5646 28.7565 32.3314 28.9119C33.0309 30.3886 33.7304 31.7875 34.5076 33.2642ZM23.3159 29.4559C23.005 29.3005 22.6941 29.2228 22.3832 29.0673C21.7614 30.6217 21.1397 32.0207 20.5179 33.5751C20.8288 33.7306 21.1397 33.8083 21.4506 33.9637C21.9946 32.487 22.6164 31.0103 23.3159 29.4559ZM29.6112 14.0673C28.6008 13.057 27.6682 12.1243 26.7355 11.1917C26.7355 11.9689 26.7355 12.8238 26.7355 13.601C26.7355 13.7565 27.0464 14.0673 27.2019 14.0673C27.9791 14.1451 28.834 14.0673 29.6112 14.0673ZM16.0879 24.2487C16.2433 24.171 16.3988 24.0155 16.5542 23.8601C17.2537 23.1606 17.9532 22.5388 18.5749 21.8394C18.9635 21.4508 19.1967 21.4508 19.5853 21.8394C20.2848 22.5388 20.9842 23.2383 21.6837 23.9378C21.7615 24.0155 21.9169 24.0932 21.9169 24.0932C20.9842 23.1606 19.9739 22.1502 19.0412 21.2176C18.0309 22.3057 17.0205 23.2383 16.0879 24.2487ZM18.4972 28.057C18.5749 28.057 18.6526 28.1347 18.6526 28.1347C18.9635 27.5907 19.2744 27.0466 19.663 26.4249C19.1967 26.4249 18.8858 26.4249 18.4972 26.4249C18.4972 26.9689 18.4972 27.5129 18.4972 28.057ZM24.0931 36.373C24.2485 36.2953 24.3262 36.2953 24.3262 36.2953C24.7925 35.829 25.2589 35.3627 25.6475 34.8964C25.6475 34.8186 25.6475 34.6632 25.5697 34.5855C25.492 34.5078 25.3366 34.5855 25.2589 34.5855C24.8703 34.9741 24.4039 35.4404 24.0153 35.9067C23.9376 35.9844 24.0931 36.2176 24.0931 36.373ZM24.0931 33.886C24.0153 33.7306 23.9376 33.6528 23.8599 33.6528C23.7822 33.6528 23.6267 33.6528 23.549 33.7306C23.2381 34.1192 23.005 34.5078 22.7718 34.8964C22.6941 34.9741 22.7718 35.1295 22.8495 35.2072C22.9273 35.285 23.0827 35.285 23.0827 35.285C23.4713 34.8186 23.7822 34.3523 24.0931 33.886ZM25.6475 36.9171C25.7252 36.9171 25.8029 36.9171 25.8806 36.9948C26.0361 36.8394 26.2692 36.6839 26.4247 36.5285C26.5801 36.4508 26.6578 36.2953 26.7355 36.1399C26.8133 35.9844 26.7355 35.829 26.8133 35.7513C26.6578 35.7513 26.5024 35.7513 26.4247 35.829C26.1915 36.0622 25.9583 36.2953 25.7252 36.5285C25.5697 36.5285 25.6475 36.7616 25.6475 36.9171ZM27.9791 36.9171C27.3573 36.6839 26.8133 37.1502 26.8133 37.6943C27.2796 37.3834 27.5905 37.1502 27.9791 36.9171Z" fill="white"/>
<path d="M23.9372 18.1864C25.2585 18.1864 26.5797 18.1864 27.901 18.1864C28.2118 18.1864 28.5227 18.1864 28.5227 18.575C28.5227 18.7304 28.1341 18.8859 27.901 18.8859C25.1807 18.8859 22.5383 18.8859 19.8181 18.8859C19.5072 18.8859 19.1963 18.8859 19.1963 18.4973C19.1963 18.3418 19.5849 18.1864 19.8181 18.1864C21.217 18.1087 22.5383 18.1864 23.9372 18.1864Z" fill="white"/>
<path d="M19.041 16.6322C17.9529 16.6322 16.9426 16.6322 15.8545 16.6322C15.6213 16.6322 15.2327 16.399 15.2327 16.2436C15.155 15.7772 15.5436 15.855 15.8545 15.855C17.9529 15.855 20.0514 15.855 22.1498 15.855C22.4607 15.855 22.8493 15.7772 22.8493 16.2436C22.8493 16.7099 22.4607 16.6322 22.1498 16.6322C21.1394 16.6322 20.0514 16.6322 19.041 16.6322Z" fill="white"/>
<path d="M25.9583 22.6943C26.5801 22.6943 27.2796 22.6943 27.9013 22.6943C28.1345 22.6943 28.2899 22.9275 28.5231 23.0829C28.3676 23.2384 28.1345 23.4715 27.979 23.4715C26.6578 23.4715 25.2588 23.4715 23.9376 23.4715C23.7822 23.4715 23.549 23.2384 23.3936 23.0829C23.549 22.9275 23.7822 22.7721 23.9376 22.6943C24.5594 22.6943 25.2588 22.6943 25.9583 22.6943Z" fill="white"/>
<path d="M25.3368 26.8133C24.9482 27.1242 24.6373 27.4351 24.2487 27.6682C24.0933 27.7459 23.8601 27.7459 23.627 27.7459C23.627 27.5128 23.627 27.2796 23.7047 27.1242C24.171 26.7356 24.6373 26.347 25.1036 26.0361C25.4922 25.8029 25.9586 25.7252 26.4249 26.1138C26.7358 26.347 27.2021 26.347 27.5907 26.4247C27.7461 26.5024 27.9793 26.6579 27.9793 26.8133C27.9793 26.9687 27.8238 27.2019 27.7461 27.2796C27.5907 27.3573 27.3575 27.2796 27.1244 27.2796C26.8135 27.2796 26.5803 27.2019 26.2694 27.1242C25.9586 27.0465 25.7254 26.9687 25.4145 26.9687C25.4145 26.9687 25.3368 26.891 25.3368 26.8133Z" fill="white"/>
<path d="M25.9583 21.2176C25.2588 21.2176 24.5594 21.2176 23.9376 21.2176C23.7822 21.2176 23.549 20.9845 23.3936 20.829C23.549 20.6736 23.7822 20.4404 23.9376 20.4404C25.2588 20.4404 26.5801 20.4404 27.979 20.4404C28.2122 20.4404 28.3676 20.6736 28.5231 20.829C28.2899 20.9845 28.1345 21.1399 27.9013 21.2176C27.2796 21.2176 26.5801 21.2176 25.9583 21.2176Z" fill="white"/>
<path d="M17.6423 14.3783C17.0206 14.3783 16.3211 14.3783 15.6993 14.3783C15.4662 14.3783 15.3107 14.1451 15.1553 13.9897C15.3107 13.8342 15.5439 13.6011 15.6993 13.6011C17.0206 13.6011 18.3418 13.6011 19.663 13.6011C19.8185 13.6011 20.0516 13.8342 20.2071 13.9897C20.0516 14.1451 19.8185 14.3783 19.663 14.3783C19.0413 14.3783 18.3418 14.3783 17.6423 14.3783Z" fill="white"/>
<path d="M16.7097 18.886C16.3211 18.886 16.0102 18.9637 15.6993 18.886C15.5439 18.886 15.3884 18.6528 15.1553 18.4974C15.3107 18.342 15.4662 18.1865 15.6216 18.1865C16.3211 18.1865 17.0983 18.1865 17.7978 18.1865C17.9532 18.1865 18.1086 18.4197 18.2641 18.5751C18.1086 18.7306 17.9532 18.886 17.72 18.9637C17.4092 18.9637 17.0983 18.886 16.7097 18.886Z" fill="white"/>
<path d="M36.295 30.0776C36.5282 30.3108 36.6836 30.3885 36.7613 30.4662C36.9168 30.7771 37.1499 31.1657 37.3054 31.4766C37.3831 31.632 37.2277 31.8652 37.2277 32.0206C37.0722 31.9429 36.7613 31.9429 36.6836 31.8652C36.4505 31.5543 36.2173 31.1657 36.1396 30.7771C35.9841 30.6217 36.1396 30.3885 36.295 30.0776Z" fill="white"/>
<path d="M19.7406 31.5546C19.5074 32.0209 19.352 32.4873 19.1188 32.9536C19.0411 33.0313 18.808 33.109 18.7302 33.0313C18.5748 32.9536 18.4971 32.7204 18.4971 32.565C18.6525 32.0987 18.808 31.7101 19.0411 31.3215C19.1188 31.2437 19.352 31.166 19.5074 31.166C19.5852 31.166 19.6629 31.3992 19.7406 31.5546Z" fill="white"/>
</g>
<defs>
<clipPath id="clip0_44_170">
<rect width="45" height="45" fill="white"/>
</clipPath>
</defs>
</svg>
