<svg width="44" height="45" viewBox="0 0 44 45" fill="none" xmlns="http://www.w3.org/2000/svg">
<g clip-path="url(#clip0_44_225)">
<path d="M4.63558 45H39.4404C41.9482 45 44.076 42.9016 44.076 40.2591V4.74093C44.076 2.17617 42.0242 0 39.4404 0H4.63558C2.05181 0 0 2.09845 0 4.74093V40.3368C0 42.9016 2.05181 45 4.63558 45Z" fill="#EE4823"/>
<path d="M20.8219 26.7353C20.29 27.1239 19.986 27.5125 20.062 28.3674C20.442 31.0099 18.6941 33.4192 16.1104 33.8078C13.4506 34.1964 11.0948 32.4089 10.7148 29.6887C10.3349 27.1239 12.0067 24.7146 14.5905 24.2482C15.1224 24.1705 15.7304 24.1705 16.3383 24.2482C16.7183 24.326 17.0223 24.2482 17.2503 23.9374C17.9342 23.2379 18.6181 22.5384 19.4541 21.7612C18.9221 21.2949 18.4661 20.8286 18.0102 20.3622C16.9463 19.2742 15.8824 18.1861 14.8185 17.098C14.2865 16.6317 13.6786 16.3208 13.1466 15.8545C12.9186 15.699 12.7667 15.5436 12.6147 15.3104C12.2347 14.6887 11.9307 14.1446 11.6268 13.5229C11.5508 13.2897 11.5508 12.9011 11.7028 12.6679C12.6907 11.4244 12.6907 11.5021 14.0585 12.2793C14.8185 12.7457 15.6544 13.0565 15.8064 14.1446C15.8064 14.3001 15.9584 14.3778 16.1104 14.5332C17.7062 16.1653 19.3781 17.8752 20.9739 19.5073C21.0499 19.585 21.1259 19.6628 21.2779 19.8182C22.1138 18.8856 23.0257 18.0306 23.7857 17.098C23.9376 16.9425 23.8617 16.4762 23.7857 16.1653C23.3297 12.8234 26.4454 9.94773 29.6371 10.8027C29.9411 10.8804 30.2451 11.0358 30.3971 11.269C30.4731 11.4244 30.1691 11.813 30.0171 11.9685C29.2572 12.8234 28.4212 13.6006 27.6613 14.3778C27.2813 14.7664 27.2813 14.9995 27.6613 15.3881C29.0292 16.8648 29.0292 16.8648 30.4731 15.4659C31.005 14.9218 31.6129 14.3001 32.1449 13.756C32.6769 13.212 32.9048 13.2897 33.1328 14.0669C34.0447 17.3312 31.537 20.5954 28.1933 20.2068C27.1294 20.0514 26.5974 20.5177 26.0655 21.2172C27.3573 21.6058 27.9653 22.7716 28.8772 23.6265C30.0931 24.87 31.309 26.1135 32.5249 27.3571C33.7408 28.6006 33.7408 30.2327 32.5249 31.4762C31.9169 32.098 31.385 32.7197 30.777 33.2638C29.7131 34.3519 28.1173 34.3519 27.0534 33.3415C25.1535 31.4762 23.3297 29.6109 21.5059 27.6679C21.1259 27.5902 20.9739 27.1239 20.8219 26.7353ZM29.3332 11.7353C29.0292 11.6576 28.8772 11.5799 28.8012 11.5799C26.0655 11.3467 24.0136 13.9115 24.6976 16.6317C24.8496 17.098 24.6976 17.4089 24.3936 17.7975C22.1138 20.1291 19.834 22.4607 17.5542 24.7923C17.1743 25.1809 16.8703 25.3363 16.2623 25.1809C14.5145 24.7146 12.7667 25.4918 11.9307 27.1239C11.0948 28.6783 11.3228 30.6213 12.6147 31.9425C13.9066 33.1861 15.8064 33.497 17.3262 32.5643C18.8461 31.6317 19.606 29.8441 19.1501 28.0565C18.9981 27.5125 19.1501 27.2793 19.4541 26.8907C21.8098 24.5591 24.0896 22.1498 26.4454 19.7405C26.7494 19.4296 27.0534 19.3519 27.4333 19.5073C28.8772 19.8959 30.1691 19.5073 31.309 18.497C32.2969 17.5643 32.6769 16.0099 32.2209 14.9218C31.537 15.699 30.853 16.3985 30.1691 17.098C29.3332 17.9529 28.7252 17.9529 27.8133 17.098C27.5093 16.7871 27.2053 16.4762 26.9774 16.2431C26.2934 15.5436 26.2934 14.8441 26.9774 14.1446C27.7373 13.2897 28.4972 12.5902 29.3332 11.7353ZM22.0378 25.4918C21.5059 26.0358 21.4299 26.7353 22.0378 27.2793C23.8617 29.1446 25.6095 31.0099 27.5093 32.8752C28.2693 33.6524 29.4091 33.6524 30.1691 32.8752C30.777 32.2534 31.385 31.6317 31.9929 30.9322C32.6768 30.155 32.7528 29.1446 32.0689 28.3674C30.2451 26.4244 28.3452 24.5591 26.5214 22.6161C25.9135 22.0721 25.2295 22.1498 24.8496 22.6938L24.9256 22.7716C26.9014 24.7923 28.8012 26.7353 30.777 28.756C31.005 28.9892 31.461 29.3001 31.081 29.6887C30.701 30.0773 30.4731 29.6109 30.2451 29.3778C30.2451 29.3778 30.2451 29.3778 30.1691 29.3001C28.1933 27.2793 26.2174 25.2586 24.3936 23.3156C23.7857 23.8596 23.2537 24.326 22.7218 24.7923C24.3176 26.4244 25.8375 28.0565 27.4333 29.6109C27.8893 30.0773 28.4212 30.5436 28.8772 31.0876C29.0292 31.2431 28.9532 31.5539 29.0292 31.7871C28.8012 31.7871 28.5732 31.7094 28.3452 31.6317C28.1933 31.6317 28.1173 31.4762 28.0413 31.3208C25.9895 29.5332 24.0136 27.5125 22.0378 25.4918ZM20.6699 20.3622C20.442 20.2068 20.214 20.1291 20.062 19.9736C18.5421 18.4192 16.9463 16.7871 15.4264 15.2327C15.2744 15.0773 15.0465 14.9218 15.0465 14.6887C14.8185 13.6006 13.8306 13.3674 13.0706 12.9011C12.8427 12.7457 12.2347 13.212 12.3107 13.4451C12.6147 14.0669 12.9186 14.9218 13.4506 15.2327C14.3625 15.699 14.9705 16.3985 15.6544 17.098C17.0223 18.497 18.3901 19.8959 19.758 21.3726C20.138 20.984 20.366 20.7508 20.6699 20.3622Z" fill="white"/>
<path d="M15.3507 26.5801C16.3386 26.5801 17.7825 28.0568 17.7825 29.0671C17.7825 30.0775 16.4146 31.5542 15.3507 31.4764C14.3628 31.4764 12.9189 29.9998 12.9189 28.9894C12.9949 27.979 14.3628 26.5801 15.3507 26.5801ZM15.4267 27.5127C14.7428 27.435 13.8309 28.2899 13.7549 29.0671C13.6789 29.7666 14.5908 30.6992 15.2747 30.6992C15.8827 30.777 16.7946 29.922 16.8706 29.2226C17.0226 28.5231 16.1866 27.5904 15.4267 27.5127Z" fill="white"/>
<path d="M25.6092 19.0413C25.4572 19.2745 25.3812 19.43 25.2292 19.5854C23.1774 21.6838 21.1256 23.7823 18.9978 25.8807C18.8458 26.0362 18.3899 26.1916 18.2379 26.1139C17.8579 25.803 18.1619 25.5698 18.3899 25.3367C20.4417 23.2382 22.5695 21.0621 24.6213 18.9636C24.7733 18.8082 25.0013 18.7305 25.2292 18.7305C25.3812 18.7305 25.5332 18.8859 25.6092 19.0413Z" fill="white"/>
</g>
<defs>
<clipPath id="clip0_44_225">
<rect width="44" height="45" fill="white"/>
</clipPath>
</defs>
</svg>
