<svg width="44" height="45" viewBox="0 0 44 45" fill="none" xmlns="http://www.w3.org/2000/svg">
<g clip-path="url(#clip0_44_186)">
<path d="M4.63558 45H39.4404C41.9482 45 44.076 42.9016 44.076 40.2591V4.74093C44.076 2.17617 42.0242 0 39.4404 0H4.63558C2.05181 0 0 2.09845 0 4.74093V40.3368C0 42.9016 2.05181 45 4.63558 45Z" fill="#EE4823"/>
<path d="M30.169 28.1346C30.169 28.2124 30.169 28.3678 30.169 28.4455C30.169 30.4662 30.169 32.487 30.169 34.5854C30.169 35.8289 29.4091 36.5284 28.2692 36.5284C23.1776 36.5284 18.0861 36.5284 12.9946 36.5284C12.1586 36.5284 11.5507 36.2175 11.2467 35.3626C11.1707 35.1294 11.0947 34.8963 11.0947 34.6631C11.0947 27.9015 11.0947 21.1398 11.0947 14.3782C11.0947 14.2227 11.1707 14.0673 11.2467 13.9118C12.6906 12.4351 14.1344 10.8807 15.6543 9.40406C15.8063 9.24862 15.9583 9.1709 16.1103 9.1709C20.1379 9.1709 24.1655 9.1709 28.2692 9.1709C29.4851 9.1709 30.169 9.9481 30.169 11.1139C30.169 13.601 30.169 16.1657 30.169 18.6528C30.169 18.8082 30.169 18.8859 30.397 18.9636C32.5248 19.3522 34.1206 21.2175 34.1966 23.3937C34.1966 25.6476 32.6768 27.5906 30.473 27.9792C30.321 28.0569 30.245 28.1346 30.169 28.1346ZM11.7787 14.689C11.7787 14.7668 11.7787 14.9222 11.7787 14.9999C11.7787 21.5284 11.7787 28.0569 11.7787 34.5854C11.7787 35.3626 12.1586 35.7512 12.9186 35.7512C18.0101 35.7512 23.1776 35.7512 28.2692 35.7512C28.9531 35.7512 29.3331 35.3626 29.3331 34.6631C29.3331 32.5647 29.3331 30.4662 29.3331 28.3678C29.3331 28.2123 29.2571 28.1346 29.1051 28.1346C27.2053 27.8237 25.9134 26.8134 25.3054 24.9481C25.2294 24.7149 25.0775 24.6372 24.8495 24.6372C21.6578 24.6372 18.4661 24.6372 15.2743 24.6372C14.9704 24.6372 14.8184 24.4818 14.8184 24.2486C14.8184 24.0155 14.9704 23.86 15.2743 23.86C15.3503 23.86 15.4263 23.86 15.5023 23.86C18.542 23.86 21.6578 23.86 24.6975 23.86C24.8495 23.86 24.9255 23.86 25.0015 23.86C25.0775 23.316 25.0775 22.8497 25.2294 22.4611C25.3814 21.9947 25.5334 21.6061 25.7614 21.1398C25.6854 21.1398 25.5334 21.1398 25.4574 21.1398C22.1137 21.1398 18.77 21.1398 15.4263 21.1398C15.3503 21.1398 15.2743 21.1398 15.1224 21.1398C14.8944 21.1398 14.7424 20.9844 14.7424 20.7512C14.7424 20.518 14.8944 20.3626 15.1224 20.3626C15.1984 20.3626 15.2743 20.3626 15.3503 20.3626C18.77 20.3626 22.1897 20.3626 25.6094 20.3626C25.8374 20.3626 26.0654 20.3626 26.1414 20.518C26.5973 20.2072 27.0533 19.8186 27.5852 19.5854C28.1172 19.3522 28.6491 19.1968 29.2571 19.0414C29.2571 19.0414 29.2571 18.9636 29.2571 18.8859C29.2571 16.3989 29.2571 13.8341 29.2571 11.3471C29.2571 10.5699 28.8771 10.1813 28.1172 10.1813C24.2415 10.1813 20.3659 10.1813 16.4902 10.1813C16.4142 10.1813 16.3382 10.1813 16.2623 10.1813C16.2623 11.1139 16.2623 12.0465 16.2623 12.9015C16.2623 13.9896 15.5023 14.7668 14.4384 14.8445C13.6025 14.8445 12.8426 14.8445 12.0066 14.8445C12.0066 14.689 11.9307 14.689 11.7787 14.689ZM29.637 27.3574C31.6889 27.3574 33.3607 25.6476 33.3607 23.5491C33.3607 21.4507 31.6129 19.7408 29.561 19.8186C27.5092 19.8186 25.9134 21.5284 25.9134 23.6269C25.9134 25.6476 27.6612 27.3574 29.637 27.3574ZM15.5783 10.7253C14.5144 11.7357 13.5265 12.8237 12.4626 13.8341C13.1465 13.8341 13.9065 13.8341 14.5904 13.8341C15.1224 13.8341 15.5023 13.4455 15.5023 12.9015C15.5783 12.202 15.5783 11.4248 15.5783 10.7253Z" fill="white"/>
<path d="M20.594 30.9326C22.3419 30.9326 24.0137 30.9326 25.7615 30.9326C25.8375 30.9326 25.9135 30.9326 25.9895 30.9326C26.2175 30.9326 26.3695 31.0881 26.3695 31.3212C26.3695 31.5544 26.2175 31.7098 25.9895 31.7098C25.9135 31.7098 25.8375 31.7098 25.7615 31.7098C22.3419 31.7098 18.8462 31.7098 15.4265 31.7098C15.3505 31.7098 15.2745 31.7098 15.1985 31.7098C14.9705 31.6321 14.8945 31.5544 14.8945 31.3212C14.8945 31.0881 15.0465 31.0103 15.1985 30.9326C15.2745 30.9326 15.3505 30.9326 15.5025 30.9326C17.1743 30.9326 18.8462 30.9326 20.594 30.9326Z" fill="white"/>
<path d="M20.594 28.1346C18.9222 28.1346 17.1743 28.1346 15.5025 28.1346C15.4265 28.1346 15.3505 28.1346 15.1985 28.1346C14.9705 28.1346 14.8945 27.9792 14.8945 27.746C14.8945 27.5129 15.0465 27.4351 15.1985 27.3574C15.2745 27.3574 15.3505 27.3574 15.4265 27.3574C18.8462 27.3574 22.2659 27.3574 25.6855 27.3574C25.7615 27.3574 25.7615 27.3574 25.8375 27.3574C26.1415 27.3574 26.3695 27.5129 26.3695 27.746C26.3695 27.9792 26.2175 28.1346 25.8375 28.1346C24.0897 28.1346 22.3419 28.1346 20.594 28.1346Z" fill="white"/>
<path d="M20.594 17.409C18.8462 17.409 17.1743 17.409 15.4265 17.409C15.3505 17.409 15.2745 17.409 15.1985 17.409C15.0465 17.409 14.8945 17.2536 14.8945 17.0204C14.8945 16.865 14.9705 16.7096 15.1225 16.6318C15.1985 16.6318 15.3505 16.6318 15.4265 16.6318C18.8462 16.6318 22.3419 16.6318 25.7615 16.6318C25.8375 16.6318 25.9135 16.6318 25.9895 16.6318C26.2175 16.7096 26.2935 16.7873 26.2935 17.0204C26.2935 17.2536 26.1415 17.3313 25.9895 17.409C25.9135 17.409 25.8375 17.409 25.6855 17.409C24.0137 17.409 22.2659 17.409 20.594 17.409Z" fill="white"/>
<path d="M28.8011 24.2487C29.4091 23.627 29.941 23.0052 30.549 22.4612C30.625 22.3834 30.7769 22.228 30.8529 22.1503C31.0049 21.9948 31.3089 21.9948 31.4609 22.1503C31.6129 22.3057 31.6129 22.5389 31.3849 22.6943C30.625 23.4715 29.865 24.2487 29.0291 25.0259C28.8011 25.2591 28.5731 25.2591 28.4212 25.0259C28.1932 24.7928 27.9652 24.6373 27.8132 24.4042C27.6612 24.2487 27.6612 24.0156 27.8132 23.8601C27.9652 23.7047 28.1932 23.7047 28.4212 23.8601C28.4971 23.9378 28.5731 24.0156 28.6491 24.0933C28.6491 24.0933 28.7251 24.171 28.8011 24.2487Z" fill="white"/>
</g>
<defs>
<clipPath id="clip0_44_186">
<rect width="44" height="45" fill="white"/>
</clipPath>
</defs>
</svg>
