<svg width="45" height="45" viewBox="0 0 45 45" fill="none" xmlns="http://www.w3.org/2000/svg">
<g clip-path="url(#clip0_44_197)">
<path d="M4.74093 45H40.3368C42.9016 45 45.0777 42.9016 45.0777 40.2591V4.74093C45.0777 2.17617 42.9793 0 40.3368 0H4.74093C2.09845 0 0 2.09845 0 4.74093V40.3368C0 42.9016 2.09845 45 4.74093 45Z" fill="#EE4823"/>
<path d="M20.1293 16.5542C16.7096 14.3003 17.4091 10.4143 19.1189 8.70444C21.1396 6.76144 24.3262 6.91688 26.1915 8.9376C27.979 10.9583 27.979 14.6112 24.9479 16.4765C25.492 16.7096 26.1137 16.8651 26.6578 17.0982C29.1448 18.1863 30.9324 20.0516 32.0205 22.5386C32.1759 22.8495 32.3314 23.1604 32.6422 23.3936C33.1863 23.7822 33.5749 24.3262 34.0412 24.7925C34.2744 25.0257 34.2744 25.1811 34.0412 25.4143C33.9635 25.492 33.9635 25.5697 33.8858 25.6474C33.1086 26.6578 33.1086 26.6578 33.6526 27.8236C33.7303 27.9013 33.808 27.9791 33.9635 28.0568C34.3521 28.1345 34.7407 28.2122 35.1293 28.2122C35.4402 28.2122 35.5956 28.4454 35.5956 28.7563C35.5956 29.378 35.5956 29.9998 35.5956 30.6215C35.5956 30.9324 35.4402 31.0879 35.1293 31.1656C34.7407 31.2433 34.2744 31.2433 33.8858 31.321C33.808 31.321 33.6526 31.3987 33.5749 31.4765C33.5749 31.8651 33.4194 32.2537 33.264 32.6423C33.264 32.72 33.264 32.8754 33.3417 33.0309C33.5749 33.3417 33.808 33.6526 34.0412 33.9635C34.2744 34.1967 34.2744 34.5076 34.0412 34.7407C33.5749 35.1293 33.1863 35.5956 32.72 36.062C32.4868 36.2951 32.2536 36.2951 32.0205 36.062C31.9428 35.9842 31.865 35.9842 31.865 35.9065C30.8547 35.1293 30.8547 35.1293 29.6889 35.6734C29.6111 35.7511 29.4557 35.9065 29.4557 35.9842C29.378 36.3728 29.378 36.8392 29.2225 37.2278C29.1448 37.3832 28.9117 37.6164 28.7562 37.6164C28.1345 37.6941 27.435 37.6941 26.8132 37.6164C26.6578 37.6164 26.5023 37.3832 26.3469 37.2278C26.2692 37.15 26.2692 37.0723 26.2692 36.9946C26.3469 35.9842 25.8029 35.4402 24.8702 35.207C24.7148 35.207 24.5593 35.207 24.4816 35.2848C24.1707 35.5179 23.8598 35.7511 23.549 35.9842C23.3158 36.2174 23.0826 36.2174 22.8495 35.9065C22.4609 35.4402 21.9946 35.0516 21.5282 34.5853C21.2951 34.3521 21.2951 34.1189 21.4505 33.8858C21.5282 33.8081 21.5282 33.7304 21.606 33.7304C22.3832 32.72 22.3832 32.72 21.8391 31.5542C21.6837 31.1656 21.3728 31.321 21.1396 31.4765C19.9738 32.0982 18.808 32.7977 17.72 33.4972C17.3314 33.7303 16.9428 33.7303 16.5542 33.4972C14.3003 32.1759 12.0464 30.8547 9.79249 29.6112C9.48161 29.4557 9.32617 29.2226 9.32617 28.834C9.32617 26.1915 9.32617 23.549 9.32617 20.8288C9.32617 20.5179 9.48161 20.2848 9.71477 20.1293C12.0464 18.8081 14.378 17.4868 16.6319 16.0879C16.9428 15.9324 17.1759 15.9324 17.4868 16.0879C17.6422 16.1656 17.8754 16.2433 18.0308 16.3987C18.7303 17.0205 19.4298 16.9428 20.1293 16.5542ZM33.264 34.2744C32.9531 33.8858 32.72 33.4972 32.4091 33.1863C32.2536 32.9531 32.2536 32.7977 32.3314 32.4868C32.4868 32.1759 32.72 31.7873 32.7977 31.3987C32.9531 30.777 33.264 30.5438 33.8858 30.4661C34.8961 30.3884 34.8961 30.3107 34.7407 29.3003C34.7407 29.1449 34.5852 28.9894 34.4298 28.9894C34.1189 28.9117 33.7303 28.9117 33.4194 28.834C33.1086 28.834 32.9531 28.6785 32.8754 28.3677C32.72 27.9013 32.5645 27.435 32.3314 26.9687C32.1759 26.6578 32.1759 26.4247 32.4091 26.1915C32.6422 25.8806 32.9531 25.492 33.1086 25.2588C32.7977 24.948 32.4868 24.6371 32.1759 24.2485C31.7873 24.5594 31.4764 24.8702 31.0878 25.0257C30.9324 25.1034 30.6215 25.1034 30.4661 25.1034C29.9997 24.948 29.4557 24.7148 28.9894 24.4816C28.8339 24.4039 28.6008 24.1708 28.6008 24.0153C28.5231 23.6267 28.4453 23.1604 28.3676 22.6941C27.9013 22.6941 27.5127 22.6941 27.0464 22.6941C26.9687 23.1604 26.8909 23.549 26.8909 24.0153C26.8909 24.3262 26.7355 24.4816 26.4246 24.5594C25.9583 24.7148 25.492 24.948 25.0257 25.1811C24.7148 25.3366 24.5593 25.3366 24.3262 25.1034C24.0153 24.7925 23.6267 24.5594 23.3158 24.3262C22.9272 24.6371 22.6163 24.948 22.3054 25.1811C22.5386 25.5697 22.7718 25.8806 23.0826 26.1915C23.3158 26.4247 23.3158 26.7355 23.1604 27.0464C22.9272 27.435 22.7718 27.9013 22.6163 28.3677C22.5386 28.7563 22.3054 28.9117 21.9168 28.9117C21.5282 28.9117 21.1396 28.9894 20.6733 29.0671C20.6733 29.5335 20.6733 29.9221 20.6733 30.3884C21.1396 30.4661 21.5282 30.5438 21.9168 30.5438C22.2277 30.5438 22.3832 30.6993 22.5386 31.0101C22.694 31.4765 22.9272 31.9428 23.1604 32.4091C23.3158 32.6423 23.3158 32.8754 23.0826 33.1086C22.7718 33.4195 22.5386 33.8081 22.3054 34.1967C22.6163 34.5076 22.9272 34.8184 23.2381 35.1293C23.6267 34.8962 23.9376 34.5853 24.3262 34.3521C24.5593 34.1967 24.7925 34.1967 25.0257 34.2744C25.492 34.5076 25.9583 34.7407 26.4246 34.8962C26.7355 34.9739 26.8909 35.1293 26.8909 35.4402C26.9687 35.9065 27.0464 36.2951 27.0464 36.7614C27.5127 36.7614 27.9013 36.7614 28.3676 36.7614C28.4453 36.2951 28.4453 35.8288 28.6008 35.4402C28.6785 35.2848 28.8339 35.0516 29.0671 34.9739C29.5334 34.7407 29.9997 34.5853 30.4661 34.3521C30.7769 34.1967 30.9324 34.1967 31.2433 34.4298C31.5541 34.7407 31.9428 34.9739 32.2536 35.207C32.6422 34.8184 32.8754 34.5853 33.264 34.2744ZM18.5749 12.2796C18.5749 14.5335 20.4402 16.3987 22.6163 16.321C24.8702 16.321 26.6578 14.4557 26.6578 12.2796C26.6578 10.0257 24.8702 8.23812 22.6163 8.23812C20.3624 8.23812 18.5749 10.0257 18.5749 12.2796ZM16.6319 32.5645C16.6319 32.4868 16.7096 32.4091 16.7096 32.4091C16.7096 30.0775 16.7096 27.7459 16.7096 25.3366C16.7096 25.2588 16.7096 25.1034 16.6319 25.0257C16.0878 24.7148 15.5438 24.4039 14.922 24.0153C14.922 25.3366 14.922 26.5801 14.922 27.8236C14.922 27.9791 14.6889 28.2122 14.6111 28.3677C14.4557 28.2899 14.2225 28.2122 14.0671 28.0568C13.7562 27.6682 13.6008 27.2019 13.2899 26.8132C13.1345 26.891 13.0567 26.891 12.979 26.9687C12.2795 27.3573 12.0464 27.2796 12.0464 26.4246C12.0464 25.1811 12.0464 24.0153 12.0464 22.7718C12.0464 22.6164 11.9687 22.3832 11.8909 22.3055C11.3469 21.9946 10.8806 21.6837 10.2588 21.3728C10.2588 21.5283 10.2588 21.606 10.2588 21.6837C10.2588 24.0153 10.2588 26.2692 10.2588 28.6008C10.2588 28.7563 10.4143 28.9894 10.5697 29.0671C12.0464 29.9221 13.5231 30.777 14.9997 31.6319C15.4661 31.8651 16.0101 32.2537 16.6319 32.5645ZM24.8702 24.1708C26.1137 23.8599 26.1137 23.8599 26.2692 22.6164C26.2692 22.5386 26.2692 22.4609 26.2692 22.3055C26.2692 21.9169 26.5023 21.7614 26.8909 21.7614C27.5127 21.7614 28.0567 21.7614 28.6785 21.7614C28.9894 21.7614 29.2225 21.9169 29.2225 22.2278C29.2225 22.3832 29.3003 22.5386 29.3003 22.6941C29.3003 23.3158 29.5334 23.8599 30.2329 23.9376C30.3106 23.9376 30.4661 24.0153 30.5438 24.093C30.9324 24.4039 31.1656 23.9376 31.3987 23.8599C31.7096 23.7044 31.5541 23.4713 31.4764 23.3158C30.0775 19.3521 26.036 16.7873 21.7614 17.1759C21.2174 17.2537 20.6733 17.3314 20.1293 17.4868C21.5282 18.4195 22.9272 19.1967 24.3262 19.9739C24.7925 20.207 25.0257 20.5179 24.9479 21.062C24.7925 22.15 24.8702 23.1604 24.8702 24.1708ZM24.0153 21.3728C23.8598 21.4506 23.7821 21.4506 23.7044 21.5283C21.7614 22.6941 19.7407 23.7822 17.7977 24.948C17.5645 25.1034 17.4868 25.2588 17.4868 25.492C17.4868 27.7459 17.4868 29.9221 17.4868 32.1759C17.4868 32.2537 17.4868 32.4091 17.5645 32.5645C18.4194 32.0982 19.1966 31.6319 19.9738 31.1656C19.8961 31.0101 19.8184 30.8547 19.8184 30.777C19.8184 30.0775 19.8184 29.4557 19.8184 28.7563C19.8184 28.4454 19.9738 28.2899 20.2847 28.2899C20.6733 28.2122 21.0619 28.2122 21.4505 28.1345C21.606 28.1345 21.7614 27.9791 21.8391 27.8236C22.3832 27.0464 22.2277 26.2692 21.5282 25.6474L21.4505 25.5697C21.2174 25.3366 21.2951 25.1034 21.5282 24.8702C21.8391 24.5594 22.15 24.2485 22.4609 23.9376C23.0826 23.3158 23.0826 23.3158 23.8598 23.7822H23.9376C24.0153 22.9272 24.0153 22.15 24.0153 21.3728ZM10.5697 20.5956C11.1137 20.9065 11.5801 21.1397 11.9687 21.4506C12.2018 21.606 12.435 21.606 12.6681 21.4506C14.6111 20.3625 16.4764 19.1967 18.4194 18.1086C18.4972 18.0309 18.6526 17.9531 18.808 17.8754C18.264 17.5645 17.7977 17.3314 17.3314 17.0205C17.0982 16.8651 16.9428 16.8651 16.7096 17.0205C15.1552 17.9531 13.6008 18.8081 12.1241 19.663C11.6578 19.9739 11.1915 20.2848 10.5697 20.5956ZM23.6267 20.5956C23.0826 20.2848 22.6163 19.9739 22.0723 19.7407C21.9168 19.663 21.6837 19.663 21.5282 19.7407C19.5852 20.8288 17.6422 21.9946 15.6992 23.0827C15.6215 23.1604 15.4661 23.2381 15.3106 23.3158C15.8547 23.6267 16.321 23.8599 16.7873 24.1708C17.0205 24.3262 17.1759 24.3262 17.4091 24.1708C18.808 23.3158 20.207 22.5386 21.606 21.7614C22.2277 21.3728 22.8495 20.9842 23.6267 20.5956ZM13.2899 22.15C13.6008 22.3055 13.8339 22.4609 14.0671 22.6164C14.378 22.8495 14.6111 22.8495 14.9997 22.6164C16.865 21.5283 18.7303 20.4402 20.6733 19.3521C20.751 19.2744 20.9065 19.1967 21.0619 19.1189C20.751 18.9635 20.5179 18.8858 20.3624 18.6526C20.0516 18.4195 19.7407 18.4195 19.4298 18.6526C17.5645 19.7407 15.7769 20.8288 13.9117 21.8392C13.6008 21.9169 13.4453 21.9946 13.2899 22.15ZM14.0671 26.2692C14.0671 25.3366 14.0671 24.4816 14.0671 23.7044C14.0671 23.6267 13.9894 23.549 13.9117 23.4713C13.6008 23.2381 13.2122 23.0827 12.8236 22.8495C12.8236 23.9376 12.8236 24.948 12.8236 25.9583C13.5231 25.7252 13.5231 25.7252 14.0671 26.2692Z" fill="white"/>
<path d="M30.8549 29.7665C30.8549 31.4764 29.4559 32.8753 27.7461 32.8753C26.0362 32.8753 24.6373 31.4764 24.715 29.7665C24.715 28.0567 26.114 26.6577 27.8238 26.6577C29.4559 26.6577 30.8549 28.0567 30.8549 29.7665ZM27.7461 31.9427C28.9896 31.9427 30 30.9323 30 29.6888C30 28.4453 28.9896 27.4349 27.7461 27.4349C26.5026 27.4349 25.5699 28.4453 25.5699 29.6888C25.5699 31.01 26.5803 31.9427 27.7461 31.9427Z" fill="white"/>
</g>
<defs>
<clipPath id="clip0_44_197">
<rect width="45" height="45" fill="white"/>
</clipPath>
</defs>
</svg>
