<svg width="45" height="45" viewBox="0 0 45 45" fill="none" xmlns="http://www.w3.org/2000/svg">
<g clip-path="url(#clip0_44_577)">
<path d="M4.74093 45H40.3368C42.9016 45 45.0777 42.9016 45.0777 40.2591V4.74093C45.0777 2.17617 42.9793 0 40.3368 0H4.74093C2.09845 0 0 2.09845 0 4.74093V40.3368C0 42.9016 2.09845 45 4.74093 45Z" fill="#EE4823"/>
<path d="M22.7717 35.1296C19.8184 35.0519 17.5645 34.1192 15.6992 32.1762C14.2225 30.6218 13.3676 28.6788 13.2122 26.5026C13.1344 25.1814 13.3676 23.8602 13.7562 22.6166C14.5334 20.285 15.7769 18.1866 17.0982 16.1659C18.1862 14.456 19.4298 12.9016 20.8287 11.4249C21.2173 11.0363 21.6837 10.57 22.0723 10.1814C22.3831 9.87052 22.694 9.87052 23.0049 10.1814C23.9375 11.0363 24.7925 11.969 25.5697 12.9016C27.1241 14.8446 28.523 16.8653 29.6888 19.0415C30.466 20.4405 31.1655 21.9172 31.5541 23.5493C32.1759 25.9586 31.9427 28.2902 30.6992 30.3887C29.3002 32.9534 27.1241 34.5078 24.2484 35.0519C23.7044 35.0519 23.0826 35.0519 22.7717 35.1296ZM22.4609 11.2695C21.9945 11.7358 21.5282 12.2021 21.1396 12.6684C19.7407 14.3006 18.4194 16.0104 17.2536 17.8757C16.2432 19.5078 15.3883 21.2177 14.7666 23.0052C14.378 24.0933 14.2225 25.1814 14.3002 26.3472C14.5334 28.4457 15.3883 30.2332 16.9427 31.7099C19.1189 33.6529 21.6837 34.2747 24.4816 33.5752C26.58 33.0311 28.2122 31.8653 29.378 30.0001C30.2329 28.6788 30.6215 27.2021 30.6215 25.6477C30.6215 24.9482 30.466 24.2488 30.3106 23.5493C29.8443 21.9949 29.2225 20.5959 28.4453 19.1969C27.1241 16.7876 25.4919 14.5337 23.6267 12.4353C23.3158 12.1244 22.9272 11.7358 22.4609 11.2695Z" fill="white"/>
<path d="M22.3833 31.7875C20.7512 31.7097 19.3522 31.1657 18.1864 29.9222C17.176 28.8341 16.632 27.5906 16.4766 26.1139C16.4766 25.9584 16.4766 25.803 16.4766 25.7253C16.4766 25.3367 16.7097 25.1035 17.0983 25.1035C17.4092 25.1035 17.6424 25.3367 17.7201 25.7253C17.7978 26.1916 17.7978 26.5802 17.8755 27.0465C18.3418 28.9118 20.0517 30.3885 21.917 30.6217C22.1501 30.6217 22.3056 30.6217 22.5387 30.6994C22.9273 30.6994 23.1605 30.9325 23.1605 31.3211C23.1605 31.7097 22.9273 31.9429 22.5387 31.9429C22.3833 31.7875 22.3833 31.7875 22.3833 31.7875Z" fill="white"/>
</g>
<defs>
<clipPath id="clip0_44_577">
<rect width="45" height="45" fill="white"/>
</clipPath>
</defs>
</svg>
