<svg width="45" height="45" viewBox="0 0 45 45" fill="none" xmlns="http://www.w3.org/2000/svg">
<g clip-path="url(#clip0_44_599)">
<path d="M4.74093 45H40.3368C42.9016 45 45.0777 42.9016 45.0777 40.2591V4.74093C45.0777 2.17617 42.9793 0 40.3368 0H4.74093C2.09845 0 0 2.09845 0 4.74093V40.3368C0 42.9016 2.09845 45 4.74093 45Z" fill="#EE4823"/>
<path d="M14.0681 26.4251C13.7572 28.8344 13.3686 31.166 12.2028 33.3422C12.7469 33.3422 13.2132 33.4199 13.6795 33.3422C13.9904 33.2644 14.3013 32.9536 14.4567 32.6427C14.8453 31.8655 15.1562 31.0106 15.4671 30.1556C15.6225 29.767 15.6225 29.3784 15.778 28.9898C15.8557 28.679 16.0111 28.4458 16.3997 28.5235C16.7883 28.6012 16.7883 28.9121 16.7883 29.223C16.4775 30.6997 16.0889 32.0986 15.3117 33.4199C16.4775 33.8085 17.1769 33.5753 17.6433 32.4872C18.1096 31.3992 18.3427 30.3111 18.7313 29.223C18.8091 29.0676 18.7313 28.9121 18.8091 28.8344C18.9645 28.679 19.1977 28.6012 19.3531 28.6012C19.5085 28.6012 19.664 28.8344 19.664 28.9898C19.7417 29.1453 19.664 29.3007 19.5863 29.4562C19.2754 30.8551 18.8868 32.2541 18.1096 33.4976C18.4205 33.4976 18.7313 33.4976 18.9645 33.4976C19.2754 33.4976 19.5085 33.653 19.5085 33.9639C19.5085 34.2748 19.2754 34.4302 18.9645 34.4302C16.3997 34.4302 13.835 34.4302 11.2702 34.4302C10.9593 34.4302 10.7262 34.3525 10.6484 34.0416C10.6484 33.8085 10.7262 33.5753 10.8039 33.4199C11.3479 32.9536 11.6588 32.4095 11.892 31.7878C12.5914 30.0779 12.9023 28.2904 13.0578 26.4251C13.0578 26.0365 12.98 25.5701 12.9023 25.1815C12.6692 23.6271 13.3686 22.4613 15.0008 22.1505C15.5448 21.995 16.0889 21.8396 16.6329 21.7619C17.0215 21.6841 17.0992 21.5287 17.0992 21.2178C17.0992 18.4199 17.0992 15.5442 17.0992 12.7463C17.0992 11.5805 17.9541 10.7256 19.0422 10.7256C20.208 10.7256 21.0629 11.5805 21.0629 12.7463C21.0629 15.5442 21.0629 18.3422 21.0629 21.1401C21.0629 21.5287 21.1407 21.7619 21.5293 21.7619C22.0733 21.8396 22.6951 21.995 23.2391 22.1505C24.5604 22.4613 25.3376 23.5494 25.1821 24.9484C25.1821 25.2593 25.1044 25.5701 25.0267 25.9587C24.8712 26.3473 24.7935 26.4251 24.2495 26.4251C20.9852 26.4251 17.7987 26.4251 14.5344 26.4251C14.379 26.4251 14.2236 26.4251 14.0681 26.4251ZM24.0163 25.4924C24.094 25.2593 24.094 24.9484 24.1718 24.7152C24.2495 24.0935 23.9386 23.3163 23.2391 23.1608C22.2287 22.8499 21.2184 22.6168 20.208 22.5391C18.5759 22.3836 16.9438 22.6168 15.3117 23.0054C14.1458 23.3163 13.4464 24.1712 13.9904 25.4924C17.3324 25.4924 20.6743 25.4924 24.0163 25.4924ZM20.0526 21.5287C20.0526 21.2955 20.0526 21.1401 20.0526 20.9847C20.0526 18.653 20.0526 16.3214 20.0526 13.9898C20.0526 13.5235 20.0526 13.0572 20.0526 12.5909C20.0526 12.2023 19.8194 11.8914 19.4308 11.7359C19.1199 11.5805 18.7313 11.6582 18.4205 11.8137C18.1096 12.0468 18.0319 12.3577 18.0319 12.6686C18.0319 15.5442 18.0319 18.3422 18.0319 21.2178C18.0319 21.2955 18.0319 21.3733 18.0319 21.5287C18.7313 21.5287 19.3531 21.5287 20.0526 21.5287Z" fill="white"/>
<path d="M26.9703 34.3526C24.8719 34.3526 22.7734 34.3526 20.675 34.3526C20.0532 34.3526 19.8978 34.1972 19.9755 33.5754C20.1309 32.1764 20.8304 31.2438 22.0739 30.6997C22.3071 30.622 22.3848 30.4666 22.3848 30.2334C22.4625 28.7567 23.4729 27.5132 24.8719 27.1246C26.2708 26.736 27.7475 27.2023 28.6024 28.4459C28.7579 28.679 28.991 28.7567 29.2242 28.679C30.7786 28.2904 32.1776 28.679 33.1879 29.8448C34.1983 31.0106 34.4315 32.4096 33.8874 33.8863C33.732 34.2749 33.4988 34.4303 33.0325 34.4303C31.1672 34.3526 29.0688 34.3526 26.9703 34.3526ZM21.0636 33.3422C21.1413 33.3422 21.219 33.3422 21.2967 33.3422C25.1828 33.3422 29.0688 33.3422 32.9548 33.3422C33.2657 33.3422 33.2657 33.1868 33.3434 32.9536C33.5765 31.7878 33.2657 30.7775 32.333 30.0003C31.4004 29.2231 30.3123 29.1453 29.2242 29.6117C28.6024 29.8448 28.5247 29.8448 28.2138 29.2231C27.6698 28.2904 26.8926 27.8241 25.8045 27.8241C24.561 27.9018 23.3952 29.1453 23.5506 30.1557C24.1724 30.3889 24.7164 30.5443 25.2605 30.7775C25.6491 30.9329 25.7268 31.2438 25.5714 31.4769C25.3382 31.7878 25.105 31.7101 24.7941 31.5547C24.3278 31.3992 23.8615 31.2438 23.3952 31.2438C22.2294 31.3992 21.1413 32.4096 21.0636 33.3422Z" fill="white"/>
<path d="M29.3794 23.7049C29.3794 24.0935 29.0686 24.4043 28.68 24.4821C28.2914 24.4821 27.9805 24.1712 27.9805 23.7826C27.9805 23.394 28.2914 23.0054 28.68 23.0054C29.0686 23.0054 29.3794 23.3163 29.3794 23.7049Z" fill="white"/>
<path d="M30.856 25.7255C30.856 26.1141 30.5451 26.5027 30.1565 26.5027C29.7679 26.5027 29.457 26.1919 29.457 25.8033C29.457 25.4147 29.7679 25.0261 30.1565 25.0261C30.5451 24.9483 30.856 25.2592 30.856 25.7255Z" fill="white"/>
<path d="M32.877 25.7254C32.877 25.3368 33.1878 25.0259 33.6542 25.0259C34.0428 25.0259 34.3536 25.4145 34.3536 25.8031C34.3536 26.1917 34.0428 26.5026 33.6542 26.5026C33.1878 26.4248 32.877 26.114 32.877 25.7254Z" fill="white"/>
</g>
<defs>
<clipPath id="clip0_44_599">
<rect width="45" height="45" fill="white"/>
</clipPath>
</defs>
</svg>
