<svg width="45" height="45" viewBox="0 0 45 45" fill="none" xmlns="http://www.w3.org/2000/svg">
<g clip-path="url(#clip0_44_584)">
<path d="M4.74093 45H40.3368C42.9016 45 45.0777 42.9016 45.0777 40.2591V4.74093C45.0777 2.17617 42.9793 0 40.3368 0H4.74093C2.09845 0 0 2.09845 0 4.74093V40.3368C0 42.9016 2.09845 45 4.74093 45Z" fill="#EE4823"/>
<path d="M36.4501 22.3057C36.4501 29.7668 30.3102 35.829 22.8491 35.829C15.3879 35.829 9.24805 29.7668 9.24805 22.228C9.24805 14.6891 15.3879 8.62695 22.9268 8.62695C30.3879 8.70467 36.4501 14.7668 36.4501 22.3057ZM32.1755 13.9896C26.3465 19.8187 20.4398 25.7254 14.6107 31.5544C19.1962 36.0622 27.2791 35.7513 32.0201 30.7772C36.9942 25.4145 35.9061 17.7202 32.1755 13.9896ZM13.5227 30.4663C19.4294 24.6373 25.2584 18.7306 31.0874 12.9016C26.5797 8.54923 18.8076 8.70467 14.0667 13.2902C9.32577 18.0311 9.09261 25.8031 13.5227 30.4663Z" fill="white"/>
<path d="M28.0558 20.6732C28.289 21.4504 28.4444 22.1499 28.6776 22.8494C29.5325 22.9271 30.3874 23.0048 31.3201 23.1602C31.5532 23.1602 31.9418 23.3157 32.0973 23.4711C32.3304 23.6266 32.4082 24.0152 32.5636 24.2483C32.2527 24.326 31.9418 24.4815 31.7087 24.4815C30.9315 24.4038 30.232 24.1706 29.4548 24.0929C28.9107 24.0152 28.6776 24.326 28.5999 24.8701C28.5221 25.5696 28.289 26.269 28.1335 26.8131C28.9885 27.4348 29.7657 28.0566 30.5429 28.7561C30.776 28.9115 30.6206 29.4556 30.6983 29.7665C30.3874 29.6887 30.0765 29.611 29.7657 29.4556C29.4548 29.3001 29.2993 28.9893 28.9885 28.7561C27.8227 27.8234 27.6672 27.8234 26.5791 28.8338C24.5584 30.6214 21.6828 30.7768 19.662 29.2224C19.4289 29.067 19.3512 28.6007 19.2734 28.2898C19.5843 28.2898 20.0506 28.1343 20.2061 28.2898C23.2372 30.6214 27.2786 28.3675 27.5895 24.4815C27.6672 23.3934 27.3563 22.2276 27.0455 21.1395C26.89 20.5955 26.89 20.2846 27.3563 19.9737C28.5221 19.1188 29.7657 18.8079 31.1646 19.2742C31.4755 19.3519 31.7087 19.8183 31.9418 20.1291C31.6309 20.2069 31.2423 20.3623 30.9315 20.2846C29.7657 20.0514 28.9107 20.1291 28.0558 20.6732Z" fill="white"/>
<path d="M20.3627 15.6217C21.9949 14.6113 23.627 14.5336 25.2591 15.6217C25.7254 14.689 25.2591 14.0673 24.7928 13.3678C24.6374 13.1346 24.6374 12.6683 24.5596 12.3574C24.9482 12.4351 25.4146 12.4351 25.6477 12.746C26.5804 13.7564 26.969 14.9222 26.2695 16.2434C26.0363 16.632 26.5804 17.487 25.7254 17.487C25.3368 17.487 25.026 16.9429 24.6374 16.632C23.1607 15.3885 20.9068 16.088 20.5182 17.7201C21.6063 17.6424 22.6944 17.5647 23.8602 17.5647C24.171 17.5647 24.4819 17.6424 24.7151 17.7978C24.9482 17.9533 24.9482 18.2642 25.1037 18.4973C24.8705 18.4973 24.6374 18.6528 24.4042 18.6528C23.7824 18.6528 23.083 18.3419 22.4612 18.4196C19.8964 18.6528 18.0311 21.0621 18.1089 23.9377C18.1089 24.2486 18.1866 24.5595 18.1089 24.8704C18.0311 25.1035 17.8757 25.3367 17.6425 25.3367C17.4871 25.3367 17.0985 25.1035 17.0985 25.0258C17.0208 23.7046 16.0881 24.0155 15.3109 24.0932C14.8446 24.1709 14.3783 24.4041 13.912 24.4818C13.6788 24.5595 13.3679 24.4041 13.1348 24.3263C13.2902 24.0932 13.3679 23.6269 13.5234 23.5491C14.6114 23.2383 15.6995 23.0828 17.0208 22.7719C17.1762 22.2279 17.4094 21.5284 17.5648 20.7512C16.7099 20.0517 15.855 20.0517 14.8446 20.2849C14.5337 20.3626 14.2228 20.1294 13.8342 20.0517C14.0674 19.8186 14.2228 19.43 14.5337 19.3522C15.7773 18.8859 16.9431 19.1191 18.1089 19.8186C18.7306 19.3522 19.1192 18.8082 19.1969 18.031C19.2747 17.1761 19.4301 16.4766 19.1192 15.544C18.7306 14.4559 19.3524 13.4455 20.2073 12.6683C20.3627 12.5129 20.7513 12.5129 21.0622 12.5129C21.0622 12.8237 21.1399 13.2123 20.9845 13.3678C20.5182 13.9118 19.9741 14.5336 20.3627 15.6217Z" fill="white"/>
</g>
<defs>
<clipPath id="clip0_44_584">
<rect width="45" height="45" fill="white"/>
</clipPath>
</defs>
</svg>
