<svg width="234" height="76" viewBox="0 0 234 76" fill="none" xmlns="http://www.w3.org/2000/svg">
<path d="M50.6837 75.6227H0V0H75.5521V50.731C75.5521 64.5036 64.4433 75.6227 50.6837 75.6227Z" fill="#EE4823"/>
<path d="M30.3593 32.6623V38.7273L18.998 29.8194V29.5667C18.998 22.175 24.9942 16.2363 32.3159 16.2363H56.6794V28.3663H34.5882C32.2528 28.3663 30.3593 30.3248 30.3593 32.6623Z" fill="white"/>
<path d="M30.3613 58.4254L30.3613 38.5879H19.0001L19.0001 58.4254H30.3613Z" fill="white"/>
<path d="M30.3594 38.5376L44.8765 49.9094H52.3244V38.5376H30.3594Z" fill="white"/>
<path d="M98.7745 62.6727H92.4602V66.2022H98.0365V68.4184H92.4602V73.9999H90.1641V60.4565H98.8565V62.6727H98.7745Z" fill="#18264F"/>
<path d="M112.141 60.4565H115.011V73.9179H112.715V64.0681L108.697 71.3733H107.385L103.284 64.0681V73.9179H100.988V60.4565H103.858L108.041 67.8439L112.141 60.4565Z" fill="#18264F"/>
<path d="M102.711 52.6589C99.6765 52.6589 97.2984 52.0844 95.4123 50.9352C93.5262 49.7861 92.1321 48.0624 91.3121 45.8462C90.41 43.5479 90 40.6751 90 37.1456V6.5293H98.7745V36.9814C98.7745 38.6231 98.8565 40.0184 99.0205 41.2497C99.1845 42.4809 99.5125 43.4658 100.087 44.1225C100.661 44.7791 101.563 45.1075 102.793 45.1075C104.023 45.1075 104.925 44.7791 105.499 44.1225C106.073 43.4658 106.401 42.4809 106.565 41.2497C106.729 40.0184 106.729 38.6231 106.729 36.9814V6.5293H115.503V37.1456C115.503 40.6751 115.093 43.5479 114.191 45.8462C113.289 48.1445 111.977 49.8682 110.091 50.9352C108.123 52.0844 105.745 52.6589 102.711 52.6589Z" fill="#18264F"/>
<path d="M130.51 52.3306C128.378 52.3306 126.82 52.0844 125.672 51.5098C124.523 50.9352 123.785 50.1144 123.375 48.9653C122.965 47.8161 122.719 46.3387 122.719 44.4508V22.371H118.701V16.0507H122.719V6.5293H131.412V16.0507H136.168V22.371H131.412V42.9734C131.412 43.7121 131.494 44.2867 131.74 44.6971C131.986 45.1075 132.478 45.3537 133.134 45.5179C133.872 45.682 134.938 45.682 136.332 45.682V52.3306H130.51Z" fill="#18264F"/>
<path d="M141.336 10.5515V3H150.11V10.5515H141.336ZM141.336 52.0025V15.0659H150.028V52.0025H141.336Z" fill="#18264F"/>
<path d="M157.736 52.0026V6.03711H166.429V52.0026H157.736Z" fill="#18264F"/>
<path d="M174.301 10.5515V3H183.075V10.5515H174.301ZM174.383 52.0025V15.0659H183.075V52.0025H174.383Z" fill="#18264F"/>
<path d="M199.559 52.3306C197.427 52.3306 195.868 52.0844 194.72 51.5098C193.572 50.9352 192.834 50.1144 192.424 48.9653C192.014 47.8161 191.768 46.3387 191.768 44.4508V22.371H187.75V16.0507H191.768V6.5293H200.461V16.0507H205.217V22.371H200.461V42.9734C200.461 43.7121 200.543 44.2867 200.789 44.6971C201.035 45.1075 201.527 45.3537 202.183 45.5179C202.921 45.682 203.987 45.682 205.381 45.682V52.3306H199.559Z" fill="#18264F"/>
<path d="M208.824 60.7031V54.7111H211.694C212.678 54.7111 213.498 54.6291 214.154 54.4649C214.81 54.3007 215.22 53.9724 215.302 53.3978C215.466 53.1516 215.548 52.577 215.466 51.8383C215.384 51.0996 215.384 50.4429 215.302 49.7863L207.43 15.0659H215.712L219.976 40.1007L220.14 41.2498H220.878L221.042 40.1007L224.897 15.0659H233.097L224.569 54.1366C224.323 55.6961 223.995 56.9273 223.585 57.9123C223.175 58.8973 222.519 59.636 221.698 60.0464C220.878 60.4568 219.648 60.7031 218.172 60.7031H208.824Z" fill="#18264F"/>
</svg>
