<svg width="237" height="76" viewBox="0 0 237 76" fill="none" xmlns="http://www.w3.org/2000/svg">
<path d="M75.5521 0H0V75.6227H75.5521V0Z" fill="#EE4823"/>
<path d="M30.3593 32.6623V38.7273L18.998 29.8194V29.5667C18.998 22.175 24.9943 16.2363 32.3159 16.2363H56.6794V28.3663H34.5882C32.2528 28.3663 30.3593 30.2616 30.3593 32.6623Z" fill="white"/>
<path d="M30.3613 58.3991L30.3613 38.5615H19.0001L19.0001 58.3991H30.3613Z" fill="white"/>
<path d="M30.3594 38.5376L44.8765 49.9094H52.3244V38.5376H30.3594Z" fill="white"/>
<path d="M90.418 75.7485V62.3232H92.7652V75.7485H90.418Z" fill="#19264F"/>
<path d="M100.98 65.5957C102.154 65.5957 103.076 65.9313 103.83 66.6865C104.585 67.4417 104.92 68.3647 104.92 69.5394V75.8325H102.74V70.2946C102.74 69.5394 102.489 68.952 102.07 68.4486C101.651 67.9451 100.98 67.7773 100.309 67.7773C99.5549 67.7773 98.8843 68.029 98.3813 68.4486C97.8783 68.8681 97.6268 69.5394 97.6268 70.2946V75.8325H95.4473V65.7635H97.6268V67.0221C98.4651 66.0991 99.5549 65.5957 100.98 65.5957Z" fill="#19264F"/>
<path d="M110.705 76.0003C109.113 76.0003 107.771 75.4969 106.598 74.49L107.771 72.9796C108.61 73.7348 109.616 74.1543 110.705 74.1543C111.292 74.1543 111.795 74.0704 112.13 73.9026C112.466 73.7348 112.717 73.3991 112.717 73.0635C112.717 72.8957 112.717 72.8118 112.633 72.644C112.55 72.5601 112.466 72.3923 112.382 72.3083C112.298 72.2244 112.13 72.1405 111.879 72.0566C111.627 71.9727 111.46 71.8888 111.292 71.8888C111.124 71.8049 110.873 71.8049 110.621 71.721C110.37 71.6371 110.119 71.5532 109.867 71.5532C109.699 71.4693 109.448 71.4693 109.196 71.3014C108.945 71.2175 108.693 71.1336 108.526 71.0497C108.358 70.9658 108.19 70.798 107.939 70.6302C107.771 70.4624 107.604 70.2945 107.436 70.1267C107.352 69.9589 107.184 69.7072 107.101 69.4555C107.017 69.2037 107.017 68.952 107.017 68.6164C107.017 67.9451 107.184 67.3578 107.604 66.9382C107.939 66.4348 108.442 66.0991 109.029 65.9313C109.616 65.6796 110.286 65.5957 111.041 65.5957C112.466 65.5957 113.723 66.0152 114.813 66.9382L113.639 68.4486C112.885 67.7773 112.047 67.4417 111.041 67.4417C110.538 67.4417 110.118 67.5256 109.783 67.6934C109.448 67.8612 109.28 68.1129 109.28 68.4486C109.28 68.6164 109.28 68.7003 109.364 68.7842C109.448 68.8681 109.448 68.952 109.616 69.0359C109.699 69.1198 109.867 69.2037 109.951 69.2037C110.035 69.2877 110.202 69.2877 110.37 69.3716C110.538 69.4555 110.705 69.4555 110.873 69.5394C111.041 69.5394 111.208 69.6233 111.46 69.7072C111.711 69.7911 111.963 69.7911 112.13 69.875C112.298 69.9589 112.55 69.9589 112.801 70.0428C113.053 70.1267 113.304 70.2106 113.472 70.2946C113.639 70.3785 113.807 70.5463 114.059 70.7141C114.226 70.8819 114.394 71.0497 114.561 71.2175C114.729 71.3854 114.813 71.6371 114.897 71.8888C114.981 72.1405 114.981 72.3923 114.981 72.7279C114.981 73.3992 114.813 73.9865 114.394 74.49C114.058 74.9934 113.556 75.329 112.885 75.5808C112.13 75.8325 111.46 76.0003 110.705 76.0003Z" fill="#19264F"/>
<path d="M121.101 76.0005C119.76 76.0005 118.586 75.5809 117.748 74.8257C116.909 74.0706 116.49 73.0637 116.49 71.8051V65.7637H118.67V71.4694C118.67 72.1407 118.921 72.728 119.34 73.1476C119.76 73.5671 120.346 73.8188 121.101 73.8188C121.855 73.8188 122.442 73.5671 122.861 73.1476C123.28 72.728 123.532 72.1407 123.532 71.3855V65.7637H125.712V71.7211C125.712 72.9798 125.292 73.9867 124.454 74.7418C123.616 75.497 122.442 76.0005 121.101 76.0005Z" fill="#19264F"/>
<path d="M128.059 75.7484V61.6519H130.238V75.6645H128.059V75.7484Z" fill="#19264F"/>
<path d="M140.631 65.7634H142.81V75.6646H140.631V74.2382C139.793 75.329 138.619 75.9163 137.11 75.9163C136.188 75.9163 135.35 75.6646 134.595 75.2451C133.841 74.8255 133.254 74.1543 132.835 73.3991C132.416 72.6439 132.164 71.7209 132.164 70.714C132.164 69.7071 132.416 68.868 132.835 68.029C133.254 67.1899 133.841 66.6025 134.595 66.183C135.35 65.7634 136.188 65.5117 137.11 65.5117C138.535 65.5117 139.709 66.0991 140.631 67.1899V65.7634ZM137.613 73.8186C138.451 73.8186 139.206 73.483 139.793 72.8956C140.379 72.3083 140.631 71.5531 140.631 70.714C140.631 69.791 140.379 69.1198 139.793 68.5324C139.206 67.9451 138.451 67.6094 137.613 67.6094C136.691 67.6094 136.02 67.9451 135.433 68.5324C134.847 69.1198 134.595 69.8749 134.595 70.714C134.595 71.5531 134.847 72.3083 135.433 72.8956C136.02 73.483 136.775 73.8186 137.613 73.8186Z" fill="#19264F"/>
<path d="M151.447 67.7771H148.68V72.476C148.68 72.8955 148.764 73.3151 149.016 73.4829C149.267 73.7346 149.602 73.8185 150.105 73.8185C150.525 73.8185 151.027 73.7346 151.447 73.4829V75.4967C150.944 75.7484 150.273 75.9162 149.602 75.9162C148.596 75.9162 147.758 75.6645 147.255 75.0771C146.752 74.4898 146.417 73.7346 146.417 72.7277V67.6932H144.74V65.7633H146.417V63.2461H148.596V65.7633H151.363V67.7771H151.447Z" fill="#19264F"/>
<path d="M154.464 64.0853C154.045 64.0853 153.71 63.9175 153.458 63.6658C153.207 63.414 153.039 63.0784 153.039 62.6589C153.039 62.2393 153.207 61.9037 153.458 61.652C153.71 61.4002 154.045 61.2324 154.464 61.2324C154.883 61.2324 155.219 61.4002 155.47 61.652C155.722 61.9037 155.889 62.2393 155.889 62.6589C155.889 63.0784 155.722 63.414 155.47 63.6658C155.219 64.0014 154.883 64.0853 154.464 64.0853ZM153.374 75.7485V65.7635H155.554V75.6646H153.374V75.7485Z" fill="#19264F"/>
<path d="M162.848 76.0003C161.339 76.0003 160.081 75.4969 159.075 74.49C158.069 73.4831 157.566 72.2244 157.566 70.798C157.566 69.3716 158.069 68.1129 159.075 67.106C160.081 66.0991 161.339 65.5957 162.848 65.5957C163.854 65.5957 164.776 65.8474 165.53 66.267C166.285 66.6865 166.955 67.3578 167.458 68.1129C167.961 68.8681 168.129 69.7911 168.129 70.798C168.129 71.8049 167.877 72.644 167.458 73.4831C167.039 74.3221 166.369 74.9095 165.53 75.329C164.692 75.7486 163.854 76.0003 162.848 76.0003ZM160.668 72.9796C161.255 73.567 162.009 73.9026 162.848 73.9026C163.686 73.9026 164.44 73.567 165.027 72.9796C165.614 72.3923 165.866 71.6371 165.866 70.798C165.866 69.875 165.614 69.2037 165.027 68.6164C164.44 68.029 163.686 67.6934 162.848 67.6934C162.009 67.6934 161.255 68.029 160.668 68.6164C160.081 69.2037 159.746 69.9589 159.746 70.798C159.83 71.6371 160.081 72.3923 160.668 72.9796Z" fill="#19264F"/>
<path d="M175.673 65.5957C176.847 65.5957 177.769 65.9313 178.524 66.6865C179.278 67.4417 179.613 68.3647 179.613 69.5394V75.8325H177.434V70.2946C177.434 69.5394 177.182 68.952 176.763 68.4486C176.344 67.9451 175.673 67.7773 175.003 67.7773C174.248 67.7773 173.578 68.029 173.075 68.4486C172.572 68.8681 172.32 69.5394 172.32 70.2946V75.8325H170.141V65.7635H172.32V67.0221C173.159 66.0991 174.248 65.5957 175.673 65.5957Z" fill="#19264F"/>
<path d="M185.399 76.0003C183.806 76.0003 182.465 75.4969 181.291 74.49L182.465 72.9796C183.303 73.7348 184.309 74.1543 185.399 74.1543C185.985 74.1543 186.488 74.0704 186.824 73.9026C187.159 73.7348 187.411 73.3991 187.411 73.0635C187.411 72.8957 187.411 72.8118 187.327 72.644C187.243 72.5601 187.159 72.3923 187.075 72.3083C186.991 72.2244 186.824 72.1405 186.572 72.0566C186.321 71.9727 186.153 71.8888 185.985 71.8888C185.818 71.8049 185.566 71.8049 185.315 71.721C185.063 71.6371 184.812 71.5532 184.56 71.5532C184.393 71.4693 184.141 71.4693 183.89 71.3014C183.638 71.2175 183.387 71.1336 183.219 71.0497C183.051 70.9658 182.884 70.798 182.632 70.6302C182.465 70.4624 182.297 70.2945 182.129 70.1267C182.045 69.9589 181.878 69.7072 181.794 69.4555C181.71 69.2037 181.71 68.952 181.71 68.6164C181.71 67.9451 181.878 67.3578 182.297 66.9382C182.632 66.4348 183.135 66.0991 183.722 65.9313C184.309 65.6796 184.98 65.5957 185.734 65.5957C187.159 65.5957 188.417 66.0152 189.506 66.9382L188.333 68.4486C187.578 67.7773 186.74 67.4417 185.734 67.4417C185.231 67.4417 184.812 67.5256 184.477 67.6934C184.141 67.8612 183.974 68.1129 183.974 68.4486C183.974 68.6164 183.974 68.7003 184.057 68.7842C184.141 68.8681 184.141 68.952 184.309 69.0359C184.393 69.1198 184.56 69.2037 184.644 69.2037C184.728 69.2877 184.896 69.2877 185.063 69.3716C185.231 69.4555 185.399 69.4555 185.566 69.5394C185.734 69.5394 185.902 69.6233 186.153 69.7072C186.405 69.7911 186.656 69.7911 186.824 69.875C186.991 69.9589 187.243 69.9589 187.494 70.0428C187.746 70.1267 187.997 70.2106 188.165 70.2946C188.333 70.3785 188.5 70.5463 188.752 70.7141C188.919 70.8819 189.087 71.0497 189.255 71.2175C189.422 71.3854 189.506 71.6371 189.59 71.8888C189.674 72.1405 189.674 72.3923 189.674 72.7279C189.674 73.3992 189.506 73.9865 189.087 74.49C188.752 74.9934 188.249 75.329 187.578 75.5808C186.824 75.8325 186.153 76.0003 185.399 76.0003Z" fill="#19264F"/>
<path d="M102.994 53.7642C99.8919 53.7642 97.4608 53.1769 95.5327 52.0022C93.6047 50.8275 92.1796 49.0654 91.3413 46.7999C90.4191 44.4505 90 41.5137 90 37.9056V6.60791H98.9698V37.7378C98.9698 39.416 99.0536 40.8424 99.2213 42.101C99.3889 43.3596 99.7242 44.3665 100.311 45.0378C100.898 45.7091 101.82 46.0447 103.077 46.0447C104.335 46.0447 105.257 45.7091 105.844 45.0378C106.431 44.3665 106.766 43.3596 106.934 42.101C107.101 40.8424 107.101 39.416 107.101 37.7378V6.60791H116.071V37.9056C116.071 41.5137 115.652 44.4505 114.73 46.7999C113.808 49.1493 112.466 50.9114 110.538 52.0022C108.526 53.1769 106.095 53.7642 102.994 53.7642Z" fill="#18264F"/>
<path d="M131.411 53.4286C129.232 53.4286 127.639 53.1769 126.465 52.5895C125.292 52.0022 124.537 51.1631 124.118 49.9884C123.699 48.8137 123.448 47.3033 123.448 45.3734V22.8022H119.34V16.3412H123.448V6.60791H132.333V16.3412H137.196V22.8022H132.333V43.8631C132.333 44.6183 132.417 45.2056 132.669 45.6252C132.92 46.0447 133.423 46.2964 134.094 46.4642C134.848 46.6321 135.938 46.6321 137.363 46.6321V53.4286H131.411Z" fill="#18264F"/>
<path d="M142.477 10.7195V3H151.446V10.7195H142.477ZM142.477 53.0931V15.3345H151.363V53.0931H142.477Z" fill="#18264F"/>
<path d="M159.244 53.0935V6.10498H168.13V53.0935H159.244Z" fill="#18264F"/>
<path d="M176.178 10.7195V3H185.148V10.7195H176.178ZM176.262 53.0931V15.3345H185.148V53.0931H176.262Z" fill="#18264F"/>
<path d="M201.995 53.4286C199.816 53.4286 198.223 53.1769 197.049 52.5895C195.876 52.0022 195.121 51.1631 194.702 49.9884C194.283 48.8137 194.031 47.3033 194.031 45.3734V22.8022H189.924V16.3412H194.031V6.60791H202.917V16.3412H207.78V22.8022H202.917V43.8631C202.917 44.6183 203.001 45.2056 203.253 45.6252C203.504 46.0447 204.007 46.2964 204.678 46.4642C205.432 46.6321 206.522 46.6321 207.947 46.6321V53.4286H201.995Z" fill="#18264F"/>
<path d="M211.468 61.9874V55.8621H214.402C215.408 55.8621 216.246 55.7782 216.917 55.6104C217.588 55.4425 218.007 55.1069 218.091 54.5195C218.258 54.2678 218.342 53.6805 218.258 52.9253C218.174 52.1701 218.174 51.4989 218.091 50.8276L210.043 15.3345H218.51L222.869 40.9264L223.037 42.1012H223.791L223.959 40.9264L227.899 15.3345H236.282L227.563 55.2747C227.312 56.869 226.977 58.1276 226.557 59.1345C226.138 60.1414 225.468 60.8966 224.629 61.3161C223.791 61.7356 222.534 61.9874 221.025 61.9874H211.468Z" fill="#18264F"/>
</svg>
