<svg width="237" height="76" viewBox="0 0 237 76" fill="none" xmlns="http://www.w3.org/2000/svg">
<path d="M67.0943 75.5596H8.39468C3.72395 75.5596 0 71.7689 0 67.157V8.40252C0 3.72743 3.78707 0 8.39468 0H67.0943C71.765 0 75.489 3.79061 75.489 8.40252V67.157C75.5521 71.7689 71.765 75.5596 67.0943 75.5596Z" fill="#EE4823"/>
<path d="M40.9639 46.8772V58.3122H29.8552L18.8096 47.7617V17.1841H34.589V40.8122L40.9639 46.8772Z" fill="white"/>
<path d="M56.7433 23.249V58.3122H52.9563L40.9639 46.8772V23.249H56.7433Z" fill="white"/>
<path d="M98.2061 72.8383L94.8565 67.9768H93.0979V72.8383H90.8369V59.6787H96.2801C97.5362 59.6787 98.5411 60.0978 99.3785 60.8522C100.216 61.6065 100.635 62.6124 100.635 63.8697C100.635 64.8755 100.3 65.7137 99.7134 66.4681C99.1273 67.2224 98.3736 67.6415 97.3687 67.893L100.886 72.9222H98.2061V72.8383ZM93.0979 61.7742V65.8813H96.2801C96.8663 65.8813 97.3687 65.7137 97.7037 65.2946C98.1224 64.8755 98.2898 64.3726 98.2898 63.7858C98.2898 63.1991 98.1224 62.6962 97.7037 62.2771C97.285 61.858 96.8663 61.6904 96.2801 61.6904H93.0979V61.7742Z" fill="#19264F"/>
<path d="M112.023 67.9769C112.023 68.2283 112.023 68.5636 111.939 68.8151H104.067C104.235 69.4856 104.57 70.0724 105.156 70.4915C105.742 70.9106 106.412 71.0782 107.166 71.0782C107.752 71.0782 108.338 70.9106 108.841 70.6591C109.343 70.4077 109.762 70.0724 110.097 69.7371L111.52 70.9944C111.018 71.6649 110.348 72.084 109.594 72.5031C108.841 72.8384 108.003 73.006 107.082 73.006C105.575 73.006 104.235 72.5031 103.23 71.4973C102.225 70.4915 101.723 69.318 101.723 67.8093C101.723 66.8873 101.974 66.0491 102.393 65.2109C102.811 64.4565 103.481 63.8697 104.235 63.3668C104.989 62.9477 105.91 62.6963 106.831 62.6963C108.254 62.6963 109.511 63.1992 110.432 64.1212C111.353 65.0432 112.023 66.4681 112.023 67.9769ZM106.915 64.7918C106.245 64.7918 105.658 64.9594 105.156 65.3785C104.654 65.7976 104.319 66.3843 104.151 67.0549H109.846C109.678 66.3843 109.343 65.7976 108.841 65.3785C108.171 64.9594 107.585 64.7918 106.915 64.7918Z" fill="#19264F"/>
<path d="M121.486 63.1155H123.663V72.8386H121.486V71.4136C120.649 72.5033 119.476 73.0062 118.053 73.0062C117.132 73.0062 116.378 72.7547 115.624 72.3357C114.871 71.9166 114.284 71.246 113.949 70.4916C113.531 69.7372 113.363 68.8153 113.363 67.8932C113.363 66.9712 113.531 66.0492 113.949 65.2948C114.368 64.5405 114.954 63.8699 115.624 63.4508C116.378 63.0317 117.132 62.7803 118.053 62.7803C119.476 62.7803 120.649 63.2832 121.486 64.3728V63.1155ZM118.555 70.9945C119.393 70.9945 120.146 70.7431 120.649 70.1563C121.235 69.5696 121.486 68.8991 121.486 67.977C121.486 67.1389 121.235 66.3845 120.649 65.7978C120.063 65.211 119.393 64.9596 118.555 64.9596C117.718 64.9596 116.964 65.211 116.378 65.7978C115.792 66.3845 115.541 67.1389 115.541 67.977C115.541 68.8152 115.792 69.5696 116.378 70.1563C116.964 70.6593 117.634 70.9945 118.555 70.9945Z" fill="#19264F"/>
<path d="M126.176 72.8386V59.0923H128.353V72.8386H126.176Z" fill="#19264F"/>
<path d="M137.732 70.6594H144.347V72.7548H135.471V59.5952H144.18V61.6907H137.732V65.0435H143.594V67.1389H137.732V70.6594Z" fill="#19264F"/>
<path d="M149.707 73.0062C148.116 73.0062 146.776 72.5033 145.688 71.4975L146.776 69.9887C147.614 70.7431 148.535 71.1622 149.707 71.1622C150.293 71.1622 150.712 71.0784 151.131 70.9107C151.466 70.7431 151.633 70.4916 151.633 70.1563C151.633 69.9887 151.633 69.9049 151.549 69.7373C151.466 69.6534 151.382 69.4858 151.298 69.402C151.214 69.3182 151.047 69.2344 150.796 69.1505C150.544 69.0667 150.377 68.9829 150.21 68.9829C150.042 68.8991 149.791 68.8991 149.54 68.8152C149.288 68.7314 149.037 68.6476 148.87 68.6476C148.702 68.5638 148.451 68.5638 148.2 68.3961C147.949 68.3123 147.697 68.2285 147.53 68.1447C147.362 68.0609 147.195 67.8932 146.944 67.8094C146.776 67.6418 146.609 67.4741 146.441 67.3065C146.357 67.1389 146.19 66.8874 146.106 66.636C146.022 66.3845 146.022 66.133 146.022 65.7978C146.022 65.1272 146.19 64.6243 146.525 64.1214C146.86 63.7023 147.362 63.367 147.949 63.1155C148.535 62.8641 149.205 62.7803 149.875 62.7803C151.298 62.7803 152.554 63.1994 153.559 64.0376L152.471 65.5463C151.717 64.8757 150.879 64.6243 149.958 64.6243C149.456 64.6243 149.037 64.7081 148.702 64.8758C148.367 65.0434 148.2 65.2948 148.2 65.6301C148.2 65.7139 148.2 65.8816 148.283 65.9654C148.367 66.0492 148.367 66.133 148.535 66.2169C148.618 66.3007 148.786 66.3845 148.87 66.3845C148.953 66.4683 149.121 66.4683 149.288 66.5521C149.456 66.636 149.623 66.6359 149.791 66.7198C149.958 66.7198 150.126 66.8036 150.377 66.8874C150.628 66.9712 150.879 66.9712 151.047 67.0551C151.214 67.1389 151.466 67.1389 151.717 67.2227C151.968 67.3065 152.219 67.3903 152.387 67.4742C152.554 67.558 152.722 67.7256 152.973 67.8094C153.14 67.9771 153.308 68.1447 153.475 68.3123C153.559 68.48 153.727 68.7314 153.81 68.9829C153.894 69.2343 153.894 69.4858 153.894 69.8211C153.894 70.4916 153.727 71.0784 153.308 71.4975C152.889 71.9166 152.471 72.3356 151.884 72.5871C151.131 72.9224 150.461 73.0062 149.707 73.0062Z" fill="#19264F"/>
<path d="M161.179 65.0435H158.416V69.6535C158.416 70.0726 158.5 70.4079 158.751 70.6594C159.002 70.9108 159.337 70.9946 159.839 70.9946C160.258 70.9946 160.677 70.9108 161.179 70.6594V72.671C160.677 72.9225 160.091 73.0901 159.421 73.0901C158.416 73.0901 157.662 72.8387 157.076 72.2519C156.574 71.749 156.322 70.9947 156.322 69.9888V65.0435H154.647V63.1156H156.322V60.6011H158.416V63.1156H161.179V65.0435Z" fill="#19264F"/>
<path d="M170.39 63.1155H172.568V72.8386H170.39V71.4136C169.553 72.5033 168.381 73.0062 166.957 73.0062C166.036 73.0062 165.282 72.7547 164.529 72.3357C163.775 71.9166 163.189 71.246 162.854 70.4916C162.435 69.7372 162.268 68.8153 162.268 67.8932C162.268 66.9712 162.435 66.0492 162.854 65.2948C163.272 64.5405 163.859 63.8699 164.529 63.4508C165.282 63.0317 166.036 62.7803 166.957 62.7803C168.381 62.7803 169.553 63.2832 170.39 64.3728V63.1155ZM167.46 70.9945C168.297 70.9945 169.051 70.7431 169.553 70.1563C170.139 69.5696 170.39 68.8991 170.39 67.977C170.39 67.1389 170.139 66.3845 169.553 65.7978C168.967 65.211 168.297 64.9596 167.46 64.9596C166.622 64.9596 165.868 65.211 165.282 65.7978C164.696 66.3845 164.445 67.1389 164.445 67.977C164.445 68.8152 164.696 69.5696 165.282 70.1563C165.868 70.6593 166.538 70.9945 167.46 70.9945Z" fill="#19264F"/>
<path d="M180.942 65.0435H178.178V69.6535C178.178 70.0726 178.262 70.4079 178.513 70.6594C178.765 70.9108 179.1 70.9946 179.602 70.9946C180.021 70.9946 180.439 70.9108 180.942 70.6594V72.671C180.439 72.9225 179.853 73.0901 179.183 73.0901C178.178 73.0901 177.425 72.8387 176.839 72.2519C176.336 71.749 176.085 70.9947 176.085 69.9888V65.0435H174.41V63.1156H176.085V60.6011H178.178V63.1156H180.942V65.0435Z" fill="#19264F"/>
<path d="M192.163 67.9769C192.163 68.2283 192.163 68.5636 192.08 68.8151H184.208C184.376 69.4856 184.71 70.0724 185.297 70.4915C185.883 70.9106 186.553 71.0782 187.306 71.0782C187.893 71.0782 188.479 70.9106 188.981 70.6591C189.484 70.4077 189.902 70.0724 190.237 69.7371L191.661 70.9944C191.159 71.6649 190.489 72.084 189.735 72.5031C188.981 72.8384 188.144 73.006 187.223 73.006C185.715 73.006 184.376 72.5031 183.371 71.4973C182.366 70.4915 181.863 69.318 181.863 67.8093C181.863 66.8873 182.115 66.0491 182.533 65.2109C182.952 64.4565 183.622 63.8697 184.376 63.3668C185.129 62.9477 186.05 62.6963 186.971 62.6963C188.395 62.6963 189.651 63.1992 190.572 64.1212C191.493 65.0432 192.163 66.4681 192.163 67.9769ZM187.055 64.7918C186.385 64.7918 185.799 64.9594 185.297 65.3785C184.794 65.7976 184.459 66.3843 184.292 67.0549H189.986C189.819 66.3843 189.484 65.7976 188.981 65.3785C188.311 64.9594 187.725 64.7918 187.055 64.7918Z" fill="#19264F"/>
<path d="M102.98 50.7104C99.8814 50.7104 97.4529 50.1236 95.5269 48.9502C93.6009 47.7767 92.1773 46.0165 91.3399 43.7534C90.5025 41.4903 90 38.4728 90 34.8685V3.604H98.9603V34.7009C98.9603 36.3773 99.044 37.8022 99.2115 39.0595C99.379 40.3168 99.7139 41.3226 100.3 41.9932C100.886 42.6637 101.807 42.999 103.064 42.999C104.32 42.999 105.241 42.6637 105.827 41.9932C106.413 41.3226 106.748 40.3168 106.916 39.0595C107.083 37.8022 107.083 36.3773 107.083 34.7009V3.604H116.043V34.8685C116.043 38.4728 115.625 41.4064 114.704 43.7534C113.782 46.1003 112.443 47.8605 110.517 48.9502C108.507 50.1236 106.078 50.7104 102.98 50.7104Z" fill="#18264F"/>
<path d="M131.368 50.3751C129.191 50.3751 127.6 50.1236 126.428 49.5369C125.255 48.9502 124.502 48.112 124.083 46.9385C123.664 45.7651 123.413 44.2563 123.413 42.3285V19.7811H119.31V13.327H123.413V3.604H132.289V13.327H137.146V19.7811H132.289V40.8197C132.289 41.5741 132.373 42.1608 132.624 42.5799C132.876 42.999 133.378 43.2505 134.048 43.4181C134.802 43.5857 135.89 43.5858 137.314 43.5858V50.3751H131.368Z" fill="#18264F"/>
<path d="M142.422 7.71135V0H151.382V7.71135H142.422ZM142.422 50.04V12.3214H151.298V50.04H142.422Z" fill="#18264F"/>
<path d="M159.17 50.0398V3.10107H168.046V50.0398H159.17Z" fill="#18264F"/>
<path d="M176.086 7.71135V0H185.046V7.71135H176.086ZM176.17 50.04V12.3214H185.046V50.04H176.17Z" fill="#18264F"/>
<path d="M201.878 50.3751C199.701 50.3751 198.11 50.1236 196.937 49.5369C195.765 48.9502 195.011 48.112 194.593 46.9385C194.174 45.7651 193.923 44.2563 193.923 42.3285V19.7811H189.819V13.327H193.923V3.604H202.799V13.327H207.656V19.7811H202.799V40.8197C202.799 41.5741 202.883 42.1608 203.134 42.5799C203.385 42.999 203.888 43.2505 204.558 43.4181C205.311 43.5857 206.4 43.5858 207.824 43.5858V50.3751H201.878Z" fill="#18264F"/>
<path d="M211.341 58.9247V52.806H214.272C215.276 52.806 216.114 52.7221 216.784 52.5545C217.454 52.3868 217.872 52.0516 217.956 51.4648C218.124 51.2134 218.207 50.6267 218.124 49.8723C218.04 49.1179 218.04 48.4474 217.956 47.7768L209.917 12.3213H218.375L222.729 37.8861L222.897 39.0596H223.65L223.818 37.8861L227.754 12.3213H236.128L227.419 52.2192C227.168 53.8118 226.833 55.0691 226.414 56.0749C225.995 57.0807 225.325 57.8351 224.488 58.2542C223.65 58.6733 222.394 58.9247 220.887 58.9247H211.341Z" fill="#18264F"/>
</svg>
