<svg width="46" height="46" viewBox="0 0 46 46" fill="none" xmlns="http://www.w3.org/2000/svg">
<path d="M4.82664 45.8302H41.066C43.6771 45.8302 45.8926 43.6967 45.8926 41.0101V4.82008C45.8926 2.2125 43.7562 0 41.066 0H4.82664C2.21551 0 0 2.13348 0 4.82008V41.0101C0 43.6967 2.21551 45.8302 4.82664 45.8302Z" fill="#EE4823"/>
<path d="M22.9469 30.1847C19.0697 30.1847 15.5882 27.1031 15.6673 22.6781C15.7465 18.4901 19.228 15.6455 22.9469 15.6455C26.6657 15.6455 30.0681 18.5692 30.1472 22.5991C30.3846 27.3401 26.5866 30.2638 22.9469 30.1847ZM28.9604 20.8607C28.0109 22.52 26.7449 23.4683 24.7667 23.2312C24.3711 24.1004 24.292 24.4955 25.1624 25.3647C26.0327 26.1549 27.0614 26.3129 28.1691 26.0758C28.4065 25.9968 28.5647 25.9178 28.6438 25.6808C28.8021 25.1276 29.0395 24.5745 29.1186 24.0214C29.4351 22.9151 29.356 21.8879 28.9604 20.8607ZM16.9333 25.0486C18.2785 23.0732 18.9906 22.5991 21.1269 22.6781C21.2061 22.52 21.2061 22.362 21.2852 22.204C21.5226 21.8089 21.4435 21.4928 21.2061 21.1767C21.127 21.0187 21.0478 20.8607 20.8896 20.7817C20.0192 19.7544 18.6741 19.5174 17.4081 19.9125C17.329 19.9125 17.2498 19.9915 17.1707 20.0705C16.4586 21.6509 16.4586 23.3102 16.9333 25.0486ZM22.3138 21.2558C22.4721 21.2558 22.6304 21.1767 22.7886 21.1767C23.1842 21.1767 23.3425 21.0187 23.5799 20.7026C23.659 20.5446 23.8172 20.3076 23.8963 20.1495C24.292 18.8062 23.8963 17.779 23.026 16.8308C22.9468 16.7518 22.7095 16.6728 22.6303 16.6728C21.2061 16.7518 20.0192 17.3049 18.9115 18.1741C18.6741 18.4111 18.4367 18.5692 18.1994 18.8062C20.0192 18.7272 21.5226 19.4384 22.3138 21.2558ZM21.76 24.3374C21.6809 24.1794 21.5226 24.1004 21.4435 23.9424C21.2061 23.6263 20.8896 23.4682 20.5731 23.4682C20.1775 23.5473 19.7027 23.5473 19.3071 23.7843C18.3576 24.1794 17.8037 24.9696 17.5663 25.9178C17.5663 26.0758 17.5663 26.3129 17.6455 26.3919C18.5158 27.6562 19.6236 28.5254 21.1269 28.9205C21.2852 28.9995 21.5226 28.9995 21.76 29.0785C20.7314 27.4982 20.6522 25.9178 21.76 24.3374ZM23.5799 24.6535C23.4216 24.6535 23.2633 24.7325 23.1051 24.7325C22.7094 24.7325 22.4721 24.8906 22.3138 25.2066C22.2347 25.3647 22.0765 25.5227 22.0765 25.7598C21.6808 26.945 22.0765 28.3674 23.026 29.2365C23.1051 29.3156 23.2634 29.3156 23.3425 29.3156C25.0041 29.1575 26.4284 28.5254 27.5361 27.3401C27.6152 27.2611 27.6152 27.1821 27.6944 27.1821C25.7954 27.1821 24.4502 26.3919 23.5799 24.6535ZM24.1337 16.6728C25.1624 18.3321 25.2415 19.9125 24.1337 21.4928C24.2129 21.6508 24.3711 21.7299 24.4502 21.8879C24.6085 22.1249 24.7667 22.283 25.0832 22.283C25.3997 22.283 25.7162 22.362 26.0327 22.204C27.2196 21.8879 28.0109 21.0187 28.3274 19.8335C28.3274 19.6754 28.3273 19.4384 28.2482 19.3593C27.7735 18.6482 27.2196 18.0951 26.5866 17.7C25.7954 17.2259 25.0041 16.8308 24.1337 16.6728ZM23.8172 22.9151C23.8172 22.441 23.4216 22.0459 22.9469 21.9669C22.4721 21.9669 22.0765 22.362 21.9974 22.8361C21.9974 23.3102 22.393 23.7843 22.8677 23.7843C23.4216 23.8634 23.8172 23.3892 23.8172 22.9151Z" fill="white"/>
<path d="M22.867 12.9588C26.1903 12.9588 29.5927 12.9588 32.9159 12.9588C33.9446 12.9588 34.4193 12.3266 34.1028 11.2994C34.0237 11.0623 34.1028 10.8253 34.3402 10.7463C34.5775 10.6673 34.8149 10.7463 34.8941 11.0623C35.4479 12.2476 34.6567 13.6699 33.3907 13.907C33.1533 13.907 32.9159 13.907 32.7577 13.907C26.1112 13.907 19.4646 13.907 12.8181 13.907C12.106 13.907 11.7104 14.223 11.5521 14.7762C11.3939 15.4873 11.9478 16.1985 12.739 16.1985C14.2424 16.1985 15.6666 16.1985 17.17 16.1985C17.2491 16.1985 17.4074 16.1985 17.4865 16.1985C17.7239 16.1985 17.8821 16.3565 17.8821 16.5936C17.8821 16.8306 17.7239 16.9887 17.4865 17.0677C17.4074 17.0677 17.4074 17.0677 17.3283 17.0677C15.7458 17.0677 14.2424 17.0677 12.6599 17.0677C11.6313 17.0677 10.7609 16.2775 10.6818 15.2503C10.6027 14.223 11.3148 13.2748 12.3434 13.0378C12.5016 13.0378 12.739 12.9588 12.8973 12.9588C16.2205 12.9588 19.5438 12.9588 22.867 12.9588Z" fill="white"/>
<path d="M22.947 32.9497C19.6237 32.9497 16.2213 32.9497 12.8981 32.9497C12.3442 32.9497 11.9486 33.1078 11.7112 33.5819C11.5529 33.8979 11.5529 34.214 11.7112 34.5301C11.8694 34.8461 11.7903 35.0832 11.4738 35.1622C11.2364 35.2412 10.999 35.1622 10.8408 34.8462C10.2869 33.6609 11.0782 32.2386 12.4233 32.0805C12.5815 32.0805 12.8189 32.0805 13.0563 32.0805C19.7028 32.0805 26.4285 32.0805 33.075 32.0805C33.7871 32.0805 34.2618 31.7645 34.341 31.2113C34.4992 30.5002 33.9453 29.789 33.1541 29.789C31.7298 29.789 30.3847 29.789 28.9605 29.789C28.8022 29.789 28.644 29.789 28.4857 29.789C28.1692 29.789 28.011 29.631 28.011 29.3149C28.011 29.0779 28.1692 28.8408 28.4857 28.8408C29.4352 28.8408 30.4638 28.8408 31.4133 28.8408C31.9672 28.8408 32.5211 28.8408 33.075 28.8408C34.2619 28.8408 35.2114 29.71 35.2114 30.8953C35.2114 32.0805 34.341 32.9497 33.075 32.9497C29.7517 32.9497 26.3494 32.9497 22.947 32.9497Z" fill="white"/>
<path d="M14.9541 29.7106C14.1628 29.7106 13.3716 29.7106 12.6595 29.7106C11.6309 29.7106 10.8396 28.9204 10.7605 27.9722C10.6022 26.9449 11.2352 26.0758 12.2639 25.7597C12.4221 25.6807 12.5804 25.6807 12.7386 25.6807C13.5299 25.6807 14.4002 25.6807 15.1915 25.6807C15.5871 25.6807 15.8245 25.9967 15.6662 26.3128C15.5871 26.4708 15.3497 26.5499 15.1915 26.5499C14.4793 26.5499 13.6881 26.5499 12.976 26.5499C12.2638 26.5499 11.71 27.024 11.71 27.6561C11.71 28.2882 12.2638 28.7623 12.976 28.7623C14.4793 28.7623 15.9036 28.7623 17.407 28.7623C17.5653 28.7623 17.7235 28.7624 17.8026 28.8414C17.9609 28.9994 18.04 29.1574 18.04 29.3155C18.04 29.5525 17.8026 29.7106 17.5652 29.7106C16.6157 29.7106 15.7454 29.7106 14.9541 29.7106Z" fill="white"/>
<path d="M30.9384 16.1191C31.6505 16.1191 32.4418 16.1191 33.1539 16.1191C34.3408 16.1191 35.2903 16.9883 35.2112 18.1736C35.2112 19.3589 34.3408 20.2281 33.0748 20.2281C32.3627 20.2281 31.5714 20.2281 30.8593 20.2281C30.4637 20.2281 30.3054 20.07 30.2262 19.754C30.2262 19.4379 30.4636 19.2798 30.7801 19.2798C31.4923 19.2798 32.2835 19.2798 32.9956 19.2798C33.7077 19.2798 34.1825 18.8057 34.1825 18.1736C34.1825 17.5415 33.7077 17.0674 32.9956 17.0674C31.5714 17.0674 30.1471 17.0674 28.7229 17.0674C28.6438 17.0674 28.5647 17.0674 28.4855 17.0674C28.0899 17.0674 27.9316 16.9093 27.9316 16.5933C27.9316 16.2772 28.169 16.1191 28.5646 16.1191C29.3559 16.1191 30.1471 16.1191 30.9384 16.1191Z" fill="white"/>
<path d="M13.8467 19.2803C14.2423 19.2803 14.638 19.2803 15.0336 19.2803C15.3501 19.2803 15.5874 19.4383 15.5874 19.7544C15.5874 19.9914 15.3501 20.2285 15.0336 20.2285C14.2423 20.2285 13.451 20.2285 12.5807 20.2285C11.9477 20.2285 11.4729 20.7816 11.4729 21.3347C11.4729 21.8879 11.9477 22.441 12.5016 22.441C13.1346 22.441 13.6884 22.441 14.3214 22.441C14.6379 22.441 14.8753 22.599 14.8753 22.9151C14.8753 23.2312 14.6379 23.3892 14.3214 23.3892C13.7676 23.3892 13.1345 23.3892 12.5807 23.3892C11.4729 23.3892 10.6026 22.52 10.5234 21.4138C10.5234 20.3075 11.3147 19.3593 12.5016 19.2803C13.0554 19.2803 13.4511 19.2803 13.8467 19.2803Z" fill="white"/>
<path d="M32.0455 26.5494C31.6498 26.5494 31.2542 26.5494 30.8586 26.5494C30.4629 26.5494 30.3047 26.3913 30.3047 26.0752C30.3047 25.7592 30.5421 25.6011 30.9377 25.6011C31.6498 25.6011 32.441 25.6011 33.1532 25.6011C33.8653 25.6011 34.3401 25.127 34.4192 24.4949C34.4192 23.8628 33.9445 23.3096 33.2323 23.3096C32.6785 23.3096 32.1245 23.3096 31.5707 23.3096C31.2542 23.3096 31.0959 23.1516 31.0959 22.8355C31.0959 22.5194 31.2542 22.4404 31.5707 22.4404C32.2037 22.4404 32.8367 22.4404 33.4697 22.4404C34.5774 22.5194 35.4478 23.3886 35.3687 24.4949C35.3687 25.6011 34.4983 26.4703 33.3905 26.4703C32.8367 26.5494 32.4411 26.5494 32.0455 26.5494Z" fill="white"/>
</svg>
