<svg width="46" height="46" viewBox="0 0 46 46" fill="none" xmlns="http://www.w3.org/2000/svg">
<path d="M4.82664 45.8302H41.066C43.6771 45.8302 45.8926 43.6967 45.8926 41.0101V4.82006C45.8926 2.21247 43.7562 0 41.066 0H4.82664C2.2155 0 0 2.13346 0 4.82006V41.0101C0 43.6177 2.13638 45.8302 4.82664 45.8302Z" fill="#EE4823"/>
<path d="M20.0976 26.7869C19.7811 26.7079 19.4646 26.6289 19.1481 26.4709C18.7524 26.2338 18.5942 25.8387 18.5942 25.3646C18.5942 24.5744 18.5942 23.7053 18.5942 22.9151C18.5942 22.0459 19.0689 21.5718 19.9393 21.4928C20.0184 21.4928 20.0185 21.4928 20.0976 21.4928C20.0976 20.8606 20.0976 20.2285 20.0976 19.5963C20.0976 19.2803 19.7811 19.1223 19.4646 19.1223C18.0403 19.1223 16.6161 19.1223 15.1127 19.1223C14.3214 19.1223 13.5302 19.1223 12.7389 19.1223C12.5807 19.1223 12.5016 19.1223 12.3433 19.1223C12.3433 19.2803 12.3433 19.3593 12.3433 19.4383C12.2642 20.0704 11.7894 20.6236 11.1564 20.6236C10.2861 20.6236 9.33655 20.6236 8.46617 20.6236C7.75405 20.6236 7.2793 20.0704 7.2793 19.4383C7.2793 17.1468 7.2793 14.9343 7.2793 12.6428C7.2793 11.9316 7.83317 11.4575 8.46617 11.4575C9.41568 11.4575 10.2861 11.4575 11.2356 11.4575C12.0268 11.4575 12.4224 11.9316 12.5016 12.9588C12.6598 12.9588 12.7389 12.9588 12.8972 12.9588C15.5083 12.9588 18.1194 12.9588 20.7306 12.9588C23.2626 12.9588 25.5572 14.6182 26.2693 17.0678C26.4276 17.6209 26.5067 18.174 26.5067 18.8062C26.5858 19.6754 26.5067 20.6236 26.5067 21.4928L26.5858 21.5718C27.6936 21.6508 28.0101 22.1249 28.0101 23.1521C28.0101 23.7843 28.0101 24.4164 28.0101 25.0486C28.0101 26.2338 27.6936 26.5499 26.5067 26.7869C26.5067 27.4191 26.5067 28.0512 26.5858 28.6044C26.8232 29.7106 27.931 30.5007 29.0387 30.3427C30.2256 30.1847 31.096 29.2365 31.096 28.1302C31.096 24.1793 31.096 20.2285 31.096 16.2776C31.096 16.1986 31.096 16.1196 31.096 16.0405C30.9377 16.0405 30.8586 16.0405 30.7795 16.0405C30.1465 15.9615 29.6717 15.4874 29.6717 14.9343C29.6717 13.9861 29.6717 13.0379 29.6717 12.0897C29.6717 11.4575 30.2256 10.9834 30.8586 10.9834C33.1532 10.9834 35.3687 10.9834 37.6634 10.9834C38.3755 10.9834 38.8502 11.5366 38.8502 12.2477C38.8502 13.1169 38.8502 13.9861 38.8502 14.8553C38.8502 15.6455 38.3755 16.1195 37.5842 16.1195C37.5051 16.1195 37.426 16.1195 37.3469 16.1195C37.3469 16.2776 37.3469 16.4356 37.3469 16.5937C37.3469 20.3865 37.3469 24.2584 37.3469 28.0512C37.3469 32.2392 34.5775 35.6369 30.463 36.5061C25.9528 37.4543 21.2053 34.2936 20.4932 29.7896C20.335 28.9995 20.4141 28.1302 20.335 27.3401C20.0976 27.024 20.0976 26.8659 20.0976 26.7869ZM20.968 26.7079C20.968 27.182 20.968 27.5771 20.968 28.0512C20.968 28.4463 20.968 28.8414 21.0471 29.1574C21.601 33.4244 26.032 36.5061 30.2256 35.4789C33.8654 34.6887 36.3182 31.607 36.3182 27.8932C36.3182 24.0213 36.3182 20.1495 36.3182 16.2776C36.3182 16.1986 36.3182 16.0406 36.3182 15.9615C34.8149 15.9615 33.3115 15.9615 31.8081 15.9615C31.8081 16.1196 31.8081 16.2776 31.8081 16.3566C31.8081 20.2285 31.8081 24.1003 31.8081 27.8932C31.8081 29.6316 30.3838 31.0539 28.6431 31.0539C26.9023 31.0539 25.5572 29.6316 25.4781 27.8932C25.4781 27.4191 25.4781 27.024 25.4781 26.5499C23.9747 26.7079 22.4713 26.7079 20.968 26.7079ZM12.3433 13.8281C12.3433 15.3294 12.3433 16.8307 12.3433 18.3321C12.5016 18.3321 12.6598 18.3321 12.7389 18.3321C14.9544 18.3321 17.1699 18.3321 19.3854 18.3321C19.8602 18.3321 20.2558 18.4111 20.5723 18.8062C20.8097 19.1222 20.8888 19.4383 20.8888 19.8334C20.8888 20.3865 20.8888 20.9397 20.8888 21.4928C22.3922 21.4928 23.8956 21.4928 25.399 21.4928C25.399 20.6236 25.399 19.8334 25.399 18.9642C25.399 15.9615 23.2626 13.8281 20.2558 13.8281C17.7238 13.8281 15.1918 13.8281 12.6598 13.8281C12.6598 13.8281 12.5016 13.8281 12.3433 13.8281ZM34.0236 15.1714C35.0522 15.1714 36.16 15.1714 37.1886 15.1714C37.5842 15.1714 37.7425 15.0133 37.7425 14.6182C37.7425 13.8281 37.7425 13.0379 37.7425 12.3267C37.7425 11.8526 37.5842 11.7736 37.1886 11.7736C35.0522 11.7736 32.9159 11.7736 30.8586 11.7736C30.3838 11.7736 30.3047 11.9316 30.3047 12.3267C30.3047 13.1169 30.3047 13.9071 30.3047 14.6182C30.3047 15.0133 30.463 15.1714 30.8586 15.1714C31.8872 15.1714 32.995 15.1714 34.0236 15.1714ZM11.4729 16.1195C11.4729 15.0133 11.4729 13.9861 11.4729 12.8798C11.4729 12.4848 11.3147 12.3267 10.9191 12.3267C10.1278 12.3267 9.33655 12.3267 8.5453 12.3267C8.14967 12.3267 7.99142 12.4848 7.99142 12.8798C7.99142 15.0133 7.99142 17.1468 7.99142 19.2802C7.99142 19.6753 8.14967 19.8334 8.5453 19.8334C9.33655 19.8334 10.1278 19.8334 10.8399 19.8334C11.3147 19.8334 11.3938 19.6753 11.3938 19.2802C11.4729 18.253 11.4729 17.1468 11.4729 16.1195ZM23.1835 22.362C22.1548 22.362 21.0471 22.362 20.0184 22.362C19.5437 22.362 19.3854 22.52 19.3854 22.9151C19.3854 23.7053 19.3854 24.4164 19.3854 25.2066C19.3854 25.6017 19.5437 25.7597 20.0184 25.7597C22.1548 25.7597 24.2121 25.7597 26.3485 25.7597C26.8232 25.7597 26.9815 25.6017 26.9815 25.1276C26.9815 24.3374 26.9815 23.6262 26.9815 22.836C26.9815 22.3619 26.8232 22.2039 26.3485 22.2039C25.3198 22.3619 24.2912 22.362 23.1835 22.362Z" fill="white"/>
</svg>
