<svg width="46" height="46" viewBox="0 0 46 46" fill="none" xmlns="http://www.w3.org/2000/svg">
<path d="M4.82664 45.8302H41.066C43.6771 45.8302 45.8926 43.6967 45.8926 41.0101V4.82008C45.8926 2.2125 43.7562 0 41.066 0H4.82664C2.2155 0 0 2.13348 0 4.82008V41.0101C0 43.6967 2.13638 45.8302 4.82664 45.8302Z" fill="#EE4823"/>
<path d="M21.1259 26.0753C19.306 26.0753 17.4861 26.0753 15.7454 26.0753C15.4289 26.0753 15.1915 25.9173 14.875 25.7593C14.9541 25.4432 15.0333 25.1271 15.1915 24.8901C19.3851 19.912 23.4996 14.9338 27.6933 9.95574C27.8515 9.71869 28.3263 9.71867 28.5637 9.63965C28.5637 9.95572 28.7219 10.2718 28.6428 10.5088C27.6933 13.1954 26.7438 15.8821 25.7151 18.6477C25.636 18.8847 25.5569 19.2008 25.3986 19.6749C27.0603 19.6749 28.4845 19.6749 29.9879 19.6749C30.3044 19.6749 30.7 19.7539 30.8583 19.991C30.9374 20.149 30.7792 20.6231 30.6209 20.8602C26.6647 25.8383 22.6293 30.8954 18.5939 35.8735C18.4356 36.1106 18.04 36.1896 17.7235 36.3476C17.7235 36.0315 17.5653 35.6365 17.6444 35.3994C18.673 32.5548 19.7808 29.7892 20.8885 26.9445C20.8885 26.6285 20.9676 26.3914 21.1259 26.0753ZM16.3784 25.0481C18.1191 25.0481 19.7016 25.0481 21.205 25.0481C22.3919 25.0481 22.5501 25.2061 22.0754 26.3914C21.2841 28.4459 20.4929 30.5003 19.7016 32.5548C19.7808 32.5548 19.7808 32.6338 19.8599 32.6338C23.0249 28.6829 26.1899 24.811 29.434 20.7021C28.0098 20.6231 26.8229 20.5441 25.636 20.5441C24.1326 20.5441 24.0535 20.3861 24.6074 18.9637C25.2404 17.2254 25.8734 15.566 26.4273 13.8276C26.5064 13.5905 26.5855 13.2745 26.6647 13.0374C26.5855 13.0374 26.5855 12.9584 26.5064 12.9584C23.1831 16.9093 19.8599 20.9392 16.3784 25.0481Z" fill="white"/>
<path d="M9.49414 23.8632C9.49414 14.6971 16.9319 8.37572 24.9236 9.71902C25.2401 9.79803 25.3983 10.1141 25.7148 10.2721C25.3983 10.4302 25.0818 10.6672 24.7653 10.6672C19.1474 9.79804 13.4504 13.0378 11.3931 18.3319C9.25676 23.7841 11.1558 29.9475 16.0615 33.1873C16.4572 33.4243 17.4067 33.5823 16.8528 34.3725C16.378 35.0047 15.9033 34.2935 15.5077 34.0565C11.5514 31.3699 9.65239 27.656 9.49414 23.8632Z" fill="white"/>
<path d="M35.2897 23.3891C35.1314 18.7271 33.3907 15.3293 30.0674 12.8798C29.9883 12.8007 29.8301 12.8008 29.8301 12.7217C29.6718 12.4847 29.5927 12.1686 29.5136 11.9316C29.8301 11.9316 30.2257 11.7735 30.3839 11.9316C31.3334 12.7217 32.4412 13.4329 33.1533 14.4601C36.3974 18.49 37.2678 22.994 35.3688 27.8141C33.5489 32.6342 29.9092 35.4788 24.766 36.269C23.5 36.427 22.1549 36.348 20.8098 36.269C20.5724 36.269 20.335 35.8739 20.0977 35.7158C20.4142 35.5578 20.7307 35.3208 20.968 35.3208C27.2189 36.19 32.9951 32.4761 34.7358 26.4708C35.0523 25.2065 35.2106 24.0213 35.2897 23.3891Z" fill="white"/>
</svg>
