<svg width="46" height="46" viewBox="0 0 46 46" fill="none" xmlns="http://www.w3.org/2000/svg">
<path d="M4.82664 45.7512H41.066C43.6771 45.7512 45.8926 43.6177 45.8926 40.9311V4.82007C45.8926 2.21249 43.7562 0 41.066 0H4.82664C2.13638 0 0 2.13348 0 4.82007V41.0101C0 43.6177 2.13638 45.7512 4.82664 45.7512Z" fill="#EE4823"/>
<path d="M18.8312 27.9723C18.5938 27.4982 18.3564 26.945 18.119 26.4709C17.6443 26.708 17.1695 26.945 16.6157 27.1031C16.3783 27.2611 16.0618 27.3401 15.8244 27.4982C15.5079 27.6562 15.1914 27.4191 15.1914 27.1031C15.2705 25.1276 17.1695 23.7053 19.1477 24.0214C19.2268 24.0214 19.3059 24.0214 19.385 23.9424C19.6224 23.7053 19.8598 23.4683 20.0972 23.1522C20.1763 23.0732 20.1763 22.9942 20.1763 22.9151C20.1763 22.6781 20.2554 22.441 20.4137 22.283C20.651 22.0459 20.8884 21.8089 21.1258 21.5718C20.651 21.1768 20.2554 20.7026 19.7807 20.3076C18.9103 19.4384 17.9608 18.4902 17.0904 17.5419C17.0113 17.4629 16.9322 17.4629 16.853 17.4629C16.22 17.4629 16.3783 17.5419 15.9827 16.9888C15.8244 16.6727 15.587 16.4357 15.4288 16.1196C15.2705 15.8826 15.2705 15.8036 15.5079 15.6455C15.9035 15.2504 15.9035 15.2504 16.3783 15.5665C16.6948 15.8036 17.0113 15.9616 17.3278 16.1196C17.486 16.1986 17.5652 16.3567 17.5652 16.5147C17.486 16.8308 17.6443 17.0678 17.8817 17.3049C19.0685 18.4902 20.3345 19.7544 21.5214 20.9397C21.5214 20.9397 21.6005 21.0187 21.6797 21.0977C21.917 20.8607 22.1544 20.6236 22.3918 20.3866C22.55 20.2285 22.7874 20.0705 23.0248 20.0705C23.1039 20.0705 23.1039 20.0705 23.183 19.9915C23.4204 19.7544 23.6578 19.5174 23.816 19.2803C23.816 19.2013 23.8952 19.1223 23.8952 19.1223C23.4995 17.0678 25.0821 15.1714 27.1393 15.2504C27.8514 15.2504 28.4844 15.4875 29.0383 15.8826C29.3548 16.1196 29.3548 16.5147 28.9592 16.6728C28.2471 16.9888 27.4558 17.3839 26.6646 17.7C26.9019 18.1741 27.1393 18.7272 27.3767 19.2013C27.4558 19.2013 27.5349 19.1223 27.5349 19.1223C28.2471 18.8062 28.8801 18.4902 29.5922 18.1741C29.9878 18.016 30.3043 18.1741 30.2252 18.6482C30.1461 20.5446 28.2471 21.9669 26.4272 21.6509C26.2689 21.6509 26.1107 21.6509 26.0316 21.8089C25.7942 22.0459 25.6359 22.283 25.3986 22.5201C25.8733 22.5991 26.1898 22.9942 26.5063 23.3102C27.6141 24.4165 28.8009 25.6017 29.9087 26.708C30.5417 27.3401 30.5417 28.2093 29.9087 28.8415C29.5922 29.1575 29.1966 29.5526 28.8801 29.8687C28.3262 30.4218 27.4558 30.4218 26.9019 29.8687C25.6359 28.6044 24.2908 27.2611 23.0248 25.9968C22.8665 25.8388 22.7874 25.6017 22.6292 25.4437C22.4709 25.6017 22.2335 25.8388 22.0753 25.9968C21.7588 26.2339 21.6797 26.4709 21.7588 26.866C21.917 28.2883 21.3632 29.3156 20.0972 30.0267C18.8312 30.7379 17.6443 30.5799 16.4574 29.7897C16.1409 29.5526 16.22 29.1575 16.5365 28.9995C17.2487 28.6834 17.8817 28.3674 18.5938 28.0513C18.6729 28.0513 18.752 27.9723 18.8312 27.9723ZM23.2622 21.1768C23.2622 21.0187 23.2622 20.8607 23.183 20.8607C23.1039 20.8607 23.0248 20.8607 22.9457 20.9397C22.3127 21.5718 21.6797 22.204 21.1258 22.7571C21.0467 22.8361 21.0467 22.9151 21.0467 22.9942C21.0467 23.0732 21.2049 23.0732 21.284 23.0732C22.4709 23.0732 23.3413 23.8634 23.4204 24.9696C23.4204 25.1276 23.4995 25.2857 23.6578 25.4437C24.9238 26.708 26.2689 28.0513 27.5349 29.3156C27.8514 29.6316 28.2471 29.6316 28.5636 29.3156C28.9592 28.9205 29.2757 28.6044 29.6713 28.2093C29.9878 27.8933 29.9878 27.4982 29.6713 27.1821C28.4053 25.9178 27.1393 24.6535 25.8733 23.3892C25.7151 23.2312 25.5568 23.1522 25.3194 23.1522C24.0534 23.1522 23.183 22.204 23.2622 21.1768ZM17.3278 29.4736C18.3564 29.9477 19.2268 29.8687 20.0972 29.2366C20.8884 28.6044 21.284 27.8142 21.1258 26.787C21.1258 26.629 20.9675 26.3919 21.0467 26.2339C21.1258 26.0758 21.284 25.9178 21.4423 25.7598C21.8379 25.3647 22.1544 24.9696 22.55 24.6535C22.3127 24.1794 21.8379 23.8634 21.284 23.8634C21.1258 23.8634 20.9675 23.8634 20.8093 23.7843C20.7302 23.7843 20.651 23.7843 20.5719 23.8634C20.2554 24.1794 20.018 24.4955 19.7015 24.7325C19.6224 24.8116 19.5433 24.8116 19.385 24.8116C18.0399 24.3375 16.5365 25.1276 16.1409 26.55C16.1409 26.629 16.1409 26.629 16.1409 26.708C16.22 26.629 16.2992 26.629 16.3783 26.55C16.9322 26.3129 17.486 26.0758 17.9608 25.8388C18.2773 25.6808 18.6729 25.8388 18.8312 26.1549C19.0685 26.708 19.3059 27.2611 19.5433 27.8142C19.7015 28.1303 19.5433 28.4464 19.2268 28.6834C19.1477 28.6834 19.1477 28.7624 19.0685 28.7624C18.4355 28.9205 17.8817 29.1575 17.3278 29.4736ZM23.7369 20.4656C23.8952 20.7026 23.8952 20.9397 23.8952 21.1768C23.8952 21.7299 24.1326 22.125 24.6073 22.362C25.0029 21.8879 25.4777 21.4928 25.8733 21.0187C25.9524 20.9397 26.0316 20.8607 26.1898 20.9397C27.6141 21.4138 29.0383 20.6236 29.4339 19.2013C29.4339 19.2013 29.4339 19.1223 29.4339 19.0433C28.8009 19.3593 28.1679 19.5964 27.6141 19.9125C27.2184 20.0705 26.9019 19.9915 26.7437 19.5964C26.5063 19.1223 26.2689 18.5692 26.0316 18.0951C25.8733 17.7 25.9524 17.3839 26.3481 17.1469C26.6646 16.9888 26.9811 16.8308 27.3767 16.6728C27.6932 16.5147 27.9306 16.4357 28.2471 16.2777H28.1679C27.1393 15.8826 26.1898 15.9616 25.3194 16.6728C24.5282 17.3839 24.2908 18.3321 24.6073 19.3593C24.6864 19.5174 24.6073 19.5964 24.5282 19.6754C24.2908 19.9125 24.0534 20.1495 23.7369 20.4656ZM16.2992 16.1986C16.2992 16.2777 16.2992 16.2777 16.2992 16.1986C16.3783 16.4357 16.5365 16.5937 16.6157 16.7518C16.6948 16.9098 16.853 16.9098 17.0113 16.9098C17.0113 16.8308 17.0113 16.6727 16.9322 16.5937C16.7739 16.4357 16.5365 16.3567 16.2992 16.1986Z" fill="white"/>
<path d="M12.1859 29.8687C12.1068 30.2638 12.1068 30.6589 12.0276 31.054C12.0276 31.212 11.9485 31.3701 11.9485 31.6071C11.9485 31.9232 11.7111 32.0812 11.4738 32.0022C11.2364 32.0022 11.0781 31.7651 11.0781 31.4491C11.1573 30.7379 11.2364 30.0268 11.3946 29.3156C11.3946 29.0785 11.4738 28.8415 11.4738 28.6044C11.5529 28.2884 11.7111 28.1303 12.0276 28.2094C12.9771 28.3674 13.8475 28.4464 14.797 28.6044C15.1135 28.6835 15.2718 28.8415 15.1926 29.0785C15.1926 29.3156 14.9553 29.4736 14.6388 29.3946C14.0849 29.3156 13.531 29.2366 12.9771 29.1576C12.898 29.1576 12.898 29.1576 12.7398 29.1576C12.8189 29.2366 12.898 29.3156 12.9771 29.4736C13.531 30.2638 14.164 31.054 14.8761 31.7651C16.8543 33.6616 19.1489 34.7678 21.8391 35.0049C25.7163 35.4 29.0395 34.0567 31.7298 31.212C33.4705 29.3156 34.4201 27.1031 34.6574 24.5745C34.7366 23.9424 34.6574 23.2312 34.7366 22.5991C34.7366 22.3621 34.8948 22.125 35.1322 22.125C35.3696 22.125 35.6069 22.283 35.6069 22.5201C35.7652 25.2857 35.1322 27.8143 33.7079 30.1058C31.8089 33.0294 29.1978 34.8468 25.8745 35.558C21.2061 36.5852 16.2213 34.8468 13.2936 31.054C13.0563 30.7379 12.7398 30.3428 12.5024 30.0268C12.265 29.9477 12.265 29.9477 12.1859 29.8687Z" fill="white"/>
<path d="M33.6281 15.8825C33.7072 15.4084 33.7863 14.8553 33.8655 14.3812C33.8655 14.3022 33.8655 14.2232 33.8655 14.2232C33.9446 13.9861 34.1028 13.8281 34.3402 13.8281C34.5776 13.9071 34.7358 14.0651 34.6567 14.3022C34.5776 14.7763 34.4985 15.2504 34.4193 15.7245C34.3402 16.1986 34.2611 16.6727 34.182 17.1468C34.1028 17.4629 33.9446 17.6209 33.6281 17.5419C32.7577 17.3839 31.8082 17.3048 30.9378 17.1468C30.6213 17.1468 30.4631 16.9098 30.5422 16.6727C30.5422 16.4356 30.7796 16.2776 31.0961 16.3566C31.65 16.4356 32.2038 16.5147 32.7577 16.5937C32.8368 16.5937 32.916 16.5937 32.9951 16.5937C32.9951 16.5937 32.9951 16.5937 32.9951 16.5147C32.2038 15.4874 31.4917 14.4602 30.4631 13.591C28.4058 11.8526 26.1112 10.8254 23.4209 10.6674C18.8317 10.3513 14.5589 12.7218 12.4225 16.8307C11.3939 18.8062 10.9192 20.8606 11.0774 23.0731C11.0774 23.3892 10.9192 23.5472 10.6818 23.5472C10.4444 23.5472 10.207 23.3892 10.207 23.0731C10.207 22.8361 10.207 22.678 10.207 22.441C10.207 19.5173 10.9983 16.9098 12.8182 14.6182C14.9545 11.7736 17.8822 10.1142 21.3637 9.79817C26.0321 9.32406 29.9092 11.0625 32.8368 14.7763C33.1533 15.2504 33.3907 15.5665 33.6281 15.8825C33.6281 15.8035 33.549 15.8035 33.6281 15.8825Z" fill="white"/>
<path d="M24.2122 24.5747C24.3705 24.6537 24.4496 24.6537 24.5287 24.7327C25.7156 25.918 26.9025 27.1033 28.0894 28.2885C28.2476 28.4466 28.2476 28.6836 28.0894 28.8417C27.9311 28.9997 27.6937 28.9997 27.5355 28.7626C26.3486 27.5774 25.1617 26.3921 23.9748 25.2068C23.8166 25.0488 23.8166 24.9698 23.8957 24.8118C23.9748 24.7327 24.1331 24.6537 24.2122 24.5747Z" fill="white"/>
<path d="M25.1613 23.7051C25.2404 23.7051 25.3195 23.7841 25.3986 23.8631C26.5855 25.0484 27.7724 26.2336 28.9593 27.4189C29.1175 27.5769 29.1175 27.814 28.9593 27.972C28.801 28.1301 28.5636 28.1301 28.4054 27.893C27.2976 26.7868 26.1899 25.6805 25.1613 24.5743C25.0821 24.4953 24.9239 24.3372 24.8448 24.2582C24.7656 24.1792 24.7656 24.0211 24.7656 23.8631C24.8448 23.7841 24.9239 23.7051 25.1613 23.7051Z" fill="white"/>
</svg>
