<svg width="46" height="46" viewBox="0 0 46 46" fill="none" xmlns="http://www.w3.org/2000/svg">
<path d="M4.82664 45.8302H41.066C43.6771 45.8302 45.8926 43.6967 45.8926 41.0101V4.82006C45.8926 2.21247 43.7562 0 41.066 0H4.82664C2.21551 0 0 2.13346 0 4.82006V41.0101C0 43.6967 2.21551 45.8302 4.82664 45.8302Z" fill="#EE4823"/>
<path d="M16.6154 37.1376C16.4572 37.6117 16.378 38.3229 15.9824 38.5599C15.5076 38.797 14.7955 38.718 14.2417 38.718C13.213 38.718 13.4504 37.7697 13.2921 37.1376C12.7383 37.3747 12.1844 37.8488 11.7096 37.6907C11.2349 37.6117 10.7601 36.9796 10.3645 36.5845C9.65238 35.7943 10.6019 35.3992 10.8392 34.7671C10.2854 34.53 9.57326 34.372 9.33589 33.9769C9.09851 33.6608 9.25673 32.9497 9.25673 32.3966C9.25673 31.2903 10.2854 31.6064 10.8392 31.3693C10.6019 30.8162 10.2063 30.2631 10.2854 29.789C10.3645 29.3939 10.9184 28.9988 11.2349 28.6037C12.0261 27.7345 12.58 28.7617 13.2921 28.9988C13.4504 28.2086 13.3713 27.3394 14.479 27.1814C14.5581 27.1814 14.5582 26.7863 14.6373 26.5492C15.112 24.8108 16.5363 23.6256 18.277 23.5466C19.3057 23.4676 20.3343 23.4676 21.3629 23.5466C21.6794 23.5466 22.075 23.7836 22.3124 24.0207C22.8663 24.5738 23.2619 25.2059 23.8158 25.9171C24.3697 25.285 24.8444 24.6528 25.3192 24.0997C25.5566 23.8626 25.9521 23.5466 26.2686 23.5466C27.4555 23.4676 28.5633 23.4676 29.7502 23.5466C31.7283 23.6256 33.3108 25.2059 33.3899 27.1024C33.469 29.947 33.3899 32.7126 33.3899 35.5573C33.3899 36.4264 32.8361 36.3474 32.2822 36.3474C28.3259 36.3474 24.4488 36.3474 20.4925 36.3474C19.7804 36.3474 19.2265 36.5054 18.7518 37.0586C18.1979 37.8487 17.4858 38.0858 16.7736 37.2166C16.6945 37.1376 16.6154 37.1376 16.5363 37.1376C16.6945 37.1376 16.6945 37.1376 16.6154 37.1376ZM24.3697 35.4782C26.0313 35.4782 27.5347 35.4782 29.1963 35.4782C29.1963 33.8979 29.1963 32.3965 29.1963 30.8952C29.1963 30.5791 29.4337 30.3421 29.5919 30.026C29.7502 30.3421 29.9876 30.5791 30.0667 30.8952C30.1458 31.3693 30.0667 31.9224 30.0667 32.3966C30.0667 33.4238 30.0667 34.451 30.0667 35.5573C31.0162 35.5573 31.7283 35.5573 32.5196 35.5573C32.5196 32.6336 32.5987 29.7889 32.5196 26.9443C32.4404 25.68 31.2536 24.6528 29.9084 24.5738C29.0381 24.4948 28.1677 24.5738 27.2973 24.5738C26.2687 24.5738 24.3697 26.2332 24.3697 27.2604C24.2905 29.947 24.3697 32.6336 24.3697 35.4782ZM23.2619 35.5573C23.341 35.3202 23.4202 35.2412 23.4202 35.1622C23.4202 32.5546 23.4202 29.947 23.4202 27.2604C23.4202 27.0234 23.341 26.7073 23.1828 26.5492C22.3124 25.1269 21.2046 24.0207 19.3056 24.4948C19.0683 24.5738 18.7518 24.4948 18.5144 24.4948C16.7736 24.5738 15.8241 25.443 15.5076 26.7863C15.9824 27.7345 16.2989 28.3667 16.6945 28.9988C17.2484 28.7617 17.8023 27.8135 18.5935 28.6827C18.91 29.0778 19.543 29.4729 19.543 29.868C19.6221 30.3421 19.2265 30.8952 18.9892 31.4483C19.543 31.6854 20.5717 31.3693 20.5717 32.4755C20.5717 33.0287 20.7299 33.7399 20.4134 34.1349C20.176 34.53 19.4639 34.6091 18.7518 34.9251C20.2551 36.1104 21.8376 35.2412 23.2619 35.5573ZM10.2062 33.5818C11.7887 33.5818 12.4217 34.8461 11.2349 36.1104C11.4722 36.3474 11.6305 36.5845 11.8679 36.8215C13.4504 35.7153 14.1625 36.0313 14.5581 37.8487C14.8746 37.8487 15.1911 37.8487 15.5076 37.8487C15.8241 36.0313 16.5363 35.7943 18.1188 36.8215C18.3561 36.5845 18.5935 36.4264 18.8309 36.1894C17.644 34.6881 17.9605 34.0559 19.7804 33.5818C19.7804 33.2657 19.7804 32.9497 19.7804 32.6336C18.0397 32.3965 17.7231 31.6064 18.7518 30.026C18.5144 29.789 18.277 29.6309 18.0397 29.3939C16.6945 30.5001 15.9033 30.1841 15.5076 28.4457C15.1911 28.4457 14.8747 28.4457 14.479 28.4457C14.3208 30.1841 13.4504 30.5001 11.947 29.3939C11.7096 29.6309 11.4722 29.789 11.2349 30.026C12.3426 31.5274 12.0262 32.3175 10.2854 32.7126C10.2063 32.9496 10.2062 33.2657 10.2062 33.5818Z" fill="white"/>
<path d="M19.1467 17.3044C18.5928 17.0674 17.8808 16.9093 17.8016 16.6723C17.7225 15.9611 17.3268 15.171 18.1181 14.6178C18.2763 14.5388 18.2763 14.2228 18.3555 13.9857C18.7511 12.2473 19.7798 10.983 21.3623 10.1138C21.6788 9.9558 21.837 9.56071 22.0744 9.32366C22.3117 9.08661 22.5491 8.84957 22.7865 8.84957C23.3404 8.77055 23.9734 8.84957 24.6064 8.84957C25.2394 8.84957 25.9515 8.69152 25.9515 9.71875C25.9515 9.87678 26.3471 10.0348 26.5845 10.1928C28.167 11.062 29.1957 12.3263 29.6704 14.0647C29.7495 14.4598 30.1451 14.7759 30.3034 15.25C30.699 16.3562 30.2243 17.0674 28.8792 17.3835C28.8 19.4379 28.4044 21.3344 26.6636 22.6777C25.9515 23.2308 24.9229 23.6258 24.0525 23.6258C21.3622 23.5468 19.7797 21.4133 19.1467 17.3044ZM20.1754 17.1464C20.0963 19.0428 20.571 20.6232 21.9953 21.8875C23.0239 22.7567 24.2899 22.9147 25.3976 22.2826C26.9801 21.4134 28.0088 19.1218 27.6923 17.2254C25.3185 17.1464 22.7865 17.1464 20.1754 17.1464ZM23.103 9.71875C23.103 10.0348 23.0239 10.1928 23.0239 10.3509C23.0239 10.5879 23.0239 10.746 23.0239 10.983C22.9447 11.7732 22.5491 11.6942 21.9161 10.904C20.4918 11.6942 19.5424 12.8794 19.305 14.5388C22.5491 14.5388 25.635 14.5388 28.8 14.5388C28.4835 12.8004 27.6131 11.6152 26.1889 10.904C25.8724 11.1411 25.635 11.2991 25.3185 11.4571C25.1603 11.2201 25.002 10.904 24.9229 10.5879C24.8438 10.2719 24.8437 9.95582 24.8437 9.63975C24.2899 9.71877 23.736 9.71875 23.103 9.71875ZM18.672 15.6451C18.672 15.7241 18.5929 15.8031 18.5929 15.9612C18.7511 16.0402 18.9093 16.1982 19.1467 16.1982C22.3908 16.1982 25.635 16.1982 28.8 16.1982C28.9582 16.1982 29.1956 15.9611 29.3539 15.8821C29.3539 15.8031 29.2748 15.7241 29.2748 15.6451C25.7933 15.6451 22.2326 15.6451 18.672 15.6451Z" fill="white"/>
<path d="M14.954 30.5C16.3782 30.5 17.5651 31.6853 17.5651 33.1076C17.5651 34.4509 16.3783 35.6361 15.0331 35.6361C13.6089 35.6361 12.422 34.5299 12.422 33.0286C12.3428 31.6063 13.4506 30.5 14.954 30.5ZM16.6156 33.0286C16.6156 32.1594 15.8243 31.3692 14.954 31.3692C14.0836 31.3692 13.2924 32.1594 13.2924 33.0286C13.2924 33.9768 14.0836 34.7669 15.0331 34.6879C15.9035 34.6879 16.6156 33.9768 16.6156 33.0286Z" fill="white"/>
</svg>
